<svg width="179" height="336" viewBox="0 0 179 336" fill="none" xmlns="http://www.w3.org/2000/svg">
<path fill-rule="evenodd" clip-rule="evenodd" d="M27.871 167.442C24.8364 167.409 21.798 167.623 18.8152 168.122C15.2122 168.723 11.3594 169.652 8.19228 171.884C5.66412 173.665 3.84087 176.266 2.49005 178.883C1.09415 181.587 0.167501 184.64 0.0339723 187.731C-0.156528 192.106 0.426345 196.789 2.49005 200.801C5.71695 207.074 10.7509 213.118 17.2952 216.154C22.1876 218.424 28.0271 218.388 33.1223 217.19C39.2037 215.76 45.1883 212.5 49.3617 207.766C52.983 203.658 54.8731 198.16 55.6693 192.895C56.3132 188.636 56.0884 183.985 54.3554 179.919C52.9524 176.628 50.4019 173.835 47.5024 171.871C44.3073 169.707 40.4722 168.861 36.9009 168.259C33.9337 167.759 30.9055 167.476 27.871 167.442ZM27.8452 169.644C30.7595 169.677 33.6767 169.949 36.5359 170.43C40.0203 171.018 43.5387 171.844 46.2701 173.694C48.8597 175.448 51.1344 177.972 52.333 180.783C53.8523 184.348 54.0931 188.623 53.4966 192.568C52.7443 197.543 50.9366 202.656 47.7128 206.313C43.9014 210.637 38.2858 213.717 32.62 215.049C27.8859 216.162 22.4869 216.139 18.2184 214.159C12.3014 211.414 7.50529 205.747 4.44375 199.795C2.62455 196.258 2.05358 191.933 2.23242 187.826C2.34951 185.115 3.17645 182.348 4.44375 179.893C5.69413 177.471 7.35411 175.168 9.45896 173.685C12.1679 171.777 15.6921 170.874 19.1759 170.293C22.0213 169.818 24.9309 169.611 27.8452 169.644Z" fill="#EFF4F9"/>
<path fill-rule="evenodd" clip-rule="evenodd" d="M3.66657 178.414C3.4483 178.427 3.23875 178.504 3.06471 178.637C2.89067 178.769 2.76004 178.951 2.68952 179.158C2.619 179.365 2.61178 179.589 2.6688 179.8C2.72582 180.012 2.84447 180.201 3.00961 180.345C3.00961 180.345 4.03901 181.265 5.37981 182.305C6.72061 183.345 8.33258 184.515 9.79817 185.091C16.0073 187.531 22.8407 187.837 29.3094 187.778C42.9942 187.655 53.5782 181.897 53.5782 181.897C53.7089 181.83 53.8248 181.738 53.9193 181.625C54.0138 181.513 54.0849 181.383 54.1284 181.243C54.1719 181.102 54.1869 180.955 54.1725 180.809C54.1582 180.662 54.1148 180.521 54.0449 180.392C53.975 180.263 53.88 180.149 53.7654 180.057C53.6509 179.965 53.5192 179.897 53.3781 179.857C53.237 179.817 53.0893 179.806 52.9437 179.824C52.7982 179.842 52.6577 179.889 52.5305 179.962C52.5305 179.962 42.3675 185.458 29.2879 185.577C22.9063 185.634 16.3546 185.301 10.6011 183.04C9.61831 182.654 8.00415 181.554 6.72808 180.564C5.452 179.574 4.47381 178.702 4.47381 178.702C4.36536 178.603 4.23803 178.526 4.09936 178.476C3.96069 178.427 3.81352 178.406 3.66657 178.414Z" fill="#EFF4F9"/>
<path fill-rule="evenodd" clip-rule="evenodd" d="M54.2738 186.256C53.9888 186.268 53.7194 186.389 53.5224 186.596C53.5224 186.596 53.0267 187.1 52.3802 187.692C51.7337 188.285 50.906 188.971 50.4523 189.231C47.7767 190.77 44.7021 191.736 41.5941 192.34C38.9385 192.856 32.7659 192.731 32.7659 192.731C32.6216 192.727 32.4778 192.751 32.3429 192.803C32.2079 192.855 32.0845 192.933 31.9795 193.032C31.8746 193.131 31.7903 193.251 31.7314 193.383C31.6725 193.515 31.6401 193.657 31.6362 193.802C31.6322 193.946 31.6567 194.09 31.7084 194.225C31.76 194.36 31.8377 194.484 31.937 194.589C32.0364 194.694 32.1554 194.778 32.2873 194.837C32.4192 194.896 32.5614 194.928 32.7058 194.932C32.7058 194.932 38.7294 195.141 42.0149 194.502C45.2863 193.867 48.5877 192.843 51.5472 191.14C52.3484 190.679 53.1725 189.957 53.8659 189.322C54.5593 188.686 55.0897 188.143 55.0897 188.143C55.2474 187.987 55.3543 187.787 55.3964 187.569C55.4385 187.351 55.4138 187.126 55.3256 186.922C55.2374 186.719 55.0897 186.547 54.902 186.428C54.7143 186.31 54.4953 186.252 54.2738 186.261L54.2738 186.256Z" fill="#EFF4F9"/>
<path fill-rule="evenodd" clip-rule="evenodd" d="M53.3807 195.775C53.2078 195.78 53.0387 195.826 52.8869 195.909C52.8869 195.909 47.1485 198.861 44.3851 199.654C42.5329 200.186 38.0087 200.578 38.0087 200.578C37.7178 200.601 37.4477 200.739 37.2581 200.961C37.0685 201.183 36.9747 201.472 36.9975 201.763C37.0203 202.054 37.1577 202.325 37.3796 202.515C37.6014 202.704 37.8895 202.798 38.1805 202.775C38.1805 202.775 42.5716 202.464 44.9905 201.769C48.3208 200.813 53.9046 197.861 53.9046 197.861C54.1288 197.749 54.3081 197.564 54.4128 197.336C54.5174 197.108 54.5411 196.851 54.48 196.608C54.4189 196.364 54.2766 196.149 54.0766 195.998C53.8767 195.847 53.6312 195.767 53.3807 195.775Z" fill="#EFF4F9"/>
<path fill-rule="evenodd" clip-rule="evenodd" d="M28.4635 172.163C26.4431 172.185 23.858 172.227 21.3958 172.412C18.9322 172.597 16.6224 172.895 14.9551 173.547C11.7784 174.791 10.2404 177.137 10.2404 177.137C10.1611 177.259 10.1068 177.396 10.0807 177.54C10.0546 177.683 10.0572 177.83 10.0884 177.973C10.1195 178.115 10.1786 178.25 10.2622 178.369C10.3458 178.488 10.4523 178.59 10.5754 178.668C10.5754 178.668 15.5241 181.844 20.0733 182.804C24.5351 183.746 31.8844 183.784 36.3857 182.872C40.9779 181.943 46.0897 178.74 46.0897 178.74C46.2378 178.649 46.362 178.523 46.4522 178.374C46.5424 178.225 46.596 178.057 46.6086 177.883C46.6212 177.709 46.5924 177.535 46.5246 177.375C46.4568 177.214 46.3519 177.072 46.2186 176.96C46.2186 176.96 42.9771 174.146 39.7349 173.108C36.5843 172.1 32.499 172.127 28.4678 172.162L28.4635 172.163ZM28.4851 174.364C32.5009 174.329 36.4771 174.386 39.0651 175.207C40.9092 175.797 42.2513 176.954 43.3031 177.748C41.634 178.67 38.8066 180.137 35.9521 180.714C31.9493 181.524 24.4944 181.487 20.5286 180.65C17.5581 180.023 14.6304 178.429 13.1217 177.564C13.5946 176.999 13.9274 176.314 15.7538 175.599C16.9483 175.132 19.1833 174.789 21.5591 174.61C23.9349 174.432 26.4818 174.382 28.4851 174.364Z" fill="#EFF4F9"/>
<path fill-rule="evenodd" clip-rule="evenodd" d="M17.9822 162.76L15.8826 163.409L21.5848 181.983L23.6845 181.333L17.9822 162.76Z" fill="#EFF4F9"/>
<path fill-rule="evenodd" clip-rule="evenodd" d="M47.3521 157.506C47.2163 157.51 47.0824 157.539 46.9571 157.592L37.6137 161.376C37.4404 161.446 37.2879 161.56 37.1707 161.706C37.0535 161.851 36.9754 162.025 36.9439 162.21L33.5732 181.677C33.5487 181.82 33.5524 181.966 33.5843 182.107C33.6161 182.248 33.6754 182.381 33.7587 182.5C33.927 182.738 34.1831 182.9 34.4706 182.95C34.613 182.974 34.7588 182.971 34.8997 182.939C35.0407 182.907 35.174 182.847 35.292 182.764C35.5303 182.596 35.6921 182.339 35.7416 182.051L39.0049 163.186L47.7815 159.634C48.0244 159.541 48.2265 159.365 48.3518 159.137C48.4772 158.909 48.5177 158.644 48.4662 158.388C48.4147 158.133 48.2745 157.904 48.0706 157.743C47.8666 157.581 47.612 157.498 47.3521 157.506Z" fill="#EFF4F9"/>
<path fill-rule="evenodd" clip-rule="evenodd" d="M15.5906 155.86C15.4355 155.866 15.2833 155.904 15.1442 155.973C15.0051 156.042 14.8821 156.14 14.7833 156.26L7.70707 164.79C7.55931 164.969 7.47195 165.19 7.45751 165.422C7.44307 165.654 7.50228 165.884 7.62667 166.08C7.75106 166.277 7.93424 166.428 8.14999 166.514C8.36574 166.599 8.60299 166.614 8.82777 166.557L26.3467 162.016C26.5723 161.958 26.7734 161.829 26.9211 161.649C27.0688 161.468 27.1553 161.245 27.1682 161.012C27.1811 160.779 27.1197 160.548 26.9929 160.352C26.866 160.156 26.6803 160.006 26.4626 159.923L16.0199 155.933C15.8831 155.88 15.7371 155.855 15.5906 155.86ZM15.9727 158.267L22.4607 160.748L11.5758 163.569L15.9727 158.267Z" fill="#EFF4F9"/>
<path fill-rule="evenodd" clip-rule="evenodd" d="M14.7533 153.001C14.5809 153.008 14.4125 153.055 14.2618 153.139C14.1111 153.223 13.9822 153.341 13.8857 153.485C13.7891 153.628 13.7275 153.792 13.7059 153.963C13.6844 154.134 13.7034 154.308 13.7614 154.471L14.6545 157.111C14.6989 157.25 14.7705 157.379 14.8652 157.49C14.9599 157.601 15.0757 157.693 15.206 157.759C15.3362 157.825 15.4783 157.864 15.6239 157.874C15.7695 157.885 15.9157 157.866 16.054 157.819C16.1922 157.772 16.3198 157.698 16.4292 157.602C16.5387 157.505 16.6278 157.387 16.6914 157.256C16.7549 157.124 16.7917 156.981 16.7996 156.835C16.8074 156.689 16.7862 156.543 16.737 156.406L15.8439 153.766C15.7708 153.537 15.6245 153.337 15.4275 153.199C15.2305 153.061 14.9936 152.991 14.7533 153.001Z" fill="#EFF4F9"/>
<path fill-rule="evenodd" clip-rule="evenodd" d="M7.71995 187.301C7.61577 187.309 7.51598 187.346 7.43227 187.409L1.01726 191.979C0.958338 192.021 0.908264 192.074 0.869901 192.136C0.831538 192.197 0.805636 192.266 0.793675 192.337C0.781714 192.409 0.783927 192.482 0.800189 192.552C0.81645 192.623 0.846442 192.69 0.88845 192.749C0.930459 192.808 0.983663 192.858 1.04502 192.896C1.10638 192.935 1.1747 192.961 1.24607 192.973C1.31744 192.985 1.39047 192.983 1.46098 192.966C1.5315 192.95 1.59812 192.92 1.65705 192.878L8.06776 188.303C8.16654 188.235 8.24021 188.136 8.27747 188.021C8.31474 187.907 8.31356 187.784 8.27411 187.67C8.23466 187.556 8.15912 187.459 8.05904 187.392C7.95896 187.326 7.83986 187.293 7.71995 187.301Z" fill="#EFF4F9"/>
<path fill-rule="evenodd" clip-rule="evenodd" d="M9.83252 189.734C9.72846 189.747 9.63014 189.789 9.54913 189.856L2.26248 195.595C2.20126 195.638 2.14943 195.693 2.11015 195.757C2.07088 195.821 2.04498 195.892 2.03405 195.966C2.02312 196.04 2.02739 196.115 2.04658 196.187C2.06578 196.26 2.09951 196.327 2.1457 196.386C2.1919 196.445 2.24959 196.494 2.31526 196.53C2.38092 196.566 2.45318 196.587 2.52761 196.594C2.60203 196.601 2.67707 196.593 2.74814 196.57C2.8192 196.546 2.88479 196.509 2.9409 196.459L10.2276 190.72C10.3231 190.647 10.3922 190.544 10.424 190.428C10.4559 190.312 10.4489 190.189 10.4041 190.077C10.3593 189.965 10.2791 189.871 10.1758 189.81C10.0726 189.748 9.95201 189.721 9.83252 189.734Z" fill="#EFF4F9"/>
<path fill-rule="evenodd" clip-rule="evenodd" d="M12.7781 191.777C12.6543 191.783 12.5363 191.831 12.4432 191.913L3.60216 199.501C3.54583 199.548 3.49937 199.606 3.46548 199.67C3.43159 199.735 3.41096 199.806 3.40479 199.879C3.39862 199.952 3.40704 200.025 3.42956 200.095C3.45208 200.165 3.48824 200.229 3.53592 200.285C3.58361 200.34 3.64186 200.386 3.70728 200.418C3.7727 200.451 3.84396 200.47 3.9169 200.475C3.98984 200.479 4.06299 200.47 4.13207 200.446C4.20116 200.422 4.26478 200.384 4.31923 200.336L13.1603 192.748C13.2487 192.674 13.3117 192.574 13.3401 192.462C13.3686 192.35 13.3612 192.232 13.3189 192.125C13.2766 192.017 13.2017 191.926 13.1046 191.863C13.0075 191.801 12.8933 191.77 12.7781 191.777Z" fill="#EFF4F9"/>
<path fill-rule="evenodd" clip-rule="evenodd" d="M15.0109 194.79C14.8865 194.798 14.7684 194.848 14.676 194.931L5.54297 202.907C5.4859 202.953 5.43876 203.011 5.40436 203.076C5.36996 203.141 5.34901 203.213 5.34274 203.286C5.33648 203.36 5.34503 203.434 5.36788 203.504C5.39074 203.574 5.42744 203.639 5.4758 203.694C5.52416 203.75 5.58319 203.795 5.64939 203.828C5.7156 203.86 5.78761 203.879 5.86117 203.882C5.93473 203.886 6.00832 203.876 6.07758 203.851C6.14684 203.825 6.21035 203.786 6.26434 203.736L15.3973 195.761C15.4862 195.687 15.5493 195.586 15.5777 195.473C15.6062 195.361 15.5984 195.243 15.5555 195.135C15.5127 195.027 15.437 194.936 15.3392 194.874C15.2414 194.812 15.1265 194.783 15.0109 194.79Z" fill="#EFF4F9"/>
<path fill-rule="evenodd" clip-rule="evenodd" d="M17.4541 197.516C17.3296 197.52 17.21 197.566 17.1149 197.646L7.11023 205.914C6.99749 206.007 6.92624 206.141 6.91216 206.286C6.89807 206.432 6.94229 206.577 7.03511 206.69C7.12792 206.803 7.26171 206.874 7.40706 206.888C7.5524 206.902 7.69739 206.858 7.81012 206.765L17.8148 198.497C17.905 198.425 17.9703 198.327 18.0013 198.215C18.0324 198.104 18.0276 197.985 17.9876 197.877C17.9477 197.768 17.8747 197.675 17.7789 197.611C17.6832 197.546 17.5695 197.513 17.4541 197.516Z" fill="#EFF4F9"/>
<path fill-rule="evenodd" clip-rule="evenodd" d="M19.7728 200.921C19.6676 200.927 19.5662 200.963 19.4808 201.025L9.17986 208.321C9.12092 208.363 9.07079 208.415 9.0323 208.477C8.99382 208.538 8.96775 208.606 8.95559 208.677C8.94342 208.749 8.94539 208.822 8.96139 208.892C8.97739 208.963 9.00711 209.029 9.04884 209.088C9.09057 209.147 9.1435 209.198 9.20461 209.236C9.26571 209.275 9.3338 209.3 9.40498 209.313C9.47616 209.325 9.54903 209.323 9.61944 209.307C9.68986 209.291 9.75642 209.261 9.81535 209.219L20.1163 201.923C20.2146 201.855 20.288 201.756 20.3253 201.643C20.3626 201.529 20.3618 201.406 20.3229 201.292C20.2841 201.179 20.2093 201.082 20.11 201.015C20.0107 200.948 19.8923 200.915 19.7728 200.921Z" fill="#EFF4F9"/>
<path fill-rule="evenodd" clip-rule="evenodd" d="M22.7226 202.865C22.5983 202.864 22.4772 202.905 22.3791 202.981L12.7609 210.278C12.6448 210.366 12.5685 210.497 12.5487 210.641C12.529 210.786 12.5675 210.933 12.6558 211.049C12.744 211.165 12.8748 211.242 13.0193 211.262C13.1639 211.281 13.3103 211.243 13.4265 211.154L23.0447 203.859C23.1375 203.79 23.2064 203.694 23.2417 203.584C23.2769 203.474 23.2767 203.356 23.2411 203.246C23.2055 203.136 23.1363 203.04 23.0432 202.972C22.9502 202.903 22.838 202.866 22.7226 202.865Z" fill="#EFF4F9"/>
<path fill-rule="evenodd" clip-rule="evenodd" d="M25.6468 204.907C25.5224 204.906 25.4013 204.947 25.3033 205.023L14.9036 212.706C14.8441 212.749 14.7937 212.803 14.7553 212.865C14.7169 212.927 14.6912 212.996 14.6797 213.068C14.6682 213.14 14.6712 213.214 14.6884 213.285C14.7057 213.356 14.7369 213.423 14.7802 213.481C14.8235 213.54 14.8781 213.59 14.9408 213.627C15.0034 213.664 15.0729 213.689 15.1451 213.7C15.2173 213.71 15.2909 213.705 15.3615 213.687C15.432 213.668 15.4983 213.636 15.5562 213.592L25.9559 205.905C26.0497 205.838 26.12 205.742 26.1568 205.633C26.1935 205.523 26.1949 205.405 26.1607 205.294C26.1265 205.184 26.0584 205.087 25.9662 205.018C25.8739 204.948 25.7622 204.909 25.6468 204.907Z" fill="#EFF4F9"/>
<path fill-rule="evenodd" clip-rule="evenodd" d="M28.5709 207.241C28.4272 207.235 28.287 207.286 28.1801 207.382L19.7298 214.777C19.6728 214.824 19.6256 214.881 19.5912 214.947C19.5568 215.012 19.5359 215.084 19.5296 215.157C19.5233 215.231 19.5319 215.304 19.5547 215.374C19.5776 215.445 19.6143 215.509 19.6627 215.565C19.711 215.621 19.7701 215.666 19.8363 215.698C19.9025 215.731 19.9745 215.749 20.048 215.753C20.1216 215.757 20.1952 215.746 20.2644 215.721C20.3337 215.696 20.3972 215.657 20.4512 215.607L28.9058 208.212C28.991 208.141 29.0525 208.045 29.0822 207.937C29.1118 207.83 29.1083 207.716 29.072 207.611C29.0357 207.506 28.9684 207.414 28.8789 207.348C28.7894 207.282 28.682 207.245 28.5709 207.241Z" fill="#EFF4F9"/>
<path fill-rule="evenodd" clip-rule="evenodd" d="M32.1133 209.868C31.9706 209.876 31.8367 209.939 31.7397 210.044L25.5222 216.562C25.4723 216.615 25.4332 216.676 25.407 216.744C25.3809 216.811 25.3683 216.883 25.3699 216.955C25.3715 217.027 25.3873 217.098 25.4163 217.165C25.4454 217.231 25.4873 217.291 25.5394 217.341C25.5916 217.391 25.653 217.43 25.7203 217.456C25.7876 217.482 25.8594 217.495 25.9316 217.493C26.0037 217.491 26.0749 217.476 26.1409 217.447C26.207 217.417 26.2667 217.376 26.3166 217.323L32.5341 210.805C32.6124 210.726 32.665 210.625 32.6848 210.516C32.7047 210.406 32.691 210.293 32.6454 210.192C32.5998 210.09 32.5245 210.005 32.4296 209.947C32.3346 209.89 32.2243 209.862 32.1133 209.868Z" fill="#EFF4F9"/>
<path fill-rule="evenodd" clip-rule="evenodd" d="M30.7505 35.911C30.6238 35.8357 30.4829 35.7871 30.3368 35.768C30.1907 35.7489 30.0423 35.7597 29.9007 35.8C29.9007 35.8 24.3354 37.3625 21.503 38.4487C19.815 39.0957 17.8678 39.6552 16.1638 40.8979C14.8632 41.8464 13.5968 43.0555 12.81 44.6197C12.0699 46.0921 11.9612 47.6816 11.9036 49.0797C11.8149 51.2309 12.529 54.7697 12.529 54.7697C12.5553 54.9091 12.6089 55.0418 12.6866 55.1607C12.7643 55.2795 12.8646 55.3821 12.9819 55.4624C13.0991 55.5426 13.2311 55.5989 13.3701 55.6283C13.509 55.6577 13.6524 55.6595 13.7919 55.6336C13.9315 55.6076 14.0644 55.5546 14.1833 55.4773C14.3021 55.4 14.4044 55.3001 14.4845 55.1833C14.5645 55.0664 14.6207 54.9347 14.6498 54.796C14.6789 54.6574 14.6802 54.5143 14.6539 54.375C14.6539 54.375 14.0016 50.6708 14.0632 49.1748C14.1182 47.8411 14.2515 46.561 14.7386 45.592C15.3019 44.4722 16.3136 43.4652 17.4421 42.6422C18.7474 41.6901 20.4898 41.1487 22.2821 40.4616C24.5125 39.6064 28.1671 38.5743 29.3607 38.2321C29.6267 39.4016 30.3681 42.5539 30.5461 44.561C30.7192 46.5152 30.9013 48.408 30.5225 50.0725C30.1602 51.6656 29.4517 53.2307 28.4564 54.4771C27.8273 55.2637 26.9247 55.9244 25.9469 56.4238C25.528 56.6378 24.5709 56.9348 23.7801 57.1319C22.9895 57.3287 22.3476 57.4503 22.3476 57.4503C22.2081 57.4769 22.0751 57.5307 21.9565 57.6085C21.8379 57.6864 21.7358 57.7869 21.6562 57.9042C21.5765 58.0216 21.5209 58.1534 21.4924 58.2923C21.4639 58.4313 21.4632 58.5744 21.4901 58.7138C21.5171 58.8532 21.5711 58.9862 21.6494 59.1048C21.7277 59.2234 21.8287 59.3255 21.9464 59.4053C22.0641 59.4851 22.1964 59.541 22.3357 59.5698C22.4749 59.5986 22.6185 59.5997 22.758 59.5731C22.758 59.5731 23.4553 59.436 24.3088 59.2235C25.1624 59.0108 26.1529 58.7447 26.9353 58.3451C28.1139 57.7433 29.2661 56.9313 30.148 55.8285C31.3769 54.2895 32.1977 52.4425 32.626 50.5595C33.1114 48.4261 32.8677 46.3101 32.6969 44.3823C32.4501 41.5988 31.2464 36.5964 31.2464 36.5964C31.2134 36.4554 31.1522 36.3224 31.0667 36.2053C30.9811 36.0882 30.8728 35.9895 30.7483 35.915L30.7505 35.911Z" fill="#EFF4F9"/>
<path fill-rule="evenodd" clip-rule="evenodd" d="M37.6707 29.4056C35.4868 27.6024 32.5378 27.6056 30.1958 27.608C28.0095 27.6103 25.6877 28.0101 23.6802 29.1281C21.4324 30.3798 19.7184 32.3743 18.4111 34.4165C17.6363 35.6278 17.0181 37.3524 16.5352 38.8343C16.0523 40.3163 15.7357 41.5372 15.7357 41.5372L17.8256 42.084C17.8256 42.084 18.1296 40.9198 18.5903 39.5061C19.051 38.0922 19.7034 36.4109 20.2343 35.5808C21.4206 33.7276 22.9398 32.0147 24.736 31.0144C26.3082 30.139 28.2893 29.768 30.2063 29.7659C32.4998 29.7634 34.9031 29.9174 36.2959 31.0672C37.5517 32.1041 38.2539 34.1629 38.4281 36.0663C38.6095 38.0485 37.9976 40.2423 36.9876 42.0874C36.3135 43.319 34.7218 44.2603 33.3492 45.7923C32.5065 46.7331 31.0472 48.5638 31.0472 48.5638L32.7408 49.9114C32.7408 49.9114 34.2315 48.0487 34.9639 47.2311L34.9601 47.229C36.0044 46.0634 37.8187 45.0731 38.8834 43.1281C40.0563 40.9853 40.8147 38.4238 40.5813 35.8744C40.3753 33.6238 39.6381 31.0299 37.6707 29.4056Z" fill="#EFF4F9"/>
<path fill-rule="evenodd" clip-rule="evenodd" d="M12.3261 49.1002C12.3261 49.1002 7.84031 54.651 6.06949 58.0835C5.08897 59.9822 3.54548 62.2158 3.71292 64.9131L3.70922 64.9111C3.8674 67.4644 5.10722 70.0596 7.13523 71.6966C9.05095 73.2426 11.6364 73.7032 13.9262 73.4934C16.5339 73.2546 19.0078 71.9834 20.8701 70.2628C22.8205 68.4607 23.4925 65.9584 24.4385 64.0696C25.4606 62.0321 27.0883 58.0401 27.0883 58.0401L25.086 57.2196C25.086 57.2196 23.4308 61.262 22.5078 63.1013C21.4335 65.2446 20.7613 67.4181 19.3988 68.6769C17.8539 70.1044 15.7489 71.1581 13.7283 71.3434C11.8975 71.5111 9.80045 71.0763 8.49339 70.0213C7.02817 68.8389 5.98837 66.7036 5.86947 64.7855C5.76164 63.0487 6.93543 61.1216 7.99156 59.0765C9.50133 56.15 14.0176 50.4517 14.0176 50.4517L12.3261 49.1002Z" fill="#EFF4F9"/>
<path fill-rule="evenodd" clip-rule="evenodd" d="M31.7888 33.7475C31.5379 33.6085 31.2423 33.5745 30.9669 33.653C30.6916 33.7316 30.459 33.9163 30.3204 34.1664L29.0882 36.3146C29.0175 36.4373 28.972 36.5727 28.9538 36.7132C28.9357 36.8536 28.9454 36.9965 28.9826 37.1334C29.0197 37.2702 29.0834 37.3986 29.1701 37.511C29.2568 37.6234 29.3648 37.7177 29.488 37.7885C29.6111 37.8593 29.747 37.9051 29.8878 37.9236C30.0285 37.9421 30.1714 37.9327 30.3084 37.896C30.4454 37.8593 30.5738 37.796 30.6861 37.7097C30.7985 37.6234 30.8926 37.5159 30.9632 37.3932L32.1975 35.2413C32.2708 35.1172 32.3185 34.9795 32.3375 34.8366C32.3566 34.6937 32.3467 34.5485 32.3085 34.4093C32.2704 34.2701 32.2048 34.1398 32.1155 34.0262C32.0261 33.9127 31.9153 33.8175 31.7888 33.7475Z" fill="#EFF4F9"/>
<path fill-rule="evenodd" clip-rule="evenodd" d="M54.3376 48.8591C54.2064 48.7907 54.0626 48.7499 53.9152 48.7392C53.7677 48.7285 53.6197 48.7481 53.4803 48.7968C53.4803 48.7968 48.6137 50.4669 46.1329 51.753C44.4147 52.6439 42.4987 53.5744 40.9595 55.1292C39.6007 56.5015 38.4831 58.1855 37.8445 60.0485C37.3876 61.3846 37.3212 62.7924 37.4462 64.1098C37.5291 64.9844 37.8363 65.9632 38.1151 66.7975C38.394 67.6317 38.6527 68.2936 38.6527 68.2936C38.7052 68.4256 38.7832 68.5461 38.8822 68.6481C38.9813 68.7501 39.0996 68.8315 39.2301 68.888C39.3606 68.9445 39.5009 68.9748 39.6431 68.9772C39.7852 68.9796 39.9263 68.954 40.0583 68.9019C40.1904 68.8498 40.3109 68.7721 40.4128 68.6735C40.5147 68.5748 40.5961 68.4571 40.6523 68.327C40.7086 68.1968 40.7386 68.0567 40.7406 67.9148C40.7426 67.773 40.7165 67.6322 40.6639 67.5002C40.6639 67.5002 40.4219 66.8933 40.1636 66.1206C39.9053 65.3477 39.6421 64.3808 39.5977 63.9124C39.4941 62.8194 39.567 61.7029 39.8929 60.75C40.4101 59.2411 41.35 57.8034 42.4996 56.6424C43.7006 55.4292 45.3951 54.5667 47.1368 53.6636C48.9257 52.7362 51.9832 51.6694 53.1127 51.266C53.4648 52.4566 54.5561 56.094 55.032 58.4348C55.4145 60.3159 55.8931 62.0765 55.7907 63.6888C55.7022 65.0828 55.3959 66.4767 54.7536 67.5531C54.1975 68.4843 53.189 69.2843 52.0933 70.0466C50.8643 70.9018 47.389 72.3401 47.389 72.3401C47.2573 72.3927 47.1374 72.4706 47.036 72.5696C46.9346 72.6686 46.8538 72.7865 46.7982 72.9167C46.7426 73.047 46.7131 73.1872 46.7117 73.3289C46.7103 73.4707 46.7369 73.6114 46.7899 73.743C46.843 73.8746 46.9215 73.9944 47.021 74.0959C47.1204 74.1974 47.2387 74.2784 47.3694 74.3343C47.5 74.3902 47.6403 74.4199 47.7823 74.4216C47.9242 74.4234 48.0652 74.3971 48.1969 74.3445C48.1969 74.3445 51.5658 73.0471 53.3331 71.8174C54.4817 71.0182 55.7643 70.0733 56.6091 68.6585C57.5064 67.1549 57.8466 65.4374 57.9486 63.831C58.0822 61.7261 57.5089 59.7829 57.1485 58.0115C56.5443 55.0387 54.8747 49.5046 54.8747 49.5046C54.8334 49.3663 54.7648 49.2375 54.6729 49.126C54.581 49.0145 54.4676 48.9225 54.3396 48.8554L54.3376 48.8591Z" fill="#EFF4F9"/>
<path fill-rule="evenodd" clip-rule="evenodd" d="M56.096 39.5202C53.6693 38.7324 51.0851 39.5029 49.0757 40.5375C46.7996 41.7092 45.0457 43.7242 43.8675 45.8642C42.7982 47.8066 42.9367 49.8689 42.514 51.3757L42.5102 51.3737C42.2136 52.4305 41.4424 54.6882 41.4424 54.6882L43.4886 55.3936C43.4886 55.3936 44.2497 53.1795 44.5909 51.9635C45.1465 49.983 45.0861 48.1348 45.7633 46.9049C46.7777 45.0622 48.3 43.3681 50.0697 42.4571C51.7691 41.5822 53.883 41.0693 55.432 41.5721C57.1498 42.1299 58.57 44.0748 59.7992 46.0111C60.8266 47.6295 61.5772 49.5001 61.6827 51.2965C61.8031 53.3489 61.1735 55.5502 60.247 57.5459C59.8317 58.4395 58.7634 59.8925 57.8179 61.0403C56.8725 62.188 56.0536 63.0694 56.0536 63.0694L57.6368 64.539C57.6368 64.539 58.4969 63.6165 59.4879 62.4135C60.4789 61.2105 61.602 59.7631 62.208 58.4591C63.2291 56.2598 63.9916 53.7429 63.8409 51.1746C63.7064 48.8807 62.7972 46.7072 61.6253 44.8614C60.3701 42.8843 58.7897 40.3947 56.096 39.5202Z" fill="#EFF4F9"/>
<path fill-rule="evenodd" clip-rule="evenodd" d="M53.0868 71.476L51.0385 70.7743C51.0385 70.7743 48.6557 77.6437 46.9973 80.4886C45.8389 82.4775 44.8431 84.5027 43.3199 85.3441C41.6378 86.2736 39.2782 86.5425 37.494 85.9411C35.9023 85.4047 34.4096 83.8689 33.5682 82.2343C32.6397 80.4301 32.3985 78.0888 32.7734 76.019C33.1039 74.1937 34.5769 72.4595 35.8084 70.4025C36.8646 68.6363 39.3865 65.0696 39.3865 65.0696L37.6193 63.8209C37.6193 63.8209 35.1222 67.3417 33.9528 69.2973C32.8671 71.1095 31.1168 73.0198 30.6435 75.6328C30.1918 78.1277 30.4475 80.897 31.646 83.2253C32.6983 85.2698 34.4749 87.204 36.8077 87.9902C39.2775 88.8224 42.1327 88.4749 44.3718 87.2375L44.368 87.2355C46.7335 85.9286 47.7893 83.4273 48.8648 81.5807C50.81 78.244 53.0847 71.4796 53.0847 71.4796L53.0868 71.476Z" fill="#EFF4F9"/>
<path fill-rule="evenodd" clip-rule="evenodd" d="M55.561 46.7972C55.3054 46.6682 55.0094 46.6455 54.7376 46.734C54.4659 46.8226 54.2407 47.0152 54.1114 47.2697L52.9586 49.4663C52.826 49.7197 52.7998 50.0157 52.8858 50.2889C52.9717 50.5621 53.1629 50.7902 53.4171 50.9232C53.6712 51.0562 53.9676 51.0832 54.241 50.9981C54.5145 50.9129 54.7427 50.7226 54.8752 50.4692L56.0259 48.2765C56.095 48.1497 56.1379 48.01 56.1519 47.8662C56.1659 47.7223 56.1507 47.5772 56.1074 47.4391C56.064 47.3011 55.9934 47.1731 55.8996 47.0627C55.8058 46.9523 55.6904 46.8625 55.561 46.7972Z" fill="#EFF4F9"/>
<path fill-rule="evenodd" clip-rule="evenodd" d="M13.0938 55.6369C12.9845 55.5833 12.8604 55.5682 12.7416 55.5937L7.83239 56.5926C7.69203 56.6213 7.56898 56.7045 7.49031 56.8239C7.41164 56.9434 7.38381 57.0892 7.41291 57.2294C7.44202 57.3696 7.52559 57.4929 7.64542 57.5717C7.76524 57.6506 7.91142 57.6788 8.05178 57.6501L12.9613 56.6507C13.0721 56.629 13.1732 56.5731 13.2504 56.4909C13.3275 56.4086 13.3769 56.3042 13.3915 56.1924C13.4061 56.0806 13.3851 55.967 13.3317 55.8674C13.2782 55.7679 13.1953 55.6868 13.0938 55.6369Z" fill="#EFF4F9"/>
<path fill-rule="evenodd" clip-rule="evenodd" d="M12.943 57.5093C12.8176 57.4454 12.6725 57.4326 12.5383 57.4739L6.01193 59.4348C5.94292 59.4543 5.8785 59.4873 5.82247 59.532C5.76644 59.5766 5.71985 59.632 5.68553 59.6949C5.65121 59.7577 5.62978 59.8268 5.62251 59.8981C5.61524 59.9693 5.62227 60.0414 5.64318 60.11C5.6641 60.1786 5.69848 60.2424 5.74432 60.2976C5.79017 60.3529 5.84662 60.3983 5.91026 60.4316C5.97389 60.4649 6.04348 60.4853 6.115 60.4915C6.18652 60.4977 6.25855 60.4895 6.32682 60.4676L12.8532 58.5066C12.9568 58.4761 13.0488 58.4151 13.1172 58.3318C13.1856 58.2484 13.2273 58.1465 13.237 58.0391C13.2467 57.9316 13.2238 57.8238 13.1714 57.7293C13.1191 57.6347 13.0394 57.5583 12.943 57.5093Z" fill="#EFF4F9"/>
<path fill-rule="evenodd" clip-rule="evenodd" d="M12.4906 59.8694C12.3633 59.8133 12.2194 59.8082 12.0887 59.8554L5.0698 62.3097C4.93453 62.3571 4.82382 62.4563 4.76199 62.5854C4.70016 62.7145 4.69226 62.863 4.74009 62.9982C4.78792 63.1334 4.88762 63.244 5.01709 63.3061C5.14656 63.3682 5.29524 63.3766 5.43052 63.3292L12.4457 60.8728C12.5485 60.838 12.6383 60.773 12.7035 60.6864C12.7686 60.5998 12.806 60.4955 12.8109 60.3872C12.8157 60.2789 12.7877 60.1716 12.7306 60.0792C12.6735 59.9868 12.5898 59.9137 12.4906 59.8694Z" fill="#EFF4F9"/>
<path fill-rule="evenodd" clip-rule="evenodd" d="M12.0568 62.2397C11.9273 62.1849 11.7816 62.1826 11.6507 62.2332L4.97682 64.656C4.90818 64.6787 4.84496 64.7148 4.79069 64.7625C4.73643 64.8102 4.69234 64.8683 4.66104 64.9333C4.62974 64.9984 4.61183 65.0692 4.60845 65.1413C4.60506 65.2135 4.61618 65.2858 4.64124 65.3536C4.66631 65.4214 4.70477 65.4836 4.75432 65.5364C4.80388 65.5892 4.86352 65.6315 4.92972 65.6609C4.99591 65.6903 5.06732 65.7061 5.13968 65.7074C5.21205 65.7087 5.28395 65.6954 5.35103 65.6685L12.0214 63.2434C12.1238 63.2077 12.213 63.1421 12.2773 63.0549C12.3416 62.9676 12.378 62.863 12.3819 62.7547C12.3857 62.6463 12.3568 62.5391 12.2988 62.4473C12.2408 62.3554 12.1565 62.283 12.0568 62.2397Z" fill="#EFF4F9"/>
<path fill-rule="evenodd" clip-rule="evenodd" d="M12.0897 63.9967C12.0182 63.9632 11.9402 63.9457 11.8612 63.9454C11.7822 63.9452 11.7041 63.9624 11.6326 63.9956L5.5474 66.7416C5.48268 66.7707 5.42442 66.8122 5.37585 66.8639C5.32729 66.9155 5.28944 66.9763 5.26443 67.0426C5.23942 67.1089 5.22778 67.1795 5.23013 67.2504C5.23248 67.3214 5.24871 67.3913 5.27806 67.456C5.30741 67.5207 5.3493 67.5789 5.40118 67.6275C5.45307 67.6761 5.51391 67.7142 5.58043 67.7394C5.64694 67.7645 5.71774 67.7763 5.78877 67.7742C5.85979 67.772 5.92969 67.7559 5.99441 67.7267L12.0796 64.9808C12.175 64.9394 12.2563 64.8713 12.3137 64.7847C12.3712 64.6982 12.4023 64.5968 12.4034 64.4929C12.4044 64.3889 12.3755 64.2867 12.3198 64.1987C12.2641 64.1107 12.1842 64.0406 12.0897 63.9967Z" fill="#EFF4F9"/>
<path fill-rule="evenodd" clip-rule="evenodd" d="M11.9542 66.4204C11.8825 66.3881 11.8045 66.3718 11.7258 66.3725C11.6472 66.3733 11.5697 66.3912 11.4988 66.425L6.53808 68.7026C6.47307 68.7319 6.4145 68.7738 6.36583 68.8257C6.31716 68.8777 6.27938 68.9387 6.25454 69.0054C6.2297 69.0722 6.21835 69.1432 6.22116 69.2144C6.22397 69.2856 6.24085 69.3556 6.27088 69.4203C6.30091 69.485 6.34347 69.5432 6.3961 69.5915C6.44872 69.6397 6.51035 69.6772 6.57748 69.7015C6.6446 69.7259 6.71588 69.7367 6.78717 69.7335C6.85845 69.7302 6.92837 69.7128 6.99284 69.6825L11.9498 67.4028C12.0445 67.3607 12.125 67.2922 12.1816 67.2055C12.2382 67.1188 12.2685 67.0175 12.269 66.9139C12.2695 66.8103 12.24 66.7087 12.1842 66.6212C12.1284 66.5336 12.0485 66.464 11.9542 66.4204Z" fill="#EFF4F9"/>
<path fill-rule="evenodd" clip-rule="evenodd" d="M11.7857 68.7201C11.6975 68.6788 11.6 68.6618 11.5032 68.6713C11.4064 68.6808 11.314 68.7162 11.2358 68.7737L8.90903 70.4316C8.79248 70.5147 8.714 70.6407 8.69069 70.7819C8.66739 70.9231 8.70126 71.068 8.78484 71.1846C8.86843 71.3012 8.99486 71.38 9.13639 71.4037C9.27792 71.4273 9.42287 71.394 9.53945 71.3109L11.8662 69.653C11.9445 69.5991 12.007 69.5256 12.0475 69.4397C12.088 69.3538 12.1051 69.2586 12.0969 69.1639C12.0887 69.0692 12.0556 68.9784 12.0009 68.9004C11.9463 68.8225 11.872 68.7603 11.7857 68.7201Z" fill="#EFF4F9"/>
<path fill-rule="evenodd" clip-rule="evenodd" d="M28.5474 30.5845C28.4221 30.5207 28.277 30.5079 28.1428 30.5491L20.7501 32.6398C20.6808 32.6582 20.616 32.6901 20.5592 32.7338C20.5025 32.7775 20.4551 32.8321 20.4197 32.8944C20.3844 32.9566 20.3619 33.0253 20.3534 33.0964C20.345 33.1675 20.3508 33.2396 20.3706 33.3085C20.3904 33.3774 20.4237 33.4417 20.4686 33.4976C20.5135 33.5536 20.569 33.6002 20.6321 33.6345C20.6951 33.6689 20.7642 33.6905 20.8356 33.6979C20.907 33.7053 20.9792 33.6982 21.0478 33.6775L28.4368 31.5848C28.5425 31.5574 28.6373 31.4988 28.7087 31.4164C28.7802 31.3341 28.8248 31.2319 28.8369 31.1235C28.8489 31.0151 28.8277 30.9054 28.7761 30.8091C28.7244 30.7128 28.6445 30.6348 28.5474 30.5845Z" fill="#EFF4F9"/>
<path fill-rule="evenodd" clip-rule="evenodd" d="M27.2171 32.9288C27.1496 32.8889 27.0743 32.864 26.9963 32.856C26.9183 32.848 26.8396 32.857 26.7656 32.8824L18.8709 35.4661C18.8035 35.4881 18.7411 35.5231 18.6873 35.5692C18.6334 35.6153 18.5893 35.6715 18.5573 35.7347C18.5253 35.7979 18.506 35.8669 18.5007 35.9375C18.4954 36.0082 18.504 36.0793 18.5262 36.1467C18.5484 36.2141 18.5837 36.2762 18.63 36.3301C18.6763 36.3839 18.7328 36.4282 18.7961 36.4603C18.8595 36.4924 18.9286 36.5117 18.9994 36.5172C19.0701 36.5227 19.1413 36.5142 19.2087 36.4922L27.1034 33.9085C27.2034 33.8778 27.2921 33.8189 27.3589 33.7387C27.4258 33.6584 27.4679 33.5603 27.4799 33.4565C27.492 33.3527 27.4736 33.2476 27.4269 33.1539C27.3803 33.0602 27.3074 32.9821 27.2171 32.9288Z" fill="#EFF4F9"/>
<path fill-rule="evenodd" clip-rule="evenodd" d="M25.7433 35.5785C25.6194 35.5116 25.4743 35.4956 25.339 35.5337L18.7771 37.2346C18.7042 37.248 18.6347 37.2763 18.5733 37.3176C18.5118 37.3589 18.4596 37.4124 18.4198 37.4748C18.38 37.5371 18.3535 37.6069 18.342 37.6801C18.3305 37.7532 18.3341 37.828 18.3527 37.8997C18.3714 37.9714 18.4047 38.0384 18.4504 38.0969C18.4961 38.1553 18.5534 38.2036 18.6186 38.239C18.6839 38.2745 18.7556 38.2963 18.8294 38.3028C18.9033 38.3094 18.9777 38.3006 19.048 38.2772L25.6102 36.5758C25.7165 36.5508 25.8126 36.4941 25.8858 36.4134C25.9591 36.3326 26.0059 36.2317 26.0203 36.1236C26.0348 36.0155 26.0161 35.9054 25.9667 35.808C25.9173 35.7106 25.8392 35.631 25.7433 35.5785Z" fill="#EFF4F9"/>
<path fill-rule="evenodd" clip-rule="evenodd" d="M39.0432 69.882C38.9339 69.8284 38.8099 69.8132 38.6911 69.8388L33.7818 70.8377C33.6414 70.8664 33.5184 70.9496 33.4397 71.069C33.361 71.1884 33.3332 71.3343 33.3623 71.4745C33.3914 71.6147 33.475 71.7379 33.5948 71.8168C33.7147 71.8956 33.8608 71.9238 34.0012 71.8951L38.9107 70.8958C39.0215 70.874 39.1226 70.8181 39.1998 70.7359C39.2769 70.6537 39.3263 70.5493 39.3409 70.4375C39.3555 70.3257 39.3345 70.212 39.2811 70.1125C39.2276 70.013 39.1447 69.9319 39.0432 69.882Z" fill="#EFF4F9"/>
<path fill-rule="evenodd" clip-rule="evenodd" d="M38.8924 71.7543C38.767 71.6905 38.622 71.6777 38.4877 71.7189L31.9613 73.6799C31.8923 73.6994 31.8279 73.7324 31.7719 73.777C31.7159 73.8217 31.6693 73.8771 31.6349 73.94C31.6006 74.0028 31.5792 74.0719 31.5719 74.1432C31.5647 74.2144 31.5717 74.2865 31.5926 74.3551C31.6135 74.4237 31.6479 74.4874 31.6937 74.5427C31.7396 74.5979 31.796 74.6434 31.8597 74.6767C31.9233 74.71 31.9929 74.7304 32.0644 74.7366C32.1359 74.7427 32.208 74.7345 32.2762 74.7126L38.8026 72.7517C38.9062 72.7211 38.9982 72.6602 39.0666 72.5769C39.135 72.4935 39.1767 72.3916 39.1864 72.2841C39.1961 72.1767 39.1732 72.0689 39.1208 71.9743C39.0685 71.8798 38.9888 71.8034 38.8924 71.7543Z" fill="#EFF4F9"/>
<path fill-rule="evenodd" clip-rule="evenodd" d="M38.44 74.1145C38.3127 74.0584 38.1688 74.0533 38.0381 74.1004L31.0192 76.5548C30.9522 76.5783 30.8905 76.6147 30.8377 76.662C30.7849 76.7093 30.742 76.7665 30.7113 76.8304C30.6495 76.9595 30.6416 77.1081 30.6894 77.2433C30.7373 77.3784 30.8369 77.4893 30.9664 77.5514C31.0959 77.6135 31.2446 77.6217 31.3799 77.5743L38.3952 75.1179C38.4979 75.0831 38.5878 75.0181 38.6529 74.9315C38.718 74.8449 38.7554 74.7406 38.7603 74.6323C38.7651 74.5239 38.7371 74.4166 38.68 74.3243C38.6229 74.2319 38.5393 74.1588 38.44 74.1145Z" fill="#EFF4F9"/>
<path fill-rule="evenodd" clip-rule="evenodd" d="M38.0062 76.4847C37.8767 76.43 37.7311 76.4277 37.6001 76.4783L30.9262 78.9011C30.8576 78.9238 30.7944 78.9599 30.7401 79.0076C30.6858 79.0552 30.6418 79.1133 30.6105 79.1784C30.5792 79.2435 30.5612 79.3143 30.5579 79.3864C30.5545 79.4586 30.5656 79.5308 30.5906 79.5987C30.6157 79.6665 30.6542 79.7287 30.7037 79.7814C30.7533 79.8342 30.8129 79.8766 30.8791 79.906C30.9453 79.9353 31.0167 79.9511 31.0891 79.9525C31.1615 79.9538 31.2334 79.9405 31.3004 79.9136L37.9708 77.4885C38.0732 77.4528 38.1624 77.3872 38.2267 77.2999C38.291 77.2127 38.3275 77.1081 38.3313 76.9998C38.3351 76.8914 38.3062 76.7842 38.2482 76.6923C38.1902 76.6005 38.1059 76.5281 38.0062 76.4847Z" fill="#EFF4F9"/>
<path fill-rule="evenodd" clip-rule="evenodd" d="M38.0391 78.2418C37.9676 78.2083 37.8896 78.1907 37.8106 78.1905C37.7316 78.1903 37.6535 78.2075 37.582 78.2407L31.4968 80.9866C31.4321 81.0158 31.3738 81.0573 31.3253 81.1089C31.2767 81.1606 31.2389 81.2213 31.2138 81.2877C31.1888 81.354 31.1772 81.4246 31.1795 81.4955C31.1819 81.5664 31.1981 81.6364 31.2275 81.7011C31.2568 81.7658 31.2987 81.8239 31.3506 81.8726C31.4025 81.9212 31.4633 81.9593 31.5298 81.9845C31.5964 82.0096 31.6672 82.0214 31.7382 82.0193C31.8092 82.0171 31.8791 82.0009 31.9438 81.9718L38.029 79.2258C38.1244 79.1844 38.2057 79.1164 38.2631 79.0298C38.3206 78.9433 38.3517 78.8419 38.3528 78.738C38.3538 78.634 38.3249 78.5318 38.2692 78.4438C38.2136 78.3558 38.1336 78.2857 38.0391 78.2418Z" fill="#EFF4F9"/>
<path fill-rule="evenodd" clip-rule="evenodd" d="M37.9036 80.6655C37.8319 80.6331 37.7539 80.6168 37.6752 80.6176C37.5966 80.6184 37.5191 80.6363 37.4482 80.6701L32.4875 82.9477C32.4225 82.9769 32.3639 83.0188 32.3152 83.0708C32.2666 83.1228 32.2288 83.1838 32.204 83.2505C32.1791 83.3172 32.1678 83.3883 32.1706 83.4595C32.1734 83.5307 32.1903 83.6007 32.2203 83.6654C32.2503 83.7301 32.2929 83.7883 32.3455 83.8365C32.3981 83.8848 32.4598 83.9222 32.5269 83.9466C32.594 83.971 32.6653 83.9818 32.7366 83.9786C32.8079 83.9753 32.8778 83.9579 32.9423 83.9275L37.8992 81.6479C37.9939 81.6057 38.0744 81.5373 38.131 81.4505C38.1876 81.3638 38.2179 81.2626 38.2184 81.159C38.2189 81.0554 38.1894 80.9537 38.1336 80.8662C38.0778 80.7787 37.998 80.709 37.9036 80.6655Z" fill="#EFF4F9"/>
<path fill-rule="evenodd" clip-rule="evenodd" d="M37.7351 82.9652C37.6469 82.9239 37.5494 82.9069 37.4526 82.9164C37.3558 82.9258 37.2634 82.9612 37.1852 83.0188L34.8584 84.6767C34.8007 84.7178 34.7517 84.77 34.7142 84.8302C34.6767 84.8903 34.6515 84.9572 34.6399 85.0272C34.6166 85.1684 34.6505 85.3132 34.7341 85.4298C34.8177 85.5465 34.9443 85.6251 35.0858 85.6487C35.2273 85.6724 35.3723 85.6391 35.4889 85.5559L37.8156 83.8981C37.8939 83.8442 37.9564 83.7706 37.9969 83.6847C38.0374 83.5989 38.0545 83.5036 38.0463 83.4089C38.0381 83.3142 38.005 83.2234 37.9503 83.1455C37.8957 83.0675 37.8214 83.0054 37.7351 82.9652Z" fill="#EFF4F9"/>
<path fill-rule="evenodd" clip-rule="evenodd" d="M119.741 103.82C117.03 103.611 114.221 104.203 111.812 105.433C108.959 106.891 106.318 109.143 104.691 111.997C103.058 114.862 102.272 118.343 102.649 121.647C103.1 125.598 104.742 129.75 107.754 132.541C110.992 135.542 115.654 137.498 120.141 137.189C124.696 136.875 129.061 134.228 131.924 130.808C134.352 127.909 135.424 123.966 135.447 120.307C135.462 116.167 134.521 111.421 131.469 108.243C128.432 105.078 123.763 104.134 119.741 103.824V103.82ZM119.571 105.995C123.365 106.288 127.503 107.257 129.895 109.75C132.331 112.287 133.282 116.507 133.269 120.294C133.248 123.527 132.253 127.024 130.257 129.408C127.748 132.404 123.779 134.753 119.988 135.014C116.252 135.271 112.042 133.547 109.234 130.944C106.735 128.628 105.212 124.918 104.81 121.401C104.492 118.617 105.179 115.532 106.58 113.074C107.944 110.681 110.275 108.664 112.799 107.374C114.844 106.33 117.296 105.82 119.571 105.995Z" fill="#EFF4F9"/>
<path fill-rule="evenodd" clip-rule="evenodd" d="M121.077 90.0575C112.961 89.4984 104.388 93.0732 98.4801 98.5457C93.0371 103.588 89.9959 111.204 89.1683 118.446C88.484 124.434 89.9183 130.816 92.8905 136.027C95.8384 141.194 100.672 145.325 105.899 147.993C110.274 150.226 115.408 151.304 120.32 150.926C127.79 150.35 136.342 148.564 141.777 142.906C147.25 137.207 149.027 128.506 149 120.873C148.959 114.175 146.978 106.953 142.598 101.726C137.363 95.4771 129.314 90.6296 121.077 90.0619V90.0575ZM120.928 92.2286C128.403 92.7438 136.046 97.2968 140.926 103.122C144.874 107.834 146.784 114.61 146.822 120.881C146.848 128.162 145.065 136.337 140.207 141.395C135.418 146.381 127.393 148.197 120.15 148.755C115.674 149.099 110.901 148.099 106.89 146.052C101.993 143.552 97.4683 139.652 94.7835 134.946C92.0436 130.142 90.7088 124.16 91.3335 118.693C92.1116 111.884 95.0296 104.714 99.9605 100.146C105.437 95.0726 113.564 91.7212 120.928 92.2286Z" fill="#EFF4F9"/>
<path fill-rule="evenodd" clip-rule="evenodd" d="M106.439 94.0037L104.559 95.1062L111.637 107.23L113.518 106.127L106.439 94.0037Z" fill="#EFF4F9"/>
<path fill-rule="evenodd" clip-rule="evenodd" d="M132.907 94.6337L125.42 105.94L127.232 107.144L134.719 95.8384L132.907 94.6337Z" fill="#EFF4F9"/>
<path fill-rule="evenodd" clip-rule="evenodd" d="M142.917 104.518L132.027 111.056L133.15 112.925L144.04 106.387L142.917 104.518Z" fill="#EFF4F9"/>
<path fill-rule="evenodd" clip-rule="evenodd" d="M133.554 125.9L132.439 127.773L145.235 135.401L146.349 133.528L133.554 125.9Z" fill="#EFF4F9"/>
<path fill-rule="evenodd" clip-rule="evenodd" d="M128.577 132.873L126.526 133.609L131.427 147.231L133.477 146.494L128.577 132.873Z" fill="#EFF4F9"/>
<path fill-rule="evenodd" clip-rule="evenodd" d="M110.412 133.647L103.606 145.362L105.486 146.456L112.293 134.741L110.412 133.647Z" fill="#EFF4F9"/>
<path fill-rule="evenodd" clip-rule="evenodd" d="M105.376 126.568L93.2606 133.379L94.324 135.282L106.439 128.471L105.376 126.568Z" fill="#EFF4F9"/>
<path fill-rule="evenodd" clip-rule="evenodd" d="M94.3666 105.127L93.3286 107.042L104.627 113.172L105.665 111.257L94.3666 105.127Z" fill="#EFF4F9"/>
<path fill-rule="evenodd" clip-rule="evenodd" d="M96.0639 108.988C95.9403 108.983 95.8187 109.021 95.7193 109.095L91.1591 112.364C91.0418 112.449 90.9628 112.576 90.9397 112.719C90.9166 112.862 90.9511 113.008 91.0357 113.126C91.1203 113.243 91.2481 113.322 91.3909 113.345C91.5337 113.369 91.6799 113.334 91.7972 113.249L96.3574 109.98C96.4515 109.915 96.5226 109.821 96.5606 109.713C96.5986 109.605 96.6016 109.488 96.5691 109.378C96.5366 109.268 96.4702 109.171 96.3795 109.101C96.2888 109.031 96.1784 108.991 96.0639 108.988Z" fill="#EFF4F9"/>
<path fill-rule="evenodd" clip-rule="evenodd" d="M96.7998 110.69C96.6578 110.688 96.5204 110.741 96.417 110.839L90.3594 116.424C90.3066 116.472 90.2639 116.531 90.2337 116.596C90.2035 116.661 90.1865 116.731 90.1835 116.803C90.1805 116.875 90.1917 116.946 90.2164 117.014C90.2411 117.081 90.2788 117.143 90.3275 117.196C90.3761 117.249 90.4346 117.292 90.4997 117.322C90.5648 117.352 90.6352 117.369 90.7069 117.372C90.7786 117.375 90.8502 117.364 90.9176 117.339C90.9849 117.314 91.0468 117.276 91.0996 117.228L97.1572 111.643C97.2399 111.57 97.2985 111.474 97.3252 111.366C97.3519 111.259 97.3455 111.146 97.3067 111.043C97.268 110.94 97.1988 110.85 97.1083 110.787C97.0177 110.724 96.9102 110.691 96.7998 110.69Z" fill="#EFF4F9"/>
<path fill-rule="evenodd" clip-rule="evenodd" d="M97.6421 113.074C97.5204 113.083 97.405 113.132 97.3145 113.214L89.4873 120.093C89.4304 120.139 89.3834 120.196 89.349 120.261C89.3146 120.325 89.2936 120.396 89.2872 120.469C89.2809 120.542 89.2892 120.616 89.3119 120.685C89.3345 120.755 89.371 120.819 89.419 120.874C89.4671 120.93 89.5257 120.975 89.5916 121.007C89.6574 121.039 89.7289 121.057 89.802 121.061C89.8751 121.065 89.9482 121.054 90.0169 121.028C90.0856 121.003 90.1486 120.964 90.202 120.914L98.0335 114.036C98.1223 113.962 98.1853 113.861 98.2133 113.749C98.2414 113.637 98.233 113.518 98.1894 113.411C98.1458 113.304 98.0693 113.214 97.9709 113.153C97.8725 113.092 97.7573 113.065 97.6421 113.074Z" fill="#EFF4F9"/>
<path fill-rule="evenodd" clip-rule="evenodd" d="M98.0973 115.73C97.9558 115.727 97.8185 115.778 97.7144 115.874L90.0233 122.821C89.9162 122.918 89.852 123.054 89.8448 123.199C89.8376 123.343 89.8881 123.484 89.9851 123.592C90.0821 123.699 90.2177 123.763 90.3621 123.77C90.5065 123.778 90.6478 123.727 90.755 123.63L98.4461 116.683C98.5283 116.61 98.5868 116.515 98.6137 116.408C98.6407 116.302 98.635 116.19 98.5973 116.087C98.5596 115.984 98.4917 115.895 98.4025 115.831C98.3133 115.767 98.2069 115.733 98.0973 115.73Z" fill="#EFF4F9"/>
<path fill-rule="evenodd" clip-rule="evenodd" d="M98.8715 118.387C98.7503 118.394 98.635 118.442 98.5439 118.522L90.2403 125.673C90.1845 125.719 90.1384 125.776 90.1049 125.84C90.0713 125.905 90.0509 125.975 90.0447 126.047C90.0386 126.119 90.047 126.192 90.0693 126.261C90.0916 126.33 90.1274 126.394 90.1747 126.449C90.2219 126.503 90.2796 126.548 90.3444 126.581C90.4092 126.613 90.4798 126.632 90.5521 126.637C90.6244 126.642 90.6968 126.632 90.7653 126.608C90.8337 126.584 90.8967 126.547 90.9507 126.499L99.2543 119.348C99.3424 119.274 99.4049 119.175 99.4331 119.063C99.4612 118.952 99.4535 118.835 99.4111 118.728C99.3686 118.621 99.2936 118.531 99.1967 118.469C99.0998 118.408 98.986 118.38 98.8715 118.387Z" fill="#EFF4F9"/>
<path fill-rule="evenodd" clip-rule="evenodd" d="M99.8244 121.452C99.7017 121.458 99.5848 121.506 99.4926 121.587L91.1208 128.806C91.0114 128.901 90.9441 129.036 90.9338 129.18C90.9234 129.325 90.9709 129.467 91.0656 129.576C91.1604 129.686 91.2947 129.753 91.4391 129.764C91.5835 129.774 91.7261 129.727 91.8355 129.632L100.207 122.413C100.295 122.339 100.358 122.239 100.386 122.128C100.414 122.017 100.406 121.899 100.364 121.793C100.321 121.686 100.246 121.596 100.15 121.534C100.053 121.473 99.9389 121.444 99.8244 121.452Z" fill="#EFF4F9"/>
<path fill-rule="evenodd" clip-rule="evenodd" d="M100.445 124.857C100.323 124.863 100.206 124.909 100.114 124.99L92.1503 131.664C92.0953 131.71 92.0498 131.767 92.0165 131.83C91.9832 131.894 91.9627 131.963 91.9562 132.034C91.9496 132.106 91.9572 132.177 91.9785 132.246C91.9998 132.314 92.0343 132.378 92.0801 132.433C92.1259 132.488 92.1821 132.534 92.2455 132.567C92.3089 132.6 92.3782 132.621 92.4495 132.627C92.5208 132.634 92.5927 132.626 92.661 132.605C92.7294 132.583 92.7929 132.549 92.8479 132.503L100.811 125.828C100.901 125.757 100.966 125.658 100.997 125.547C101.028 125.436 101.022 125.318 100.982 125.21C100.941 125.102 100.867 125.01 100.771 124.946C100.674 124.883 100.561 124.851 100.445 124.857Z" fill="#EFF4F9"/>
<path fill-rule="evenodd" clip-rule="evenodd" d="M167.439 1.96688C165.99 1.28033 164.768 0.816725 164.768 0.816725C164.527 0.725371 164.263 0.720681 164.018 0.803528C163.773 0.886375 163.563 1.05157 163.424 1.27127C163.424 1.27127 162.866 2.1543 162.085 3.15544C161.303 4.15657 160.233 5.2547 159.653 5.56498C158.335 6.27103 156.454 6.21694 154.491 6.22975C153.063 6.23932 149.59 5.59671 149.59 5.59671L149.601 5.60252C149.361 5.55256 149.111 5.58392 148.889 5.69153C148.666 5.79914 148.485 5.97704 148.372 6.19789C148.372 6.19789 144.891 13.2929 143.11 16.7934C139.837 23.2282 133.081 36.0498 133.081 36.0498C133.011 36.1833 132.968 36.3292 132.954 36.4791C132.941 36.6291 132.957 36.7801 133.003 36.9229C133.048 37.0657 133.122 37.1977 133.219 37.3108C133.317 37.424 133.436 37.5161 133.569 37.5818L158.338 49.7263C158.6 49.8547 158.901 49.8746 159.179 49.7818C159.457 49.6889 159.689 49.4905 159.825 49.2292C159.825 49.2292 170.086 29.5013 174.034 20.6165C175.192 18.0107 176.113 14.9513 175.634 11.913C175.187 9.06996 173.582 6.51901 171.653 4.59131C170.561 3.49951 168.895 2.6385 167.447 1.95134L167.439 1.96688ZM166.47 4.00552C167.83 4.65067 169.409 5.56054 170.061 6.2117C171.726 7.87644 173.072 10.0877 173.42 12.2994C173.79 14.6482 173.053 17.3288 171.987 19.7274C168.26 28.114 158.999 45.9383 158.33 47.2269L135.58 36.0777C136.234 34.836 141.971 23.9507 145.088 17.822C146.766 14.5232 149.587 8.7736 150.005 7.92119C150.806 8.07673 152.789 8.49581 154.48 8.48474C156.338 8.47255 158.617 8.66483 160.687 7.55635C161.95 6.8801 162.978 5.63402 163.834 4.53755C164.362 3.86021 164.484 3.64164 164.74 3.26048C165.169 3.43076 165.532 3.55977 166.47 4.00552Z" fill="#EFF4F9"/>
<path fill-rule="evenodd" clip-rule="evenodd" d="M148.563 43.6264L141.194 57.4275L137.713 56.0187L144.428 41.5777L142.406 40.6368L135.196 56.1552C135.131 56.2938 135.095 56.4439 135.089 56.5964C135.084 56.7489 135.109 56.9005 135.164 57.0422C135.219 57.184 135.301 57.3128 135.407 57.4208C135.513 57.5288 135.64 57.6139 135.78 57.6707L141.271 59.8959C141.527 59.9998 141.812 60.0042 142.073 59.9081C142.334 59.812 142.55 59.6224 142.682 59.3759L150.531 44.6764L148.563 43.6264Z" fill="#EFF4F9"/>
<path fill-rule="evenodd" clip-rule="evenodd" d="M172.049 19.9746C172.049 19.9746 171.587 20.3235 170.993 20.6709C170.399 21.0184 169.614 21.2828 169.509 21.282L169.501 21.278C169.467 21.2865 169.038 21.0473 168.473 20.5665C168.191 20.3257 167.88 20.05 167.454 19.8285C167.025 19.6151 166.39 19.4535 165.77 19.6664C163.756 20.3561 162.758 22.1473 162.045 23.8104C161.332 25.4738 160.783 27.1447 159.974 28.1562C159.221 29.0987 158.694 29.8988 158.208 30.0989C157.467 30.4032 156.458 30.4041 156.142 30.1658C155.739 29.862 155.444 28.7482 155.525 27.7969C155.584 27.105 156.01 26.3786 156.623 25.5076C157.236 24.6366 158.017 23.6587 158.373 22.3463C158.619 21.4383 159.079 20.1259 158.48 18.7626C157.798 17.2011 156.375 15.8639 154.544 15.6468C152.829 15.4427 151.622 16.6033 150.787 17.2506C149.996 17.8643 149.627 18.6442 149.294 19.2104C148.961 19.7768 148.711 20.0819 148.486 20.182C147.802 20.4859 146.704 20.4465 146.227 20.1189C146.161 20.0858 145.689 19.3226 145.456 18.5891C145.222 17.8556 145.106 17.1996 145.106 17.1996L142.905 17.6078C142.905 17.6078 143.038 18.3968 143.325 19.2976C143.611 20.1983 143.926 21.2653 144.947 21.9731L144.951 21.9751C146.306 22.9127 148.005 22.8465 149.369 22.24C150.352 21.8034 150.845 20.974 151.216 20.3421C151.587 19.7102 151.885 19.2275 152.14 19.0294C153.019 18.3477 153.841 17.8329 154.26 17.8828C155.03 17.974 156.064 18.8342 156.437 19.687C156.594 20.0437 156.469 20.8495 156.219 21.769C156.022 22.4974 155.453 23.2927 154.807 24.2122C154.16 25.1319 153.419 26.2088 153.298 27.6215C153.179 29.0186 153.331 30.8694 154.79 31.9695C156.15 32.9968 157.823 32.678 159.036 32.1789C160.506 31.5745 161.137 30.2725 161.71 29.555C162.918 28.0439 163.453 26.1838 164.096 24.6819C164.73 23.205 165.366 22.2346 166.435 21.8423C166.551 21.8999 166.764 22.0663 167.021 22.2871C167.549 22.7359 168.246 23.5269 169.476 23.5312C170.552 23.5376 171.377 23.0364 172.099 22.6143C172.822 22.1912 173.381 21.7651 173.381 21.7651L172.05 19.9719L172.049 19.9746Z" fill="#EFF4F9"/>
<path fill-rule="evenodd" clip-rule="evenodd" d="M145.237 24.022C145.104 23.9673 144.954 23.9671 144.82 24.0213L141.163 25.4335C141.024 25.4873 140.911 25.5941 140.85 25.7307C140.788 25.8672 140.783 26.0223 140.835 26.1616C140.887 26.301 140.992 26.4133 141.127 26.4739C141.262 26.5345 141.416 26.5382 141.555 26.4845L145.212 25.0722C145.318 25.0329 145.41 24.962 145.476 24.8693C145.542 24.7765 145.579 24.666 145.582 24.5524C145.585 24.4387 145.553 24.3273 145.492 24.2326C145.43 24.1379 145.341 24.0645 145.237 24.022Z" fill="#EFF4F9"/>
<path fill-rule="evenodd" clip-rule="evenodd" d="M144.983 25.9431C144.849 25.8892 144.698 25.8903 144.564 25.9463L139.25 28.0319C139.177 28.0551 139.109 28.0933 139.051 28.1438C138.993 28.1942 138.945 28.2561 138.912 28.3256C138.878 28.395 138.859 28.4706 138.855 28.5475C138.851 28.6244 138.863 28.701 138.89 28.7727C138.917 28.8445 138.959 28.9097 139.012 28.9644C139.065 29.0192 139.129 29.0624 139.2 29.0911C139.27 29.1198 139.346 29.1335 139.423 29.1314C139.499 29.1294 139.574 29.1117 139.644 29.0792L144.957 26.9936C145.064 26.9542 145.156 26.8834 145.222 26.7906C145.288 26.6978 145.325 26.5873 145.328 26.4737C145.33 26.3601 145.299 26.2486 145.237 26.1539C145.176 26.0593 145.087 25.9856 144.983 25.9431Z" fill="#EFF4F9"/>
<path fill-rule="evenodd" clip-rule="evenodd" d="M144.615 28.4372C144.483 28.3794 144.333 28.3755 144.197 28.4264L137.446 30.9006C137.376 30.9247 137.311 30.9628 137.255 31.0124C137.199 31.062 137.153 31.1222 137.12 31.1896C137.087 31.257 137.068 31.3302 137.064 31.4048C137.059 31.4794 137.069 31.5541 137.094 31.6244C137.118 31.6947 137.157 31.7592 137.206 31.8143C137.256 31.8693 137.316 31.9136 137.383 31.9449C137.45 31.9761 137.523 31.9935 137.597 31.996C137.671 31.9985 137.745 31.9861 137.815 31.9596L144.566 29.4854C144.672 29.4483 144.766 29.3796 144.834 29.2884C144.901 29.1973 144.94 29.088 144.946 28.9747C144.951 28.8614 144.922 28.7495 144.863 28.6536C144.804 28.5576 144.718 28.4823 144.615 28.4372Z" fill="#EFF4F9"/>
<path fill-rule="evenodd" clip-rule="evenodd" d="M144.048 30.518C143.916 30.4601 143.766 30.4563 143.631 30.5072L135.473 33.4641C135.404 33.4889 135.339 33.5273 135.284 33.577C135.229 33.6267 135.185 33.6868 135.152 33.7539C135.12 33.8209 135.102 33.8934 135.097 33.9674C135.093 34.0414 135.104 34.1154 135.128 34.1851C135.152 34.2549 135.19 34.319 135.239 34.3738C135.288 34.4285 135.347 34.4728 135.414 34.5042C135.48 34.5356 135.552 34.5535 135.625 34.5568C135.699 34.56 135.772 34.5485 135.842 34.5231L143.999 31.5662C144.106 31.529 144.199 31.4603 144.267 31.3692C144.335 31.2781 144.374 31.1688 144.379 31.0555C144.384 30.9422 144.356 30.8303 144.297 30.7343C144.238 30.6384 144.151 30.5631 144.048 30.518Z" fill="#EFF4F9"/>
<path fill-rule="evenodd" clip-rule="evenodd" d="M143.551 32.9482C143.419 32.8879 143.269 32.8819 143.131 32.9315L134.599 35.8598C134.528 35.8825 134.462 35.9192 134.405 35.9679C134.348 36.0165 134.301 36.076 134.267 36.1429C134.233 36.2098 134.212 36.2829 134.206 36.3576C134.201 36.4324 134.21 36.5075 134.233 36.5784C134.256 36.6493 134.294 36.7146 134.343 36.7706C134.391 36.8266 134.451 36.8719 134.518 36.9041C134.585 36.9364 134.657 36.955 134.732 36.9586C134.806 36.9621 134.88 36.9505 134.95 36.9248L143.482 33.9966C143.59 33.9616 143.685 33.8948 143.755 33.8048C143.824 33.7149 143.866 33.6059 143.873 33.4924C143.881 33.379 143.854 33.2663 143.796 33.1691C143.739 33.072 143.653 32.9951 143.551 32.9482Z" fill="#EFF4F9"/>
<path fill-rule="evenodd" clip-rule="evenodd" d="M143.394 34.9177C143.26 34.8662 143.11 34.8697 142.977 34.9271L137.132 37.2997C137.057 37.3223 136.988 37.3604 136.928 37.4113C136.869 37.4623 136.821 37.5252 136.786 37.5958C136.752 37.6664 136.733 37.743 136.73 37.8212C136.727 37.8994 136.74 37.9772 136.768 38.0497C136.797 38.1222 136.84 38.1879 136.895 38.2424C136.95 38.2969 137.016 38.3391 137.089 38.3663C137.161 38.3935 137.239 38.405 137.316 38.4003C137.394 38.3956 137.47 38.3747 137.539 38.3389L143.384 35.9661C143.489 35.9248 143.58 35.8526 143.644 35.7591C143.708 35.6656 143.743 35.5551 143.744 35.4419C143.745 35.3288 143.712 35.2183 143.65 35.1248C143.587 35.0314 143.499 34.959 143.394 34.9177Z" fill="#EFF4F9"/>
<path fill-rule="evenodd" clip-rule="evenodd" d="M143.851 36.9553C143.715 36.9046 143.564 36.9094 143.431 36.9686L139.68 38.5704C139.542 38.6288 139.433 38.7396 139.376 38.8783C139.319 39.017 139.319 39.1724 139.376 39.3101C139.432 39.4479 139.541 39.5566 139.678 39.6127C139.815 39.6688 139.97 39.6677 140.107 39.6093L143.858 38.0075C143.963 37.9651 144.054 37.8914 144.118 37.7964C144.181 37.7013 144.215 37.5895 144.214 37.4754C144.213 37.3613 144.178 37.2505 144.113 37.1577C144.048 37.0649 143.957 36.9941 143.851 36.9553Z" fill="#EFF4F9"/>
<path fill-rule="evenodd" clip-rule="evenodd" d="M97.2855 291.409C94.0911 289.29 89.9249 289.5 86.5247 290.183C83.0586 290.879 79.5041 292.563 77.1379 295.369C74.1325 298.934 71.6995 303.977 72.5518 308.849L72.5478 308.847C73.5497 314.579 77.9184 320.113 83.3616 322.242C88.4133 324.218 94.7214 323.027 99.067 319.947C103.102 317.088 105.941 311.951 105.887 306.956C105.823 300.935 102.277 294.719 97.2855 291.409ZM96.0362 293.291C100.331 296.139 103.573 301.86 103.627 306.98C103.671 311.067 101.137 315.713 97.7613 318.106C94.0583 320.73 88.3217 321.753 84.1842 320.136C79.6283 318.354 75.6186 313.304 74.7722 308.461C74.0983 304.608 76.157 300.034 78.8595 296.828C80.7826 294.547 83.9058 293.017 86.9641 292.404C90.08 291.778 93.6895 291.74 96.0344 293.295L96.0362 293.291Z" fill="#EFF4F9"/>
<path fill-rule="evenodd" clip-rule="evenodd" d="M80.5035 304.367C80.3392 304.302 80.1617 304.275 79.9854 304.291C79.809 304.306 79.6388 304.363 79.4883 304.456C79.3378 304.55 79.2114 304.677 79.1192 304.829C79.027 304.98 78.9717 305.151 78.9577 305.327C78.7419 307.573 79.5765 309.817 80.7919 311.631C81.9718 313.393 83.6919 315.337 86.113 315.946C89.7799 316.869 94.0557 316.044 96.8286 313.655C97.0556 313.46 97.1957 313.182 97.2181 312.883C97.2405 312.584 97.1434 312.289 96.9482 312.062C96.753 311.835 96.4755 311.695 96.177 311.673C95.8784 311.651 95.5832 311.748 95.3562 311.943C93.3014 313.714 89.5782 314.489 86.6645 313.756C85.1607 313.378 83.6924 311.9 82.6692 310.373C81.6784 308.894 81.059 307.058 81.2046 305.542C81.2324 305.297 81.1788 305.049 81.0522 304.836C80.9255 304.624 80.7328 304.459 80.5035 304.367Z" fill="#EFF4F9"/>
<path fill-rule="evenodd" clip-rule="evenodd" d="M96.9566 302.69C97.3552 302.807 97.7055 303.188 97.821 303.587C97.9288 303.958 97.8331 304.425 97.5877 304.724C97.3951 304.959 97.0534 305.074 96.7505 305.078C96.2175 305.086 95.5215 304.962 95.2612 304.496C95.0186 304.063 95.1822 303.39 95.5234 303.029C95.8605 302.672 96.4857 302.552 96.9566 302.69Z" fill="#EFF4F9"/>
<path fill-rule="evenodd" clip-rule="evenodd" d="M85.8254 300.719C86.1825 300.931 86.7003 300.926 87.0709 300.738C87.4157 300.563 87.691 300.174 87.7422 299.791C87.7816 299.49 87.6326 299.161 87.4286 298.937C87.0701 298.543 86.5044 298.119 85.9862 298.247C85.5041 298.366 85.1244 298.945 85.0937 299.441C85.0631 299.931 85.4027 300.47 85.8254 300.719Z" fill="#EFF4F9"/>
<path fill-rule="evenodd" clip-rule="evenodd" d="M101.815 277.472C101.536 277.365 101.226 277.374 100.953 277.497C100.68 277.619 100.466 277.845 100.36 278.124L97.7711 284.62C97.7152 284.758 97.6871 284.906 97.6884 285.055C97.6897 285.203 97.7204 285.35 97.7786 285.487C97.8368 285.624 97.9216 285.748 98.0279 285.852C98.1341 285.956 98.2599 286.038 98.3979 286.093C98.5359 286.148 98.6835 286.176 98.8322 286.174C98.9809 286.172 99.1277 286.14 99.2643 286.081C99.4008 286.022 99.5244 285.937 99.6279 285.83C99.7315 285.723 99.813 285.597 99.8676 285.459L102.456 278.963C102.514 278.823 102.544 278.673 102.543 278.521C102.542 278.37 102.511 278.22 102.451 278.081C102.391 277.942 102.304 277.817 102.195 277.712C102.086 277.607 101.957 277.525 101.815 277.472Z" fill="#EFF4F9"/>
<path fill-rule="evenodd" clip-rule="evenodd" d="M80.2333 327.369C79.9534 327.264 79.6432 327.274 79.3707 327.397C79.0982 327.521 78.8857 327.747 78.7798 328.027L76.4443 333.941C76.3891 334.079 76.3616 334.226 76.3636 334.375C76.3655 334.524 76.3969 334.671 76.4557 334.807C76.5145 334.944 76.5997 335.067 76.7064 335.171C76.813 335.274 76.939 335.356 77.0772 335.411C77.2155 335.465 77.3631 335.492 77.5117 335.489C77.6604 335.487 77.8071 335.455 77.9434 335.395C78.0797 335.336 78.2029 335.25 78.3061 335.143C78.4092 335.036 78.4902 334.909 78.5444 334.771L80.8799 328.857C80.9376 328.717 80.9667 328.567 80.9652 328.416C80.9638 328.264 80.932 328.115 80.8717 327.976C80.8113 327.837 80.7237 327.712 80.614 327.608C80.5043 327.503 80.375 327.422 80.2333 327.369Z" fill="#EFF4F9"/>
<path fill-rule="evenodd" clip-rule="evenodd" d="M117.82 317.373C117.796 317.361 117.772 317.351 117.747 317.341L111.257 314.756C111.118 314.692 110.967 314.656 110.814 314.652C110.66 314.648 110.508 314.676 110.365 314.733C110.223 314.79 110.093 314.875 109.985 314.984C109.876 315.092 109.791 315.222 109.734 315.365C109.678 315.508 109.65 315.66 109.655 315.814C109.659 315.967 109.695 316.118 109.759 316.258C109.824 316.397 109.916 316.521 110.03 316.624C110.145 316.726 110.279 316.804 110.424 316.853L116.914 319.438C117.188 319.553 117.495 319.556 117.771 319.446C118.047 319.336 118.268 319.122 118.388 318.85C118.507 318.578 118.514 318.271 118.408 317.993C118.303 317.716 118.092 317.491 117.822 317.369L117.82 317.373Z" fill="#EFF4F9"/>
<path fill-rule="evenodd" clip-rule="evenodd" d="M67.9678 295.815C67.9439 295.804 67.9197 295.793 67.895 295.783L61.9874 293.451C61.8479 293.387 61.6967 293.353 61.5434 293.35C61.39 293.346 61.2375 293.374 61.0953 293.432C60.953 293.489 60.824 293.575 60.716 293.684C60.6081 293.793 60.5234 293.923 60.4673 294.066C60.4111 294.209 60.3847 294.362 60.3896 294.515C60.3944 294.669 60.4304 294.82 60.4955 294.959C60.5605 295.098 60.6532 295.222 60.7679 295.324C60.8826 295.426 61.0169 295.503 61.1625 295.551L67.0701 297.884C67.3438 297.998 67.6515 298 67.9267 297.889C68.2019 297.777 68.4224 297.563 68.5405 297.29C68.6587 297.018 68.6651 296.71 68.5582 296.433C68.4514 296.156 68.2399 295.933 67.9696 295.811L67.9678 295.815Z" fill="#EFF4F9"/>
<path fill-rule="evenodd" clip-rule="evenodd" d="M118.125 294.136C117.977 294.065 117.815 294.027 117.651 294.025C117.487 294.022 117.324 294.056 117.174 294.123L110.754 296.893C110.611 296.947 110.481 297.029 110.371 297.135C110.26 297.241 110.173 297.368 110.113 297.509C110.054 297.65 110.023 297.801 110.024 297.953C110.024 298.106 110.056 298.257 110.116 298.398C110.176 298.538 110.265 298.664 110.376 298.769C110.486 298.874 110.617 298.956 110.76 299.009C110.903 299.062 111.056 299.085 111.208 299.077C111.361 299.07 111.51 299.031 111.647 298.964L118.066 296.199C118.268 296.115 118.441 295.975 118.565 295.796C118.689 295.616 118.758 295.404 118.764 295.186C118.77 294.968 118.713 294.753 118.6 294.566C118.486 294.38 118.321 294.231 118.125 294.136Z" fill="#EFF4F9"/>
<path fill-rule="evenodd" clip-rule="evenodd" d="M67.6158 314.177C67.4674 314.106 67.3052 314.069 67.1407 314.067C66.9762 314.066 66.8133 314.1 66.6635 314.168L60.8363 316.7C60.7002 316.759 60.5771 316.844 60.4739 316.951C60.3708 317.057 60.2896 317.183 60.235 317.321C60.1805 317.459 60.1536 317.607 60.156 317.755C60.1584 317.904 60.1899 318.05 60.2489 318.186C60.3078 318.322 60.3929 318.445 60.4995 318.549C60.606 318.652 60.7318 318.733 60.8696 318.787C61.0075 318.842 61.1548 318.869 61.3031 318.866C61.4514 318.864 61.5978 318.832 61.7338 318.773L67.561 316.241C67.7628 316.158 67.9362 316.017 68.06 315.837C68.1838 315.657 68.2528 315.445 68.2586 315.226C68.2644 315.008 68.2067 314.793 68.0926 314.606C67.9785 314.42 67.8129 314.271 67.6158 314.177Z" fill="#EFF4F9"/>
<path fill-rule="evenodd" clip-rule="evenodd" d="M78.6046 277.207C78.3959 277.124 78.167 277.104 77.9474 277.152C77.7277 277.2 77.5272 277.312 77.3716 277.474C77.2159 277.637 77.1122 277.842 77.0737 278.064C77.0353 278.285 77.0638 278.513 77.1556 278.719L79.9144 285.14C79.973 285.276 80.0578 285.399 80.1641 285.503C80.2703 285.606 80.3958 285.688 80.5335 285.743C80.6712 285.798 80.8185 285.825 80.9668 285.823C81.1151 285.821 81.2615 285.789 81.3977 285.731C81.5339 285.672 81.6573 285.587 81.7608 285.481C81.8642 285.374 81.9456 285.249 82.0005 285.111C82.0555 284.973 82.0827 284.826 82.0807 284.677C82.0788 284.529 82.0476 284.382 81.9891 284.246L79.2303 277.825C79.1726 277.685 79.0876 277.558 78.9801 277.452C78.8726 277.346 78.7449 277.263 78.6046 277.207Z" fill="#EFF4F9"/>
<path fill-rule="evenodd" clip-rule="evenodd" d="M98.5916 327.731C98.3829 327.648 98.1543 327.63 97.9351 327.678C97.7159 327.727 97.516 327.839 97.3609 328.002C97.2058 328.164 97.1026 328.369 97.0645 328.59C97.0263 328.812 97.0549 329.039 97.1467 329.244L99.6745 335.079C99.7289 335.222 99.8117 335.352 99.9177 335.461C100.024 335.571 100.151 335.658 100.292 335.717C100.432 335.777 100.583 335.806 100.736 335.805C100.888 335.804 101.039 335.772 101.179 335.711C101.319 335.65 101.445 335.562 101.55 335.451C101.655 335.34 101.736 335.208 101.789 335.065C101.841 334.922 101.864 334.769 101.856 334.617C101.849 334.464 101.81 334.315 101.743 334.178L99.2173 328.348C99.1596 328.209 99.0746 328.082 98.9671 327.976C98.8596 327.87 98.7319 327.786 98.5916 327.731Z" fill="#EFF4F9"/>
<path fill-rule="evenodd" clip-rule="evenodd" d="M84.1931 294.703C84.0926 294.664 83.9832 294.655 83.8777 294.677L77.4371 295.865C77.364 295.878 77.2944 295.906 77.232 295.946C77.1696 295.986 77.1157 296.039 77.0735 296.1C77.0313 296.161 77.0016 296.23 76.986 296.303C76.9704 296.376 76.9693 296.45 76.9827 296.524C76.9961 296.597 77.0238 296.666 77.0641 296.729C77.1045 296.791 77.1567 296.845 77.2178 296.887C77.279 296.929 77.3479 296.959 77.4205 296.975C77.4931 296.99 77.5681 296.991 77.6412 296.978L84.0795 295.784C84.2007 295.763 84.3117 295.703 84.3957 295.613C84.4798 295.523 84.5322 295.408 84.545 295.286C84.5579 295.164 84.5304 295.041 84.4669 294.935C84.4034 294.83 84.3072 294.748 84.1931 294.703Z" fill="#EFF4F9"/>
<path fill-rule="evenodd" clip-rule="evenodd" d="M82.0046 297.553C81.8879 297.501 81.7571 297.491 81.6334 297.523L75.2392 299.058C75.0933 299.093 74.9673 299.184 74.8888 299.312C74.8103 299.44 74.7859 299.594 74.8207 299.74C74.8555 299.886 74.9468 300.012 75.0745 300.09C75.2023 300.169 75.356 300.193 75.5018 300.158L81.896 298.623C82.0126 298.598 82.1181 298.536 82.1975 298.447C82.277 298.358 82.3262 298.246 82.3382 298.127C82.3503 298.009 82.3244 297.889 82.2644 297.786C82.2044 297.683 82.1137 297.601 82.0046 297.553Z" fill="#EFF4F9"/>
<path fill-rule="evenodd" clip-rule="evenodd" d="M79.9869 300.641C79.8702 300.592 79.7402 300.583 79.6179 300.617L74.9314 301.816C74.786 301.853 74.6613 301.946 74.5846 302.075C74.5079 302.204 74.4855 302.358 74.5224 302.504C74.5593 302.649 74.6525 302.774 74.7814 302.851C74.9103 302.927 75.0644 302.95 75.2098 302.913L79.8963 301.714C80.0128 301.687 80.1177 301.624 80.196 301.533C80.2743 301.443 80.322 301.33 80.332 301.211C80.342 301.091 80.3139 300.972 80.2519 300.87C80.1898 300.768 80.0972 300.687 79.9869 300.641Z" fill="#EFF4F9"/>
<path fill-rule="evenodd" clip-rule="evenodd" d="M78.7613 303.111C78.6446 303.062 78.5147 303.053 78.3924 303.086L73.7059 304.285C73.5605 304.322 73.4357 304.416 73.3589 304.545C73.2822 304.674 73.2598 304.828 73.2967 304.973C73.3336 305.119 73.4267 305.244 73.5556 305.321C73.6845 305.397 73.8387 305.419 73.9842 305.382L78.6707 304.184C78.7872 304.157 78.8922 304.094 78.9706 304.003C79.049 303.913 79.0966 303.8 79.1067 303.68C79.1168 303.561 79.0887 303.442 79.0266 303.34C78.9645 303.237 78.8717 303.157 78.7613 303.111Z" fill="#EFF4F9"/>
<path fill-rule="evenodd" clip-rule="evenodd" d="M77.9239 305.749C77.8072 305.7 77.6772 305.691 77.5549 305.725L72.8684 306.924C72.723 306.961 72.5983 307.054 72.5216 307.183C72.4449 307.312 72.4225 307.466 72.4595 307.612C72.4964 307.757 72.5895 307.882 72.7184 307.959C72.8473 308.035 73.0014 308.058 73.1468 308.021L77.8333 306.822C77.9498 306.795 78.0547 306.732 78.133 306.641C78.2113 306.551 78.259 306.438 78.269 306.319C78.2791 306.199 78.251 306.08 78.1889 305.978C78.1268 305.876 78.0343 305.795 77.9239 305.749Z" fill="#EFF4F9"/>
<path fill-rule="evenodd" clip-rule="evenodd" d="M77.8317 307.888C77.715 307.839 77.5852 307.83 77.4629 307.864L73.2314 308.933C73.1546 308.946 73.0813 308.975 73.0162 309.018C72.9511 309.061 72.8955 309.116 72.853 309.182C72.8105 309.247 72.7819 309.321 72.7691 309.397C72.7563 309.474 72.7596 309.553 72.7787 309.629C72.7978 309.704 72.8323 309.775 72.8801 309.837C72.9279 309.898 72.988 309.949 73.0564 309.986C73.1249 310.023 73.2003 310.046 73.2779 310.052C73.3555 310.059 73.4337 310.049 73.5074 310.024L77.7387 308.955C77.8535 308.927 77.9566 308.864 78.0336 308.774C78.1105 308.685 78.1574 308.573 78.1677 308.455C78.1779 308.337 78.151 308.219 78.0907 308.118C78.0304 308.016 77.9399 307.936 77.8317 307.888Z" fill="#EFF4F9"/>
<path fill-rule="evenodd" clip-rule="evenodd" d="M78.3993 309.847C78.2816 309.796 78.15 309.787 78.0263 309.821L73.7948 310.89C73.7227 310.908 73.6548 310.94 73.595 310.984C73.5352 311.028 73.4847 311.084 73.4463 311.147C73.408 311.211 73.3827 311.282 73.3717 311.355C73.3607 311.429 73.3643 311.504 73.3824 311.576C73.4004 311.648 73.4326 311.716 73.4769 311.776C73.5212 311.835 73.5768 311.885 73.6406 311.924C73.7044 311.962 73.7751 311.987 73.8486 311.997C73.9222 312.008 73.9971 312.004 74.0691 311.986L78.3005 310.917C78.4162 310.89 78.5206 310.827 78.5987 310.737C78.6769 310.648 78.7248 310.536 78.7357 310.418C78.7466 310.299 78.7199 310.181 78.6594 310.078C78.599 309.976 78.5082 309.895 78.3993 309.847Z" fill="#EFF4F9"/>
<path fill-rule="evenodd" clip-rule="evenodd" d="M79.1598 311.649C79.0566 311.616 78.946 311.613 78.8413 311.641L74.6058 312.709C74.4604 312.746 74.3355 312.839 74.2588 312.968C74.1821 313.097 74.1597 313.252 74.1966 313.397C74.2335 313.543 74.3266 313.668 74.4555 313.744C74.5844 313.821 74.7386 313.843 74.8841 313.806L79.1155 312.737C79.2355 312.709 79.3429 312.642 79.4213 312.546C79.4998 312.451 79.5449 312.333 79.5499 312.21C79.5549 312.087 79.5195 311.965 79.449 311.864C79.3785 311.763 79.2771 311.687 79.1598 311.649Z" fill="#EFF4F9"/>
<path fill-rule="evenodd" clip-rule="evenodd" d="M80.455 313.626C80.3373 313.575 80.2058 313.565 80.0821 313.599L75.8506 314.668C75.7738 314.681 75.7005 314.71 75.6354 314.753C75.5703 314.796 75.5147 314.852 75.4722 314.917C75.4296 314.982 75.401 315.056 75.3883 315.133C75.3755 315.21 75.3788 315.288 75.3979 315.364C75.417 315.44 75.4515 315.51 75.4993 315.572C75.5471 315.633 75.6071 315.684 75.6756 315.721C75.7441 315.759 75.8195 315.781 75.8971 315.788C75.9747 315.794 76.0529 315.785 76.1266 315.76L80.3621 314.692C80.4768 314.664 80.5798 314.601 80.6567 314.511C80.7336 314.421 80.7804 314.31 80.7906 314.192C80.8008 314.074 80.7739 313.957 80.7136 313.855C80.6534 313.754 80.5631 313.673 80.455 313.626Z" fill="#EFF4F9"/>
<path fill-rule="evenodd" clip-rule="evenodd" d="M146.096 183.468C145.919 183.419 145.733 183.414 145.553 183.453C145.374 183.493 145.207 183.576 145.066 183.696C145.066 183.696 136.596 190.862 133.148 195.648C129.581 200.597 126.598 206.16 124.918 212.093C123.637 216.618 123.063 223.34 122.779 229.004C122.494 234.668 122.519 239.249 122.519 239.249C122.521 239.501 122.607 239.745 122.764 239.942C122.92 240.139 123.138 240.277 123.383 240.335L132.613 242.521C132.83 242.572 133.057 242.558 133.266 242.479C133.475 242.4 133.655 242.261 133.785 242.079L139.246 234.39C139.263 234.365 139.28 234.34 139.296 234.313C139.296 234.313 144.656 225.413 146.369 220.161C148.151 214.702 149.101 208.927 149.226 203.194C149.369 196.612 146.895 184.328 146.895 184.328C146.854 184.125 146.758 183.937 146.617 183.785C146.476 183.633 146.296 183.524 146.096 183.468ZM145.031 186.753C145.535 189.46 147.094 198.063 146.983 203.149C146.863 208.664 145.945 214.227 144.235 219.464C142.732 224.074 137.394 233.113 137.378 233.14L132.395 240.155L124.784 238.354C124.782 237.663 124.764 234.226 125.021 229.113C125.302 223.516 125.913 216.819 127.079 212.701C128.668 207.088 131.518 201.743 134.964 196.96C137.506 193.433 143.038 188.507 145.031 186.753Z" fill="#EFF4F9"/>
<path fill-rule="evenodd" clip-rule="evenodd" d="M144.263 185.259L127.387 240.431L129.53 241.099L146.406 185.926L144.263 185.259Z" fill="#EFF4F9"/>
<path fill-rule="evenodd" clip-rule="evenodd" d="M177.316 197.109C177.118 197.049 176.906 197.046 176.706 197.099C176.706 197.099 168.141 199.37 163.87 201.29C159.507 203.252 155.143 205.532 151.354 208.632C148.971 210.582 145.708 214.929 145.708 214.929C145.619 215.047 145.553 215.181 145.515 215.323C145.476 215.466 145.467 215.615 145.486 215.762C145.505 215.908 145.553 216.049 145.627 216.177C145.701 216.305 145.799 216.417 145.916 216.507C146.033 216.597 146.166 216.662 146.309 216.7C146.451 216.738 146.6 216.748 146.746 216.728C146.892 216.709 147.033 216.66 147.161 216.586C147.288 216.512 147.4 216.413 147.49 216.296C147.49 216.296 150.928 211.883 152.771 210.375C156.322 207.471 160.507 205.267 164.786 203.343C167.96 201.916 173.004 200.565 175.138 199.97C174.337 202.377 170.949 212.692 168.231 218.608C167.128 221.01 166.04 223.374 164.527 225.315C161.014 229.818 156.561 233.645 151.904 237.11C149.004 239.268 142.903 242.401 142.074 242.83L136.387 237.534C136.281 237.424 136.154 237.337 136.013 237.278C135.872 237.219 135.721 237.19 135.569 237.192C135.416 237.193 135.265 237.226 135.126 237.288C134.986 237.35 134.86 237.44 134.757 237.553C134.653 237.665 134.573 237.797 134.521 237.941C134.47 238.086 134.449 238.239 134.459 238.391C134.469 238.544 134.509 238.693 134.579 238.829C134.648 238.966 134.744 239.086 134.861 239.184L141.157 245.043C141.324 245.199 141.536 245.3 141.763 245.332C141.99 245.365 142.221 245.326 142.426 245.223C142.426 245.223 149.742 241.523 153.242 238.918C157.985 235.389 162.596 231.438 166.295 226.696C168.028 224.474 169.169 221.945 170.27 219.548C173.44 212.645 178.063 198.54 178.063 198.54C178.11 198.397 178.128 198.246 178.116 198.096C178.104 197.945 178.062 197.799 177.992 197.666C177.922 197.532 177.827 197.414 177.711 197.318C177.595 197.223 177.461 197.151 177.316 197.109Z" fill="#EFF4F9"/>
<path fill-rule="evenodd" clip-rule="evenodd" d="M162.491 213.371C162.471 213.364 162.452 213.358 162.432 213.353L150.377 210.207L149.81 212.384L161.305 215.384L165.088 225.443L167.19 224.647L163.2 214.043C163.14 213.884 163.046 213.74 162.923 213.623C162.801 213.506 162.653 213.419 162.492 213.367L162.491 213.371Z" fill="#EFF4F9"/>
<path fill-rule="evenodd" clip-rule="evenodd" d="M156.906 205.195L156.196 207.328L166.316 210.682L168.722 218.118L170.859 217.42L168.276 209.443C168.222 209.276 168.129 209.123 168.005 208.998C167.882 208.873 167.73 208.779 167.563 208.724L156.906 205.195Z" fill="#EFF4F9"/>
<path fill-rule="evenodd" clip-rule="evenodd" d="M138.093 197.713C138.014 197.694 137.931 197.693 137.851 197.709C137.771 197.726 137.695 197.76 137.63 197.809L128.252 204.55C128.188 204.592 128.134 204.646 128.092 204.709C128.05 204.772 128.021 204.843 128.007 204.917C127.993 204.991 127.994 205.068 128.01 205.142C128.026 205.216 128.057 205.286 128.101 205.348C128.144 205.41 128.2 205.462 128.265 205.501C128.329 205.541 128.401 205.567 128.475 205.578C128.55 205.589 128.626 205.585 128.7 205.566C128.773 205.547 128.841 205.513 128.901 205.466L138.283 198.726C138.373 198.664 138.443 198.577 138.485 198.476C138.526 198.375 138.538 198.264 138.518 198.157C138.498 198.05 138.447 197.951 138.371 197.872C138.296 197.793 138.199 197.737 138.093 197.713Z" fill="#EFF4F9"/>
<path fill-rule="evenodd" clip-rule="evenodd" d="M136.624 202.676C136.546 202.654 136.463 202.649 136.383 202.662C136.302 202.675 136.225 202.706 136.158 202.752L127.101 208.759C127.04 208.8 126.987 208.853 126.945 208.914C126.904 208.975 126.875 209.044 126.86 209.117C126.846 209.189 126.845 209.264 126.859 209.337C126.873 209.409 126.901 209.478 126.942 209.54C126.983 209.602 127.035 209.655 127.096 209.696C127.157 209.737 127.226 209.766 127.298 209.781C127.371 209.796 127.445 209.796 127.518 209.782C127.59 209.767 127.659 209.739 127.721 209.698L136.777 203.691C136.868 203.632 136.94 203.548 136.985 203.449C137.029 203.35 137.044 203.241 137.028 203.134C137.012 203.027 136.965 202.926 136.894 202.845C136.822 202.764 136.729 202.705 136.624 202.676Z" fill="#EFF4F9"/>
<path fill-rule="evenodd" clip-rule="evenodd" d="M134.511 208.276C134.432 208.257 134.35 208.255 134.27 208.271C134.19 208.287 134.114 208.32 134.048 208.368L124.725 214.914C124.603 214.999 124.519 215.13 124.493 215.277C124.467 215.424 124.5 215.576 124.585 215.698C124.67 215.821 124.801 215.904 124.947 215.93C125.094 215.956 125.245 215.923 125.368 215.837L134.693 209.286C134.782 209.225 134.851 209.139 134.893 209.039C134.935 208.939 134.947 208.829 134.927 208.722C134.908 208.615 134.859 208.516 134.785 208.437C134.711 208.358 134.616 208.302 134.511 208.276Z" fill="#EFF4F9"/>
<path fill-rule="evenodd" clip-rule="evenodd" d="M133.336 213.222C133.256 213.202 133.173 213.2 133.092 213.215C133.012 213.231 132.936 213.264 132.869 213.312L124.996 218.839C124.936 218.882 124.884 218.936 124.844 218.998C124.804 219.06 124.777 219.13 124.764 219.203C124.751 219.276 124.753 219.35 124.769 219.422C124.784 219.495 124.814 219.563 124.856 219.624C124.899 219.685 124.952 219.736 125.015 219.776C125.077 219.816 125.146 219.843 125.219 219.856C125.291 219.868 125.366 219.867 125.438 219.851C125.51 219.835 125.578 219.805 125.639 219.762L133.513 214.231C133.602 214.17 133.671 214.084 133.713 213.985C133.754 213.885 133.767 213.775 133.748 213.669C133.729 213.563 133.68 213.464 133.607 213.385C133.534 213.306 133.44 213.249 133.336 213.222Z" fill="#EFF4F9"/>
<path fill-rule="evenodd" clip-rule="evenodd" d="M131.389 219.075C131.31 219.053 131.228 219.048 131.147 219.061C131.067 219.074 130.99 219.104 130.922 219.15L123.833 223.774C123.709 223.856 123.621 223.984 123.591 224.13C123.56 224.277 123.588 224.429 123.67 224.554C123.751 224.679 123.879 224.766 124.025 224.797C124.171 224.827 124.323 224.798 124.447 224.716L131.532 220.091C131.623 220.033 131.696 219.95 131.742 219.852C131.787 219.753 131.804 219.644 131.789 219.536C131.773 219.429 131.728 219.328 131.657 219.246C131.586 219.164 131.493 219.105 131.389 219.075Z" fill="#EFF4F9"/>
<path fill-rule="evenodd" clip-rule="evenodd" d="M129.859 224.851C129.718 224.81 129.566 224.827 129.437 224.898L124.028 227.74C123.962 227.773 123.902 227.82 123.853 227.877C123.805 227.934 123.768 227.999 123.745 228.071C123.722 228.142 123.713 228.217 123.72 228.291C123.726 228.366 123.747 228.438 123.781 228.505C123.816 228.571 123.863 228.629 123.921 228.677C123.978 228.725 124.045 228.76 124.116 228.782C124.187 228.804 124.262 228.811 124.337 228.803C124.411 228.795 124.483 228.773 124.548 228.737L129.957 225.894C130.058 225.843 130.142 225.763 130.197 225.664C130.251 225.564 130.275 225.451 130.264 225.338C130.254 225.225 130.21 225.118 130.137 225.031C130.065 224.944 129.968 224.881 129.859 224.851Z" fill="#EFF4F9"/>
</svg>
