<svg width="12" height="15" viewBox="0 0 12 15" fill="none" xmlns="http://www.w3.org/2000/svg">
<path fill-rule="evenodd" clip-rule="evenodd" d="M12 13V7C12 5.89543 11.1046 5 10 5L10 4C10 1.79086 8.20918 0 6.00004 0C3.7909 0 2.00004 1.79086 2.00004 4L2 5C0.895431 5 0 5.89543 0 7V13C0 14.1046 0.895431 15 2 15H10C11.1046 15 12 14.1046 12 13ZM4.00004 4C4.00004 2.89543 4.89547 2 6.00004 2C7.10461 2 8.00004 2.89543 8.00004 4V5H4.00004V4ZM6 7C4.89543 7 4 7.89543 4 9C4 9.75319 4.41634 10.4091 5.03144 10.7502C5.01092 10.8301 5 10.9138 5 11V12C5 12.5523 5.44772 13 6 13C6.55228 13 7 12.5523 7 12V11C7 10.9138 6.98908 10.8301 6.96856 10.7502C7.58366 10.4091 8 9.75319 8 9C8 7.89543 7.10457 7 6 7Z" fill="#11DD44"/>
</svg>
