<svg width="56" height="65" viewBox="0 0 56 65" fill="none" xmlns="http://www.w3.org/2000/svg">
<path fill-rule="evenodd" clip-rule="evenodd" d="M27.871 14.4423C24.8364 14.4093 21.798 14.6228 18.8152 15.1216C15.2122 15.7228 11.3594 16.6523 8.19228 18.8835C5.66412 20.6648 3.84087 23.266 2.49005 25.8829C1.09415 28.5869 0.167501 31.6399 0.0339723 34.7309C-0.156528 39.1062 0.426345 43.7889 2.49005 47.801C5.71695 54.0744 10.7509 60.1178 17.2952 63.154C22.1876 65.4239 28.0271 65.3881 33.1223 64.1901C39.2037 62.7604 45.1883 59.5002 49.3617 54.7659C52.983 50.6577 54.8731 45.1599 55.6693 39.8945C56.3132 35.6363 56.0884 30.9845 54.3554 26.919C52.9524 23.6277 50.4019 20.8346 47.5024 18.8706C44.3073 16.7068 40.4722 15.861 36.9009 15.2592C33.9337 14.759 30.9055 14.476 27.871 14.4423ZM27.8452 16.6436C30.7595 16.6766 33.6767 16.9485 36.5359 17.4303C40.0203 18.0176 43.5387 18.8438 46.2701 20.6936C48.8597 22.4477 51.1344 24.9715 52.333 27.7832C53.8523 31.3475 54.0931 35.6233 53.4966 39.5677C52.7443 44.5428 50.9366 49.6556 47.7128 53.3128C43.9014 57.6365 38.2858 60.7168 32.62 62.049C27.8859 63.162 22.4869 63.1393 18.2184 61.1591C12.3014 58.4139 7.50529 52.7467 4.44375 46.7949C2.62455 43.2582 2.05358 38.9329 2.23242 34.8255C2.34951 32.1149 3.17645 29.3481 4.44375 26.8932C5.69413 24.4707 7.35411 22.1682 9.45896 20.685C12.1679 18.7767 15.6921 17.8741 19.1759 17.2928C22.0213 16.8182 24.9309 16.6114 27.8452 16.6436Z" fill="#1188EE"/>
<path fill-rule="evenodd" clip-rule="evenodd" d="M3.66657 25.4141C3.4483 25.4268 3.23875 25.5044 3.06471 25.6369C2.89067 25.7694 2.76004 25.9507 2.68952 26.1579C2.619 26.3651 2.61178 26.5888 2.6688 26.8001C2.72582 27.0115 2.84447 27.2011 3.00961 27.3445C3.00961 27.3445 4.03901 28.2652 5.37981 29.3051C6.72061 30.3447 8.33258 31.515 9.79817 32.091C16.0073 34.5311 22.8407 34.8367 29.3094 34.7781C42.9942 34.6549 53.5782 28.8966 53.5782 28.8966C53.7089 28.8299 53.8248 28.7375 53.9193 28.6252C54.0138 28.5129 54.0849 28.3828 54.1284 28.2426C54.1719 28.1023 54.1869 27.9548 54.1725 27.8086C54.1582 27.6624 54.1148 27.5207 54.0449 27.3916C53.975 27.2625 53.88 27.1485 53.7654 27.0568C53.6509 26.965 53.5192 26.8971 53.3781 26.8571C53.237 26.8171 53.0893 26.8058 52.9437 26.8238C52.7982 26.8418 52.6577 26.8887 52.5305 26.9619C52.5305 26.9619 42.3675 32.4584 29.2879 32.5769C22.9063 32.6341 16.3546 32.3014 10.6011 30.0402C9.61831 29.6541 8.00415 28.5535 6.72808 27.5638C5.452 26.5743 4.47381 25.7022 4.47381 25.7022C4.36536 25.6025 4.23803 25.5257 4.09936 25.4762C3.96069 25.4267 3.81352 25.4056 3.66657 25.4141Z" fill="#1188EE"/>
<path fill-rule="evenodd" clip-rule="evenodd" d="M54.2738 33.2562C53.9888 33.2675 53.7194 33.3893 53.5224 33.5958C53.5224 33.5958 53.0267 34.0998 52.3802 34.6922C51.7337 35.2848 50.906 35.9705 50.4523 36.2313C47.7767 37.7702 44.7021 38.7357 41.5941 39.3398C38.9385 39.8562 32.7659 39.731 32.7659 39.731C32.6216 39.727 32.4778 39.7514 32.3429 39.803C32.2079 39.8547 32.0845 39.9326 31.9795 40.032C31.8746 40.1314 31.7903 40.2506 31.7314 40.3826C31.6725 40.5147 31.6401 40.657 31.6362 40.8016C31.6322 40.9461 31.6567 41.0902 31.7084 41.2253C31.76 41.3604 31.8377 41.4839 31.937 41.5889C32.0364 41.6939 32.1554 41.7782 32.2873 41.8372C32.4192 41.8961 32.5614 41.9284 32.7058 41.9323C32.7058 41.9323 38.7294 42.1414 42.0149 41.5023C45.2863 40.8666 48.5877 39.8425 51.5472 38.1403C52.3484 37.6793 53.1725 36.9571 53.8659 36.3216C54.5593 35.6861 55.0897 35.1433 55.0897 35.1433C55.2474 34.9873 55.3543 34.7873 55.3964 34.5694C55.4385 34.3514 55.4138 34.1259 55.3256 33.9223C55.2374 33.7187 55.0897 33.5465 54.902 33.4284C54.7143 33.3103 54.4953 33.2518 54.2738 33.2605L54.2738 33.2562Z" fill="#1188EE"/>
<path fill-rule="evenodd" clip-rule="evenodd" d="M53.3807 42.775C53.2078 42.7802 53.0387 42.8263 52.8869 42.9093C52.8869 42.9093 47.1485 45.8605 44.3851 46.654C42.5329 47.1859 38.0087 47.5784 38.0087 47.5784C37.7178 47.6012 37.4477 47.7386 37.2581 47.9608C37.0685 48.1829 36.9747 48.4715 36.9975 48.7629C37.0203 49.0542 37.1577 49.3246 37.3796 49.5145C37.6014 49.7044 37.8895 49.7982 38.1805 49.7754C38.1805 49.7754 42.5716 49.4638 44.9905 48.7693C48.3208 47.8129 53.9046 44.8612 53.9046 44.8612C54.1288 44.7492 54.3081 44.5641 54.4128 44.3362C54.5174 44.1082 54.5411 43.851 54.48 43.6077C54.4189 43.3644 54.2766 43.1493 54.0766 42.998C53.8767 42.8467 53.6312 42.7674 53.3807 42.775Z" fill="#1188EE"/>
<path fill-rule="evenodd" clip-rule="evenodd" d="M28.4635 19.1629C26.4431 19.1849 23.858 19.2267 21.3958 19.4122C18.9322 19.5971 16.6224 19.895 14.9551 20.5473C11.7784 21.7905 10.2404 24.1372 10.2404 24.1372C10.1611 24.2594 10.1068 24.3963 10.0807 24.5397C10.0546 24.6831 10.0572 24.8302 10.0884 24.9726C10.1195 25.115 10.1786 25.2496 10.2622 25.369C10.3458 25.4883 10.4523 25.59 10.5754 25.6678C10.5754 25.6678 15.5241 28.8438 20.0733 29.8038C24.5351 30.7457 31.8844 30.7836 36.3857 29.872C40.9779 28.9426 46.0897 25.7401 46.0897 25.7401C46.2378 25.6485 46.362 25.5233 46.4522 25.3744C46.5424 25.2254 46.596 25.0569 46.6086 24.8832C46.6212 24.7094 46.5924 24.5352 46.5246 24.3748C46.4568 24.2143 46.3519 24.0721 46.2186 23.9601C46.2186 23.9601 42.9771 21.1456 39.7349 20.1079C36.5843 19.0997 32.499 19.1266 28.4678 19.1621L28.4635 19.1629ZM28.4851 21.3641C32.5009 21.3289 36.4771 21.3862 39.0651 22.2068C40.9092 22.797 42.2513 23.9539 43.3031 24.7477C41.634 25.6701 38.8066 27.1367 35.9521 27.7143C31.9493 28.5243 24.4944 28.4868 20.5286 27.6503C17.5581 27.0234 14.6304 25.429 13.1217 24.5637C13.5946 23.9993 13.9274 23.3136 15.7538 22.5989C16.9483 22.1315 19.1833 21.789 21.5591 21.61C23.9349 21.4317 26.4818 21.3817 28.4851 21.3641Z" fill="#1188EE"/>
<path fill-rule="evenodd" clip-rule="evenodd" d="M17.9822 9.76021L15.8826 10.4094L21.5848 28.9826L23.6845 28.3334L17.9822 9.76021Z" fill="#1188EE"/>
<path fill-rule="evenodd" clip-rule="evenodd" d="M47.3521 4.5062C47.2163 4.51012 47.0824 4.53923 46.9571 4.59205L37.6137 8.37548C37.4404 8.44597 37.2879 8.55951 37.1707 8.70546C37.0535 8.85141 36.9754 9.02496 36.9439 9.20956L33.5732 28.677C33.5487 28.8196 33.5524 28.9656 33.5843 29.1067C33.6161 29.2478 33.6754 29.3814 33.7587 29.4996C33.927 29.7382 34.1831 29.9001 34.4706 29.9496C34.613 29.9742 34.7588 29.9705 34.8997 29.9386C35.0407 29.9068 35.174 29.8474 35.292 29.764C35.5303 29.5954 35.6921 29.339 35.7416 29.0511L39.0049 10.1855L47.7815 6.63424C48.0244 6.54119 48.2265 6.36499 48.3518 6.13686C48.4772 5.90873 48.5177 5.64346 48.4662 5.38824C48.4147 5.13301 48.2745 4.90431 48.0706 4.7428C47.8666 4.58128 47.612 4.49755 47.3521 4.5062Z" fill="#1188EE"/>
<path fill-rule="evenodd" clip-rule="evenodd" d="M15.5906 2.85977C15.4355 2.86556 15.2833 2.90427 15.1442 2.97317C15.0051 3.04207 14.8821 3.13969 14.7833 3.25961L7.70707 11.7895C7.55931 11.9687 7.47195 12.1899 7.45751 12.4218C7.44307 12.6537 7.50228 12.8843 7.62667 13.0804C7.75106 13.2766 7.93424 13.4283 8.14999 13.5138C8.36574 13.5994 8.60299 13.6143 8.82777 13.5566L26.3467 9.01645C26.5723 8.95784 26.7734 8.82915 26.9211 8.64858C27.0688 8.46802 27.1553 8.24503 27.1682 8.01201C27.1811 7.77899 27.1197 7.54786 26.9929 7.35206C26.866 7.15626 26.6803 7.00588 26.4626 6.92266L16.0199 2.93286C15.8831 2.88022 15.7371 2.85507 15.5906 2.85977ZM15.9727 5.26728L22.4607 7.74814L11.5758 10.5685L15.9727 5.26728Z" fill="#1188EE"/>
<path fill-rule="evenodd" clip-rule="evenodd" d="M14.7533 0.000858124C14.5809 0.00767242 14.4125 0.0549397 14.2618 0.138975C14.1111 0.22301 13.9822 0.341399 13.8857 0.484536C13.7891 0.627672 13.7275 0.791597 13.7059 0.962973C13.6844 1.13435 13.7034 1.30844 13.7614 1.4711L14.6545 4.11077C14.6989 4.25 14.7705 4.37897 14.8652 4.49019C14.9599 4.60142 15.0757 4.69271 15.206 4.75863C15.3362 4.82455 15.4783 4.86382 15.6239 4.87418C15.7695 4.88454 15.9157 4.86577 16.054 4.81896C16.1922 4.77214 16.3198 4.69827 16.4292 4.60157C16.5387 4.50487 16.6278 4.38729 16.6914 4.25574C16.7549 4.12419 16.7917 3.98128 16.7996 3.83535C16.8074 3.68941 16.7862 3.5433 16.737 3.40568L15.8439 0.766009C15.7708 0.53656 15.6245 0.337377 15.4275 0.199166C15.2305 0.0609553 14.9936 -0.00864243 14.7533 0.000858124Z" fill="#1188EE"/>
<path fill-rule="evenodd" clip-rule="evenodd" d="M7.71995 34.301C7.61577 34.3088 7.51598 34.3464 7.43227 34.409L1.01726 38.9792C0.958338 39.0213 0.908264 39.0744 0.869901 39.1359C0.831538 39.1973 0.805636 39.2657 0.793675 39.3371C0.781714 39.4086 0.783927 39.4818 0.800189 39.5524C0.81645 39.623 0.846442 39.6898 0.88845 39.7488C0.930459 39.8078 0.983663 39.8579 1.04502 39.8963C1.10638 39.9347 1.1747 39.9606 1.24607 39.9726C1.31744 39.9846 1.39047 39.9825 1.46098 39.9662C1.5315 39.9499 1.59812 39.9198 1.65705 39.8778L8.06776 35.3033C8.16654 35.2348 8.24021 35.1357 8.27747 35.0214C8.31474 34.907 8.31356 34.7835 8.27411 34.6699C8.23466 34.5563 8.15912 34.4589 8.05904 34.3923C7.95896 34.3258 7.83986 34.2933 7.71995 34.301Z" fill="#1188EE"/>
<path fill-rule="evenodd" clip-rule="evenodd" d="M9.83252 36.7343C9.72846 36.7468 9.63014 36.789 9.54913 36.8555L2.26248 42.5954C2.20126 42.6384 2.14943 42.6933 2.11015 42.7569C2.07088 42.8206 2.04498 42.8917 2.03405 42.9657C2.02312 43.0398 2.02739 43.1151 2.04658 43.1874C2.06578 43.2597 2.09951 43.3274 2.1457 43.3863C2.1919 43.4451 2.24959 43.494 2.31526 43.5297C2.38092 43.5655 2.45318 43.5874 2.52761 43.5942C2.60203 43.6011 2.67707 43.5927 2.74814 43.5695C2.8192 43.5463 2.88479 43.5088 2.9409 43.4593L10.2276 37.7197C10.3231 37.6467 10.3922 37.5442 10.424 37.4282C10.4559 37.3121 10.4489 37.1887 10.4041 37.077C10.3593 36.9652 10.2791 36.8713 10.1758 36.8096C10.0726 36.7479 9.95201 36.7209 9.83252 36.7343Z" fill="#1188EE"/>
<path fill-rule="evenodd" clip-rule="evenodd" d="M12.7781 38.7765C12.6543 38.7829 12.5363 38.831 12.4432 38.913L3.60216 46.5014C3.54583 46.548 3.49937 46.6056 3.46548 46.6704C3.43159 46.7353 3.41096 46.8063 3.40479 46.8792C3.39862 46.9521 3.40704 47.0254 3.42956 47.095C3.45208 47.1646 3.48824 47.2292 3.53592 47.2847C3.58361 47.3402 3.64186 47.3856 3.70728 47.4182C3.7727 47.4509 3.84396 47.4699 3.9169 47.4747C3.98984 47.4794 4.06299 47.4696 4.13207 47.4456C4.20116 47.4217 4.26478 47.3843 4.31923 47.3355L13.1603 39.7482C13.2487 39.674 13.3117 39.574 13.3401 39.462C13.3686 39.3501 13.3612 39.232 13.3189 39.1245C13.2766 39.017 13.2017 38.9255 13.1046 38.8631C13.0075 38.8006 12.8933 38.7704 12.7781 38.7765Z" fill="#1188EE"/>
<path fill-rule="evenodd" clip-rule="evenodd" d="M15.0109 41.7904C14.8865 41.798 14.7684 41.8476 14.676 41.9312L5.54297 49.9065C5.4859 49.9531 5.43876 50.0106 5.40436 50.0758C5.36996 50.141 5.34901 50.2127 5.34274 50.2862C5.33648 50.3597 5.34503 50.4334 5.36788 50.5036C5.39074 50.5737 5.42744 50.6384 5.4758 50.6941C5.52416 50.7497 5.58319 50.7953 5.64939 50.8276C5.7156 50.86 5.78761 50.8785 5.86117 50.8824C5.93473 50.8864 6.00832 50.8756 6.07758 50.8505C6.14684 50.8254 6.21035 50.7864 6.26434 50.7363L15.3973 42.761C15.4862 42.6866 15.5493 42.5858 15.5777 42.4734C15.6062 42.361 15.5984 42.2426 15.5555 42.1349C15.5127 42.0271 15.437 41.9358 15.3392 41.8737C15.2414 41.8116 15.1265 41.7832 15.0109 41.7904Z" fill="#1188EE"/>
<path fill-rule="evenodd" clip-rule="evenodd" d="M17.4541 44.5162C17.3296 44.5198 17.21 44.5655 17.1149 44.646L7.11023 52.9139C6.99749 53.0068 6.92624 53.1408 6.91216 53.2863C6.89807 53.4319 6.94229 53.5768 7.03511 53.6897C7.12792 53.8026 7.26171 53.8741 7.40706 53.8883C7.5524 53.9024 7.69739 53.8578 7.81012 53.7649L17.8148 45.4973C17.905 45.4251 17.9703 45.3265 18.0013 45.2151C18.0324 45.1037 18.0276 44.9853 17.9876 44.8768C17.9477 44.7683 17.8747 44.6751 17.7789 44.6105C17.6832 44.5459 17.5695 44.5125 17.4541 44.5162Z" fill="#1188EE"/>
<path fill-rule="evenodd" clip-rule="evenodd" d="M19.7728 47.9213C19.6676 47.9271 19.5662 47.963 19.4808 48.0248L9.17986 55.3208C9.12092 55.3625 9.07079 55.4154 9.0323 55.4766C8.99382 55.5378 8.96775 55.6061 8.95559 55.6774C8.94342 55.7486 8.94539 55.8215 8.96139 55.8921C8.97739 55.9626 9.00711 56.0292 9.04884 56.0882C9.09057 56.1472 9.1435 56.1975 9.20461 56.236C9.26571 56.2745 9.3338 56.3004 9.40498 56.3126C9.47616 56.3248 9.54903 56.323 9.61944 56.3069C9.68986 56.2909 9.75642 56.2611 9.81535 56.2193L20.1163 48.9233C20.2146 48.855 20.288 48.7564 20.3253 48.6425C20.3626 48.5286 20.3618 48.4058 20.3229 48.2924C20.2841 48.179 20.2093 48.0815 20.11 48.0146C20.0107 47.9476 19.8923 47.9147 19.7728 47.9213Z" fill="#1188EE"/>
<path fill-rule="evenodd" clip-rule="evenodd" d="M22.7226 49.8646C22.5983 49.8635 22.4772 49.9046 22.3791 49.9812L12.7609 57.2775C12.6448 57.3659 12.5685 57.4966 12.5487 57.6413C12.529 57.7861 12.5675 57.9327 12.6558 58.049C12.744 58.1653 12.8748 58.2418 13.0193 58.2615C13.1639 58.2813 13.3103 58.2427 13.4265 58.1543L23.0447 50.8586C23.1375 50.79 23.2064 50.6939 23.2417 50.584C23.2769 50.474 23.2767 50.3555 23.2411 50.2456C23.2055 50.1358 23.1363 50.0398 23.0432 49.9716C22.9502 49.9033 22.838 49.8655 22.7226 49.8646Z" fill="#1188EE"/>
<path fill-rule="evenodd" clip-rule="evenodd" d="M25.6468 51.9068C25.5224 51.9057 25.4013 51.9467 25.3033 52.0234L14.9036 59.7064C14.8441 59.7488 14.7937 59.8026 14.7553 59.8647C14.7169 59.9267 14.6912 59.9957 14.6797 60.0678C14.6682 60.1399 14.6712 60.2137 14.6884 60.2846C14.7057 60.3556 14.7369 60.4226 14.7802 60.4813C14.8235 60.5401 14.8781 60.5895 14.9408 60.627C15.0034 60.6644 15.0729 60.6892 15.1451 60.6995C15.2173 60.7098 15.2909 60.7054 15.3615 60.6869C15.432 60.6684 15.4983 60.6361 15.5562 60.5918L25.9559 52.9048C26.0497 52.8375 26.12 52.7422 26.1568 52.6326C26.1935 52.523 26.1949 52.4047 26.1607 52.2943C26.1265 52.1839 26.0584 52.087 25.9662 52.0175C25.8739 51.948 25.7622 51.9091 25.6468 51.9068Z" fill="#1188EE"/>
<path fill-rule="evenodd" clip-rule="evenodd" d="M28.5709 54.2413C28.4272 54.2353 28.287 54.2858 28.1801 54.3821L19.7298 61.7773C19.6728 61.8239 19.6256 61.8814 19.5912 61.9466C19.5568 62.0118 19.5359 62.0835 19.5296 62.157C19.5233 62.2305 19.5319 62.3043 19.5547 62.3744C19.5776 62.4445 19.6143 62.5093 19.6627 62.5649C19.711 62.6205 19.7701 62.6661 19.8363 62.6984C19.9025 62.7308 19.9745 62.7493 20.048 62.7533C20.1216 62.7572 20.1952 62.7464 20.2644 62.7213C20.3337 62.6962 20.3972 62.6572 20.4512 62.6071L28.9058 55.2122C28.991 55.1406 29.0525 55.0446 29.0822 54.9373C29.1118 54.83 29.1083 54.7164 29.072 54.6111C29.0357 54.5058 28.9684 54.4139 28.8789 54.3477C28.7894 54.2816 28.682 54.2451 28.5709 54.2413Z" fill="#1188EE"/>
<path fill-rule="evenodd" clip-rule="evenodd" d="M32.1133 56.8683C31.9706 56.8762 31.8367 56.9392 31.7397 57.0443L25.5222 63.5624C25.4723 63.6146 25.4332 63.6761 25.407 63.7435C25.3809 63.8109 25.3683 63.8827 25.3699 63.955C25.3715 64.0272 25.3873 64.0984 25.4163 64.1646C25.4454 64.2307 25.4873 64.2906 25.5394 64.3406C25.5916 64.3905 25.653 64.4297 25.7203 64.4559C25.7876 64.482 25.8594 64.4945 25.9316 64.4929C26.0037 64.4913 26.0749 64.4756 26.1409 64.4464C26.207 64.4173 26.2667 64.3756 26.3166 64.3234L32.5341 57.8053C32.6124 57.7263 32.665 57.6254 32.6848 57.5159C32.7047 57.4064 32.691 57.2934 32.6454 57.1918C32.5998 57.0903 32.5245 57.0051 32.4296 56.9473C32.3346 56.8895 32.2243 56.8621 32.1133 56.8683Z" fill="#1188EE"/>
</svg>
