<svg width="60" height="61" viewBox="0 0 60 61" fill="none" xmlns="http://www.w3.org/2000/svg">
<path fill-rule="evenodd" clip-rule="evenodd" d="M30.7412 13.8199C28.03 13.6107 25.221 14.203 22.8119 15.4333C19.9585 16.8907 17.3181 19.1432 15.6908 21.9973C14.0578 24.8618 13.2716 28.3434 13.649 31.6474C14.1001 35.5975 15.7425 39.7498 18.7537 42.5406C21.9924 45.5424 26.6537 47.4983 31.1411 47.189C35.6956 46.8752 40.0608 44.2279 42.9244 40.8081C45.3523 37.9087 46.4236 33.9657 46.4467 30.3066C46.4617 26.1671 45.5205 21.4213 42.4693 18.2425C39.4317 15.0781 34.7626 14.1341 30.7412 13.8242V13.8199ZM30.5711 15.9952C34.3652 16.2877 38.5027 17.257 40.8953 19.7497C43.3313 22.2873 44.2824 26.5074 44.2687 30.2938C44.2482 33.5266 43.2526 37.0243 41.2569 39.4076C38.7479 42.404 34.7791 44.7525 30.9879 45.0138C27.2524 45.2712 23.0423 43.5473 20.234 40.9443C17.7348 38.628 16.2117 34.9176 15.8099 31.4006C15.4921 28.6174 16.1786 25.5316 17.5796 23.0742C18.944 20.681 21.2747 18.6638 23.7988 17.3744C25.8441 16.33 28.2959 15.8197 30.5711 15.9952Z" fill="#1188EE"/>
<path fill-rule="evenodd" clip-rule="evenodd" d="M32.0769 0.0574123C23.9609 -0.501625 15.3876 3.07315 9.48012 8.54561C4.03715 13.5879 0.99586 21.204 0.168286 28.4462C-0.515978 34.4341 0.918315 40.8163 3.89047 46.0268C6.83835 51.1943 11.6725 55.3245 16.899 57.9927C21.274 60.226 26.4081 61.304 31.3197 60.9256C38.7902 60.3502 47.3424 58.5639 52.7765 52.9058C58.2499 47.2073 60.0273 38.5062 59.9997 30.8726C59.9592 24.1748 57.9775 16.9534 53.5975 11.7254C48.3626 5.47708 40.3144 0.629558 32.0769 0.0618021V0.0574123ZM31.9281 2.22852C39.4027 2.74375 47.0456 7.29679 51.9257 13.1217C55.8736 17.8337 57.7838 24.6103 57.8217 30.8811C57.848 38.1616 56.0647 46.3369 51.2068 51.3946C46.4178 56.3811 38.3929 58.1967 31.1496 58.7546C26.6736 59.0994 21.9013 58.0992 17.8901 56.0516C12.9928 53.5517 8.46834 49.6521 5.78346 44.9456C3.04357 40.1422 1.70881 34.1599 2.33353 28.6931C3.11158 21.8841 6.0296 14.7142 10.9605 10.1462C16.4375 5.07255 24.5637 1.72113 31.9281 2.22852Z" fill="#1188EE"/>
<path fill-rule="evenodd" clip-rule="evenodd" d="M17.4392 4.00366L15.559 5.10617L22.6375 17.2296L24.5177 16.127L17.4392 4.00366Z" fill="#1188EE"/>
<path fill-rule="evenodd" clip-rule="evenodd" d="M43.9071 4.63367L36.4202 15.9397L38.2324 17.1444L45.7193 5.83834L43.9071 4.63367Z" fill="#1188EE"/>
<path fill-rule="evenodd" clip-rule="evenodd" d="M53.9166 14.518L43.0265 21.0564L44.1496 22.9252L55.0396 16.3867L53.9166 14.518Z" fill="#1188EE"/>
<path fill-rule="evenodd" clip-rule="evenodd" d="M44.5537 35.8999L43.4392 37.7729L56.235 45.4011L57.3495 43.5281L44.5537 35.8999Z" fill="#1188EE"/>
<path fill-rule="evenodd" clip-rule="evenodd" d="M39.5766 42.8725L37.5262 43.609L42.4267 57.2307L44.4771 56.4943L39.5766 42.8725Z" fill="#1188EE"/>
<path fill-rule="evenodd" clip-rule="evenodd" d="M21.4124 43.6473L14.6061 55.362L16.4863 56.456L23.2926 44.7413L21.4124 43.6473Z" fill="#1188EE"/>
<path fill-rule="evenodd" clip-rule="evenodd" d="M16.3757 36.5682L4.26056 43.3791L5.32404 45.2819L17.4392 38.471L16.3757 36.5682Z" fill="#1188EE"/>
<path fill-rule="evenodd" clip-rule="evenodd" d="M5.36658 15.1267L4.32862 17.0423L15.627 23.1721L16.665 21.2565L5.36658 15.1267Z" fill="#1188EE"/>
<path fill-rule="evenodd" clip-rule="evenodd" d="M7.06389 18.9877C6.94025 18.9831 6.81872 19.0209 6.71932 19.0947L2.15912 22.3639C2.04177 22.4486 1.96284 22.5764 1.9397 22.7193C1.91655 22.8622 1.95109 23.0084 2.0357 23.1259C2.12032 23.2433 2.24809 23.3222 2.3909 23.3454C2.53371 23.3685 2.67986 23.334 2.79721 23.2493L7.35741 19.9801C7.45152 19.9147 7.52263 19.8214 7.56063 19.7132C7.59863 19.6051 7.60158 19.4877 7.56907 19.3778C7.53656 19.2678 7.47023 19.1711 7.37954 19.1011C7.28884 19.031 7.17839 18.9913 7.06389 18.9877Z" fill="#1188EE"/>
<path fill-rule="evenodd" clip-rule="evenodd" d="M7.79982 20.6903C7.65777 20.6879 7.52038 20.741 7.41697 20.8385L1.35938 26.4235C1.30659 26.4721 1.26388 26.5307 1.2337 26.5959C1.20352 26.661 1.18646 26.7314 1.18349 26.8031C1.18053 26.8749 1.19172 26.9464 1.21642 27.0138C1.24112 27.0812 1.27885 27.1432 1.32746 27.1961C1.37606 27.2489 1.43459 27.2917 1.4997 27.3219C1.56481 27.3521 1.63523 27.369 1.70692 27.3719C1.77862 27.3749 1.8502 27.3637 1.91757 27.3389C1.98494 27.3142 2.04678 27.2764 2.09957 27.2277L8.15715 21.6428C8.23989 21.5697 8.2985 21.4735 8.32522 21.3664C8.35193 21.2592 8.34549 21.1462 8.30674 21.0429C8.268 20.9395 8.19878 20.8503 8.10825 20.7872C8.01773 20.724 7.91017 20.6909 7.79982 20.6903Z" fill="#1188EE"/>
<path fill-rule="evenodd" clip-rule="evenodd" d="M8.6421 23.0743C8.52038 23.0827 8.40503 23.1318 8.31454 23.2137L0.487331 30.0929C0.430428 30.139 0.383382 30.1959 0.349005 30.2605C0.314627 30.3252 0.293623 30.3962 0.287246 30.4691C0.280869 30.5421 0.289251 30.6155 0.311891 30.6852C0.33453 30.7548 0.370964 30.8191 0.419014 30.8743C0.467064 30.9295 0.525746 30.9745 0.591554 31.0065C0.657361 31.0386 0.728945 31.0571 0.802029 31.0608C0.875112 31.0645 0.948196 31.0535 1.01692 31.0284C1.08563 31.0032 1.14858 30.9643 1.20199 30.9142L9.03346 24.0355C9.1223 23.9615 9.18531 23.8609 9.21335 23.7487C9.24138 23.6365 9.233 23.5182 9.18941 23.4111C9.14583 23.3039 9.06929 23.2135 8.9709 23.1527C8.8725 23.092 8.75734 23.0651 8.6421 23.0743Z" fill="#1188EE"/>
<path fill-rule="evenodd" clip-rule="evenodd" d="M9.09727 25.7304C8.95582 25.7267 8.81851 25.7782 8.71441 25.8741L1.02332 32.8212C0.916176 32.9183 0.851956 33.0542 0.84479 33.1987C0.837624 33.3432 0.888098 33.4844 0.985112 33.5916C1.08213 33.6989 1.21773 33.7632 1.36211 33.7704C1.50649 33.7776 1.64781 33.727 1.755 33.63L9.44609 26.6828C9.52833 26.6103 9.58676 26.5146 9.61374 26.4083C9.64072 26.3019 9.63498 26.1899 9.59729 26.0869C9.5596 25.9839 9.4917 25.8947 9.40249 25.831C9.31327 25.7672 9.20689 25.7327 9.09727 25.7304Z" fill="#1188EE"/>
<path fill-rule="evenodd" clip-rule="evenodd" d="M9.87148 28.3866C9.7503 28.3939 9.63501 28.4415 9.54393 28.5218L1.24027 35.6732C1.18448 35.7194 1.13844 35.7761 1.10487 35.8403C1.0713 35.9045 1.05086 35.9748 1.04475 36.047C1.03864 36.1192 1.04698 36.192 1.06929 36.2609C1.09159 36.3298 1.12742 36.3936 1.17466 36.4485C1.2219 36.5034 1.27961 36.5484 1.34442 36.5807C1.40923 36.613 1.47983 36.6321 1.55209 36.6368C1.62435 36.6415 1.69682 36.6318 1.76526 36.6081C1.8337 36.5844 1.89674 36.5474 1.95068 36.499L10.2543 29.3476C10.3424 29.274 10.4049 29.1745 10.4331 29.0632C10.4612 28.9519 10.4535 28.8346 10.4111 28.728C10.3686 28.6213 10.2936 28.5306 10.1967 28.4691C10.0998 28.4076 9.98598 28.3795 9.87148 28.3866Z" fill="#1188EE"/>
<path fill-rule="evenodd" clip-rule="evenodd" d="M10.8244 31.4515C10.7017 31.4578 10.5848 31.5055 10.4926 31.5867L2.12084 38.8062C2.01143 38.9011 1.94415 39.0355 1.93379 39.18C1.92343 39.3245 1.97085 39.4669 2.06561 39.5764C2.16037 39.6859 2.29471 39.7533 2.43909 39.7637C2.58347 39.7741 2.72606 39.7268 2.83549 39.632L11.2072 32.4125C11.2952 32.3389 11.3578 32.2391 11.3859 32.1278C11.4141 32.0165 11.4064 31.8992 11.3639 31.7926C11.3215 31.6859 11.2465 31.5955 11.1496 31.534C11.0527 31.4725 10.9389 31.4444 10.8244 31.4515Z" fill="#1188EE"/>
<path fill-rule="evenodd" clip-rule="evenodd" d="M11.4454 34.857C11.323 34.8627 11.2061 34.9093 11.1136 34.9897L3.15028 41.6644C3.09526 41.7102 3.04979 41.7667 3.01648 41.8302C2.98318 41.8936 2.96268 41.9629 2.95616 42.0342C2.94965 42.1056 2.95724 42.1773 2.9785 42.2457C2.99977 42.3141 3.0343 42.3777 3.08011 42.4328C3.12592 42.4878 3.18212 42.5335 3.2455 42.5669C3.30888 42.6002 3.3782 42.6205 3.4495 42.627C3.5208 42.6335 3.59269 42.6259 3.66105 42.6046C3.72941 42.5833 3.79291 42.5489 3.84793 42.503L11.8113 35.8283C11.9014 35.7565 11.9664 35.658 11.997 35.5468C12.0276 35.4357 12.0222 35.3176 11.9815 35.2098C11.9409 35.1019 11.8671 35.0096 11.7707 34.9464C11.6744 34.8831 11.5605 34.8514 11.4454 34.857Z" fill="#1188EE"/>
</svg>
