<svg width="50" height="52" viewBox="0 0 50 52" fill="none" xmlns="http://www.w3.org/2000/svg">
<path fill-rule="evenodd" clip-rule="evenodd" d="M11.5548 9.14706C11.4075 9.14199 11.2607 9.16717 11.1234 9.22075C10.9861 9.27433 10.8612 9.35524 10.7565 9.45867C10.7565 9.45867 6.62984 13.5064 4.66961 15.8216C3.50127 17.201 2.06356 18.6286 1.16786 20.538C0.484186 21.9952 -0.0441075 23.6645 0.0189142 25.4144C0.078653 27.0612 0.74832 28.5069 1.37062 29.7602C2.32804 31.6886 4.65694 34.4471 4.65694 34.4471C4.74707 34.5566 4.85795 34.6472 4.98325 34.714C5.10856 34.7808 5.24583 34.8225 5.38724 34.8364C5.52865 34.8503 5.67142 34.8361 5.8074 34.795C5.94337 34.7539 6.0699 34.6865 6.17974 34.5966C6.28958 34.5067 6.38059 34.3962 6.44758 34.2713C6.51456 34.1464 6.5562 34.0096 6.57012 33.8686C6.58404 33.7276 6.56998 33.5852 6.52872 33.4496C6.48746 33.314 6.41983 33.188 6.32967 33.0785C6.32967 33.0785 3.97538 30.1453 3.30946 28.8043C2.71588 27.6087 2.21673 26.4224 2.17741 25.3386C2.1323 24.0859 2.53463 22.7163 3.12783 21.4518C3.81395 19.9891 5.08072 18.6761 6.32122 17.2112C7.86485 15.3883 10.5719 12.7248 11.4535 11.8506C12.2494 12.7477 14.4163 15.1543 15.5381 16.828C16.6303 18.4578 17.7007 20.0293 18.1697 21.6707C18.6187 23.2416 18.7508 24.9545 18.4781 26.5261C18.3052 27.5183 17.8319 28.5318 17.2151 29.4401C16.9508 29.8293 16.2547 30.5503 15.6564 31.1035C15.0581 31.6565 14.5539 32.0721 14.5539 32.0721C14.4444 32.1625 14.3537 32.2736 14.2872 32.3989C14.2207 32.5243 14.1796 32.6615 14.1662 32.8027C14.1529 32.9438 14.1676 33.0862 14.2094 33.2217C14.2513 33.3572 14.3195 33.483 14.4102 33.5923C14.5009 33.7015 14.6123 33.792 14.738 33.8583C14.8638 33.9246 15.0014 33.9656 15.143 33.9789C15.2846 33.9922 15.4274 33.9775 15.5634 33.9357C15.6993 33.894 15.8256 33.8259 15.9352 33.7354C15.9352 33.7354 16.4805 33.2797 17.1264 32.6827C17.7723 32.0854 18.5126 31.3755 19.0061 30.6487C19.7496 29.5541 20.3689 28.2878 20.6112 26.8967C20.948 24.9562 20.7787 22.9422 20.248 21.0854C19.6469 18.9817 18.415 17.2441 17.3376 15.6363C15.7818 13.3151 12.3194 9.50921 12.3194 9.50921C12.2226 9.40146 12.105 9.31435 11.9736 9.25286C11.8423 9.19137 11.6999 9.157 11.5548 9.15153V9.14706Z" fill="#1188EE"/>
<path fill-rule="evenodd" clip-rule="evenodd" d="M14.4906 0.114235C11.7084 -0.415509 9.12494 1.00641 7.07311 2.13554C5.15768 3.18964 3.31475 4.65741 2.09293 6.60348C0.724921 8.78239 0.18219 11.3556 0.0189143 13.7749C-0.0773333 15.2096 0.210642 17.0188 0.500458 18.5502C0.790274 20.0817 1.10028 21.3043 1.10028 21.3043L3.19541 20.7779C3.19541 20.7779 2.90166 19.6111 2.62516 18.1502C2.34867 16.689 2.11146 14.9012 2.17741 13.9181C2.32557 11.7228 2.83301 9.49012 3.92618 7.74888C4.88309 6.22498 6.44122 4.9464 8.12068 4.0221C10.13 2.91625 12.3108 1.89476 14.0851 2.2324C15.6849 2.53705 17.2912 4.00391 18.3598 5.58861C19.4727 7.23886 19.9919 9.45644 19.9945 11.5599C19.9962 12.9639 19.0539 14.555 18.5879 16.5584C18.3019 17.7887 17.9036 20.0957 17.9036 20.0957L20.0368 20.4621C20.0368 20.4621 20.4471 18.1119 20.6957 17.0427H20.6914C21.0459 15.5184 22.1598 13.7772 22.1572 11.5599C22.1541 9.11707 21.5863 6.50668 20.1549 4.38425C18.8913 2.51042 16.9969 0.591372 14.4906 0.114235Z" fill="#1188EE"/>
<path fill-rule="evenodd" clip-rule="evenodd" d="M1.75078 29.5748C1.75078 29.5748 0.489702 36.5993 0.589164 40.4604C0.643308 42.5966 0.36514 45.2974 1.80992 47.5813H1.8057C3.17304 49.7434 5.50874 51.4217 8.07422 51.8808C10.4975 52.3141 12.9856 51.4738 14.8919 50.1879C17.0629 48.7237 18.6197 46.4189 19.4243 44.0145C20.2669 41.4962 19.6518 38.9793 19.5721 36.8683C19.4876 34.5905 18.9934 30.3078 18.9934 30.3078L16.8434 30.552C16.8434 30.552 17.3377 34.8922 17.4136 36.9486C17.5033 39.3444 17.96 41.5732 17.3714 43.3323C16.704 45.3271 15.3659 47.2637 13.6838 48.3985C12.1595 49.4265 10.1121 50.0545 8.45862 49.7587C6.60522 49.4273 4.66618 48.0558 3.63895 46.4317C2.70863 44.961 2.81022 42.7068 2.7519 40.4059C2.6671 37.114 3.88395 29.9456 3.88395 29.9456L1.75078 29.5748Z" fill="#1188EE"/>
<path fill-rule="evenodd" clip-rule="evenodd" d="M11.4239 6.75086C11.1371 6.74977 10.8616 6.86213 10.658 7.06353C10.4544 7.26493 10.3394 7.53876 10.3383 7.82468L10.2918 10.3008C10.289 10.4424 10.3142 10.5829 10.3659 10.7148C10.4176 10.8467 10.4949 10.9672 10.5933 11.0693C10.6917 11.1714 10.8093 11.2533 10.9394 11.3101C11.0695 11.3669 11.2096 11.3976 11.3516 11.4004C11.4936 11.4032 11.6348 11.378 11.767 11.3264C11.8993 11.2749 12.0201 11.1979 12.1226 11.0998C12.225 11.0017 12.307 10.8845 12.364 10.7548C12.4209 10.6251 12.4517 10.4855 12.4546 10.3439L12.501 7.86363C12.5056 7.7196 12.4811 7.57591 12.429 7.44147C12.377 7.30703 12.2984 7.18456 12.198 7.0809C12.0976 6.97725 11.9773 6.89451 11.8444 6.83798C11.7114 6.78144 11.5684 6.75137 11.4239 6.75086Z" fill="#1188EE"/>
<path fill-rule="evenodd" clip-rule="evenodd" d="M38.4622 9.14688C38.3143 9.15009 38.1686 9.18349 38.0342 9.24505C37.8998 9.30661 37.7795 9.39506 37.6807 9.50482C37.6807 9.50482 34.2183 13.3107 32.6625 15.6319C31.5851 17.2397 30.3532 18.9774 29.7521 21.081C29.2214 22.9378 29.0521 24.9518 29.3889 26.8923C29.6312 28.2834 30.2505 29.5494 30.994 30.6441C31.4875 31.3709 32.2278 32.081 32.8737 32.6783C33.5196 33.2753 34.0649 33.731 34.0649 33.731C34.1745 33.8215 34.3008 33.8896 34.4367 33.9313C34.5727 33.9731 34.7155 33.9875 34.8571 33.9742C34.9987 33.9609 35.1363 33.92 35.2621 33.8537C35.3878 33.7874 35.4992 33.6971 35.5899 33.5879C35.6806 33.4786 35.7488 33.3525 35.7907 33.217C35.8325 33.0815 35.8472 32.9392 35.8339 32.798C35.8205 32.6569 35.7794 32.5196 35.7129 32.3943C35.6464 32.269 35.5557 32.1581 35.4462 32.0677C35.4462 32.0677 34.942 31.6522 34.3437 31.0991C33.7454 30.5459 33.0493 29.8249 32.785 29.4358C32.1682 28.5274 31.6949 27.5137 31.522 26.5214C31.2493 24.9499 31.3813 23.2373 31.8304 21.6664C32.2994 20.0249 33.3698 18.4534 34.462 16.8236C35.5838 15.1499 37.7507 12.7433 38.5466 11.8462C39.4282 12.7205 42.1352 15.3839 43.6789 17.2068C44.9194 18.6717 46.1861 19.9847 46.8723 21.4474C47.4655 22.7119 47.8678 24.0813 47.8227 25.3339C47.7834 26.4178 47.2842 27.6044 46.6906 28.7999C46.0247 30.141 43.6704 33.0741 43.6704 33.0741C43.5803 33.1836 43.5127 33.3097 43.4714 33.4452C43.4302 33.5808 43.4161 33.723 43.43 33.864C43.4439 34.0049 43.4856 34.142 43.5526 34.2669C43.6196 34.3918 43.7106 34.5023 43.8204 34.5922C43.9302 34.6821 44.0568 34.7493 44.1927 34.7904C44.3287 34.8315 44.4715 34.8456 44.6129 34.8317C44.7543 34.8178 44.8915 34.7764 45.0168 34.7096C45.1422 34.6428 45.253 34.552 45.3432 34.4424C45.3432 34.4424 47.6721 31.6839 48.6295 29.7555C49.2518 28.5022 49.9214 27.0568 49.9812 25.41C50.0442 23.6601 49.5159 21.9909 48.8322 20.5336C47.9365 18.6242 46.4988 17.1966 45.3305 15.8172C43.3703 13.502 39.2436 9.45429 39.2436 9.45429C39.1408 9.35293 39.0187 9.27303 38.8845 9.21952C38.7503 9.16601 38.6067 9.1399 38.4622 9.14267V9.14688Z" fill="#1188EE"/>
<path fill-rule="evenodd" clip-rule="evenodd" d="M35.5095 0.114235C33.0032 0.591372 31.1087 2.51042 29.8451 4.38425C28.4137 6.50668 27.8459 9.11707 27.8428 11.5599C27.8403 13.7772 28.9541 15.5184 29.3086 17.0427H29.3043C29.5529 18.1119 29.9632 20.4621 29.9632 20.4621L32.0964 20.0957C32.0964 20.0957 31.6981 17.7887 31.4121 16.5584C30.9461 14.555 30.0038 12.9639 30.0055 11.5599C30.0081 9.45644 30.5273 7.23886 31.6402 5.58861C32.7088 4.00391 34.3151 2.53705 35.9149 2.2324C37.6892 1.89476 39.87 2.91625 41.8793 4.0221C43.5588 4.9464 45.1169 6.22498 46.0738 7.74888C47.167 9.49012 47.6744 11.7228 47.8226 13.9181C47.8885 14.9012 47.6513 16.689 47.3748 18.1502C47.0983 19.6111 46.8046 20.7779 46.8046 20.7779L48.8997 21.3043C48.8997 21.3043 49.2097 20.0817 49.4995 18.5502C49.7894 17.0188 50.0773 15.2096 49.9811 13.7749C49.8178 11.3556 49.2751 8.78239 47.9071 6.60348C46.6853 4.65741 44.8423 3.18964 42.9269 2.13554C40.8751 1.00641 38.2917 -0.415509 35.5095 0.114235Z" fill="#1188EE"/>
<path fill-rule="evenodd" clip-rule="evenodd" d="M48.2493 29.5748L46.1162 29.9454C46.1162 29.9454 47.333 37.1138 47.2482 40.4056C47.1899 42.7066 47.2915 44.961 46.3612 46.4317C45.3339 48.0558 43.3949 49.427 41.5415 49.7584C39.8881 50.0542 37.8406 49.4262 36.3163 48.3982C34.6342 47.2635 33.2961 45.3271 32.6287 43.3323C32.0401 41.5732 32.4968 39.3442 32.5865 36.9484C32.6624 34.8919 33.1567 30.5518 33.1567 30.5518L31.0067 30.3075C31.0067 30.3075 30.5121 34.5955 30.428 36.8726C30.3484 38.9836 29.7333 41.5004 30.5758 44.0187C31.3804 46.4232 32.9372 48.7277 35.1082 50.1919C37.0145 51.4777 39.5026 52.3183 41.9259 51.885C44.4914 51.426 46.8271 49.7473 48.1944 47.5852H48.1901C49.6349 45.3013 49.3567 42.6005 49.4108 40.4643C49.5103 36.6032 48.2492 29.579 48.2492 29.579L48.2493 29.5748Z" fill="#1188EE"/>
<path fill-rule="evenodd" clip-rule="evenodd" d="M38.5424 6.75072C38.2563 6.76064 37.9858 6.88313 37.7902 7.09155C37.5946 7.29998 37.4899 7.57718 37.4991 7.86244L37.5455 10.3428C37.5513 10.6287 37.6707 10.9008 37.8775 11.0989C38.0844 11.297 38.3617 11.4049 38.6485 11.3992C38.9353 11.3935 39.2081 11.2746 39.4068 11.0684C39.6056 10.8622 39.714 10.5855 39.7082 10.2996L39.6618 7.82375C39.6613 7.67929 39.6317 7.53628 39.5748 7.40344C39.5178 7.27059 39.4347 7.15067 39.3302 7.0505C39.2258 6.95032 39.1023 6.87211 38.9669 6.82047C38.8316 6.76882 38.6872 6.74566 38.5424 6.75072Z" fill="#1188EE"/>
<path fill-rule="evenodd" clip-rule="evenodd" d="M5.56934 34.9355C5.4478 34.9411 5.33172 34.9875 5.23986 35.0671L1.41708 38.3051C1.30785 38.3978 1.24003 38.53 1.22854 38.6725C1.21705 38.8151 1.26283 38.9563 1.35581 39.0652C1.44879 39.1741 1.58136 39.2419 1.72435 39.2534C1.86733 39.2648 2.00903 39.2192 2.11828 39.1265L5.94106 35.888C6.02773 35.8155 6.08944 35.7179 6.11753 35.6087C6.14561 35.4995 6.13865 35.3842 6.09762 35.2792C6.05659 35.1741 5.98355 35.0846 5.88879 35.0231C5.79403 34.9616 5.6823 34.9304 5.56934 34.9355Z" fill="#1188EE"/>
<path fill-rule="evenodd" clip-rule="evenodd" d="M6.33812 36.6494C6.19755 36.6537 6.06422 36.7123 5.9664 36.8131L1.18898 41.6726C1.13785 41.7229 1.09729 41.7829 1.06965 41.849C1.04201 41.9151 1.02785 41.9861 1.02801 42.0577C1.02816 42.1293 1.04262 42.2002 1.07055 42.2661C1.09847 42.3321 1.13929 42.3919 1.19064 42.4419C1.24198 42.492 1.30282 42.5314 1.36959 42.5577C1.43636 42.5841 1.50774 42.5968 1.57954 42.5954C1.65135 42.594 1.72215 42.5783 1.78782 42.5493C1.85348 42.5203 1.91269 42.4785 1.96199 42.4264L6.73941 37.5669C6.8155 37.4902 6.8668 37.3926 6.88666 37.2866C6.90652 37.1806 6.89404 37.0712 6.85084 36.9723C6.80763 36.8735 6.73567 36.7899 6.64427 36.7323C6.55287 36.6746 6.44623 36.646 6.33812 36.6494Z" fill="#1188EE"/>
<path fill-rule="evenodd" clip-rule="evenodd" d="M7.07733 38.936C6.93874 38.948 6.81014 39.0129 6.71829 39.117L1.74656 44.6462C1.6508 44.7528 1.60146 44.893 1.60939 45.0359C1.61732 45.1789 1.68187 45.3129 1.78885 45.4084C1.89582 45.5038 2.03646 45.5528 2.17983 45.5449C2.3232 45.5371 2.45756 45.4729 2.55336 45.3662L7.52086 39.8371C7.5942 39.7572 7.64167 39.657 7.65708 39.5497C7.67249 39.4425 7.65512 39.333 7.60724 39.2357C7.55936 39.1385 7.48319 39.0579 7.38867 39.0044C7.29414 38.9509 7.18565 38.927 7.07733 38.936Z" fill="#1188EE"/>
<path fill-rule="evenodd" clip-rule="evenodd" d="M7.83766 41.2225C7.69779 41.2368 7.569 41.3049 7.47862 41.4123L2.79413 46.7477C2.7449 46.8006 2.70684 46.8627 2.68221 46.9306C2.65758 46.9985 2.64689 47.0706 2.65076 47.1427C2.65464 47.2148 2.673 47.2855 2.70476 47.3504C2.73652 47.4153 2.78103 47.4732 2.83565 47.5207C2.89027 47.5681 2.95389 47.604 3.02273 47.6265C3.09157 47.6489 3.16423 47.6573 3.23639 47.6512C3.30856 47.6451 3.37876 47.6246 3.44283 47.5909C3.5069 47.5573 3.56353 47.511 3.60937 47.4551L8.28964 42.1194C8.36226 42.0388 8.40881 41.9384 8.42323 41.831C8.43764 41.7236 8.41926 41.6144 8.37046 41.5175C8.32166 41.4207 8.24473 41.3406 8.14968 41.288C8.05464 41.2354 7.94591 41.2126 7.83766 41.2225Z" fill="#1188EE"/>
<path fill-rule="evenodd" clip-rule="evenodd" d="M8.71205 42.7469C8.63318 42.7519 8.55638 42.7741 8.48705 42.8119C8.41772 42.8497 8.35754 42.9024 8.31076 42.9659L4.2979 48.3013C4.25518 48.358 4.22408 48.4224 4.20638 48.4911C4.18867 48.5597 4.1847 48.6312 4.19471 48.7013C4.20471 48.7715 4.22848 48.839 4.26466 48.9001C4.30084 48.9611 4.34873 49.0146 4.40559 49.0572C4.46245 49.0998 4.52716 49.1306 4.59604 49.1482C4.66491 49.1659 4.7366 49.1701 4.80701 49.1601C4.87742 49.1501 4.94517 49.1264 5.00639 49.0903C5.06762 49.0543 5.12111 49.0065 5.16383 48.9498L9.17669 43.6144C9.2404 43.5322 9.27892 43.4334 9.28762 43.3299C9.29633 43.2264 9.27484 43.1225 9.22576 43.0309C9.17667 42.9393 9.10207 42.8636 9.01093 42.8132C8.9198 42.7629 8.81601 42.7399 8.71205 42.7469Z" fill="#1188EE"/>
<path fill-rule="evenodd" clip-rule="evenodd" d="M9.75961 44.9367C9.68113 44.9429 9.60493 44.9661 9.53635 45.0046C9.46776 45.0432 9.40845 45.0962 9.36255 45.1599L6.11002 49.5436C6.06711 49.6005 6.03592 49.6655 6.01827 49.7345C6.00063 49.8034 5.99686 49.8751 6.00719 49.9455C6.01753 50.016 6.04176 50.0837 6.07848 50.1448C6.11521 50.2058 6.1637 50.2591 6.22117 50.3014C6.27863 50.3436 6.34393 50.3741 6.41328 50.3911C6.48264 50.4081 6.55468 50.4113 6.62525 50.4003C6.69582 50.3894 6.76352 50.3646 6.82444 50.3274C6.88535 50.2903 6.93829 50.2414 6.98018 50.1837L10.2285 45.8C10.2912 45.7175 10.3288 45.6187 10.3367 45.5155C10.3446 45.4122 10.3224 45.3089 10.273 45.2178C10.2235 45.1268 10.1488 45.0519 10.0578 45.002C9.96674 44.9522 9.86323 44.9295 9.75961 44.9367Z" fill="#1188EE"/>
<path fill-rule="evenodd" clip-rule="evenodd" d="M10.7185 47.0337C10.6213 47.0399 10.5277 47.072 10.4474 47.1269C10.3671 47.1818 10.3031 47.2572 10.2623 47.3453L9.0204 49.9183C8.95826 50.0473 8.95005 50.1954 8.99758 50.3305C9.04512 50.4655 9.14451 50.5761 9.27389 50.6381C9.40326 50.7001 9.55204 50.7084 9.68749 50.661C9.82294 50.6137 9.93397 50.5147 9.99616 50.3857L11.238 47.8128C11.2807 47.7279 11.3001 47.6333 11.2942 47.5385C11.2884 47.4437 11.2576 47.352 11.2048 47.273C11.1521 47.1939 11.0794 47.1302 10.994 47.0882C10.9085 47.0462 10.8135 47.0274 10.7185 47.0337Z" fill="#1188EE"/>
<path fill-rule="evenodd" clip-rule="evenodd" d="M7.06044 5.53796C6.91987 5.54232 6.78654 5.60094 6.68872 5.70167L1.21433 11.0918C1.16242 11.1413 1.12091 11.2004 1.09222 11.2661C1.06353 11.3317 1.04823 11.4024 1.04722 11.474C1.0462 11.5455 1.05949 11.6166 1.08631 11.6829C1.11313 11.7493 1.15294 11.8097 1.20342 11.8606C1.2539 11.9115 1.31404 11.9518 1.38033 11.9793C1.44662 12.0068 1.51773 12.0208 1.58952 12.0206C1.66131 12.0204 1.73234 12.0061 1.79847 11.9782C1.86459 11.9504 1.92449 11.9094 1.97466 11.8582L7.44483 6.46808C7.52433 6.3932 7.57919 6.29622 7.60216 6.18962C7.62513 6.08302 7.61514 5.97198 7.57351 5.87116C7.53187 5.77034 7.46054 5.68439 7.36894 5.62482C7.27734 5.56524 7.16977 5.53533 7.06044 5.53796Z" fill="#1188EE"/>
<path fill-rule="evenodd" clip-rule="evenodd" d="M7.02242 8.23317C6.94402 8.23064 6.86601 8.24501 6.7938 8.27554C6.72159 8.30607 6.65691 8.35183 6.60424 8.40977L0.927089 14.4737C0.878542 14.5254 0.840686 14.5861 0.815684 14.6524C0.790682 14.7187 0.779024 14.7893 0.781373 14.8601C0.783722 14.9308 0.800034 15.0006 0.829377 15.0651C0.858721 15.1296 0.900521 15.1878 0.95239 15.2362C1.00426 15.2845 1.06518 15.322 1.13168 15.347C1.19818 15.3719 1.26895 15.3835 1.33995 15.3812C1.41095 15.3788 1.48079 15.3625 1.54548 15.3333C1.61018 15.304 1.66845 15.2623 1.71699 15.2106L7.39414 9.1467C7.467 9.07166 7.51643 8.97735 7.53642 8.87483C7.5564 8.7723 7.54608 8.66605 7.50671 8.56926C7.46733 8.47247 7.4006 8.38918 7.31463 8.32949C7.22865 8.26981 7.12714 8.23641 7.02242 8.23317Z" fill="#1188EE"/>
<path fill-rule="evenodd" clip-rule="evenodd" d="M7.00552 11.2651C6.86471 11.2661 6.72984 11.3218 6.62958 11.4204L1.69587 16.0691C1.63837 16.1159 1.59115 16.1742 1.55714 16.2399C1.52313 16.3057 1.50307 16.3777 1.4982 16.4516C1.49332 16.5254 1.50375 16.5993 1.52882 16.6689C1.55389 16.7386 1.59307 16.8025 1.64393 16.8563C1.69478 16.9102 1.75622 16.953 1.82441 16.9821C1.89261 17.0113 1.9661 17.0262 2.04032 17.0258C2.11453 17.0255 2.18788 17.0101 2.2558 16.9803C2.32371 16.9505 2.38474 16.907 2.43508 16.8527L7.36879 12.2034C7.44989 12.1303 7.50687 12.0344 7.5322 11.9283C7.55753 11.8223 7.55003 11.7113 7.51069 11.6096C7.47135 11.5079 7.40201 11.4204 7.31183 11.3588C7.22164 11.2972 7.11485 11.265 7.00552 11.2651Z" fill="#1188EE"/>
<path fill-rule="evenodd" clip-rule="evenodd" d="M35.1716 34.9355C35.0501 34.9411 34.934 34.9875 34.8421 35.0671L31.0193 38.3051C30.9101 38.3978 30.8423 38.53 30.8308 38.6725C30.8193 38.8151 30.8651 38.9563 30.9581 39.0652C31.051 39.1741 31.1836 39.2419 31.3266 39.2534C31.4696 39.2648 31.6113 39.2192 31.7205 39.1265L35.5433 35.888C35.63 35.8155 35.6917 35.7179 35.7198 35.6087C35.7479 35.4995 35.7409 35.3842 35.6999 35.2792C35.6589 35.1741 35.5858 35.0846 35.4911 35.0231C35.3963 34.9616 35.2846 34.9304 35.1716 34.9355Z" fill="#1188EE"/>
<path fill-rule="evenodd" clip-rule="evenodd" d="M35.9404 36.6494C35.7998 36.6537 35.6665 36.7123 35.5687 36.8131L30.7912 41.6726C30.7401 41.7229 30.6996 41.7829 30.6719 41.849C30.6443 41.9151 30.6301 41.9861 30.6303 42.0577C30.6304 42.1293 30.6449 42.2002 30.6728 42.2661C30.7007 42.3321 30.7416 42.3919 30.7929 42.4419C30.8443 42.492 30.9051 42.5314 30.9719 42.5577C31.0386 42.5841 31.11 42.5968 31.1818 42.5954C31.2536 42.594 31.3244 42.5783 31.3901 42.5493C31.4557 42.5203 31.515 42.4785 31.5643 42.4264L36.3417 37.5669C36.4178 37.4902 36.4691 37.3926 36.4889 37.2866C36.5088 37.1806 36.4963 37.0712 36.4531 36.9723C36.4099 36.8735 36.3379 36.7899 36.2465 36.7323C36.1551 36.6746 36.0485 36.646 35.9404 36.6494Z" fill="#1188EE"/>
<path fill-rule="evenodd" clip-rule="evenodd" d="M36.6796 38.936C36.541 38.948 36.4124 39.0129 36.3205 39.117L31.3488 44.6462C31.3014 44.699 31.2649 44.7606 31.2413 44.8275C31.2178 44.8944 31.2077 44.9652 31.2116 45.0359C31.2195 45.1789 31.2841 45.3129 31.391 45.4084C31.498 45.5038 31.6387 45.5531 31.7821 45.5452C31.9255 45.5373 32.0598 45.4729 32.1556 45.3662L37.1231 39.8371C37.1965 39.7572 37.2439 39.657 37.2593 39.5497C37.2748 39.4425 37.2574 39.333 37.2095 39.2357C37.1616 39.1385 37.0855 39.0579 36.9909 39.0044C36.8964 38.9509 36.7879 38.927 36.6796 38.936Z" fill="#1188EE"/>
<path fill-rule="evenodd" clip-rule="evenodd" d="M37.4399 41.2225C37.3 41.2368 37.1713 41.3049 37.0809 41.4123L32.3964 46.7477C32.3472 46.8006 32.3091 46.8627 32.2845 46.9306C32.2598 46.9985 32.2491 47.0706 32.253 47.1427C32.2569 47.2148 32.2753 47.2855 32.307 47.3504C32.3388 47.4153 32.3833 47.4732 32.4379 47.5207C32.4925 47.5681 32.5562 47.604 32.625 47.6265C32.6938 47.6489 32.7665 47.6573 32.8387 47.6512C32.9108 47.6451 32.981 47.6246 33.0451 47.5909C33.1092 47.5573 33.1658 47.511 33.2116 47.4551L37.8919 42.1194C37.9645 42.0388 38.0111 41.9384 38.0255 41.831C38.0399 41.7236 38.0215 41.6144 37.9727 41.5175C37.9239 41.4207 37.847 41.3406 37.7519 41.288C37.6569 41.2354 37.5482 41.2126 37.4399 41.2225Z" fill="#1188EE"/>
<path fill-rule="evenodd" clip-rule="evenodd" d="M38.3143 42.7469C38.2354 42.7519 38.1586 42.7741 38.0893 42.8119C38.02 42.8497 37.9598 42.9024 37.913 42.9659L33.9002 48.3013C33.8574 48.358 33.8263 48.4224 33.8086 48.4911C33.7909 48.5597 33.787 48.6312 33.797 48.7013C33.807 48.7715 33.8307 48.839 33.8669 48.9001C33.9031 48.9611 33.951 49.0146 34.0079 49.0572C34.0647 49.0998 34.1294 49.1306 34.1983 49.1482C34.2672 49.1659 34.3389 49.1701 34.4093 49.1601C34.4797 49.1501 34.5474 49.1264 34.6087 49.0903C34.6699 49.0543 34.7234 49.0065 34.7661 48.9498L38.779 43.6144C38.8427 43.5322 38.8812 43.4334 38.8899 43.3299C38.8986 43.2264 38.8771 43.1225 38.828 43.0309C38.7789 42.9393 38.7043 42.8636 38.6132 42.8132C38.5221 42.7629 38.4183 42.7399 38.3143 42.7469Z" fill="#1188EE"/>
<path fill-rule="evenodd" clip-rule="evenodd" d="M39.3619 44.9367C39.2834 44.9429 39.2072 44.9661 39.1386 45.0046C39.07 45.0432 39.0107 45.0962 38.9648 45.1599L35.7123 49.5436C35.6694 49.6005 35.6382 49.6655 35.6205 49.7345C35.6029 49.8034 35.5991 49.8751 35.6095 49.9455C35.6198 50.016 35.644 50.0837 35.6808 50.1448C35.7175 50.2058 35.766 50.2591 35.8234 50.3014C35.8809 50.3436 35.9462 50.3741 36.0156 50.3911C36.0849 50.4081 36.1569 50.4113 36.2275 50.4003C36.2981 50.3894 36.3658 50.3646 36.4267 50.3274C36.4876 50.2903 36.5406 50.2414 36.5824 50.1837L39.8307 45.8C39.8935 45.7175 39.931 45.6187 39.9389 45.5155C39.9468 45.4122 39.9247 45.3089 39.8753 45.2178C39.8258 45.1268 39.7511 45.0519 39.66 45.002C39.569 44.9522 39.4655 44.9295 39.3619 44.9367Z" fill="#1188EE"/>
<path fill-rule="evenodd" clip-rule="evenodd" d="M40.3207 47.0337C40.2236 47.0399 40.1299 47.072 40.0496 47.1269C39.9693 47.1818 39.9054 47.2572 39.8645 47.3453L38.6227 49.9183C38.5919 49.9822 38.574 50.0515 38.5701 50.1223C38.5662 50.193 38.5763 50.2639 38.5998 50.3307C38.6473 50.4658 38.7467 50.5764 38.8761 50.6384C39.0055 50.7004 39.1543 50.7084 39.2898 50.661C39.4252 50.6136 39.5363 50.5147 39.5984 50.3857L40.8403 47.8128C40.8829 47.7279 40.9023 47.6333 40.8965 47.5385C40.8907 47.4437 40.8598 47.352 40.8071 47.273C40.7544 47.1939 40.6816 47.1302 40.5962 47.0882C40.5108 47.0462 40.4158 47.0274 40.3207 47.0337Z" fill="#1188EE"/>
</svg>
