<svg width="176" height="61" viewBox="0 0 176 61" fill="none" xmlns="http://www.w3.org/2000/svg">
<path d="M2 14.2829C2.62576 15.0629 2.62562 15.063 2.62562 15.063C2.62579 15.0629 2.62591 15.0628 2.62626 15.0625C2.62694 15.0619 2.62813 15.061 2.62984 15.0596C2.63325 15.0569 2.6387 15.0526 2.64617 15.0466C2.66112 15.0348 2.68412 15.0166 2.71499 14.9924C2.77673 14.944 2.8699 14.8715 2.99285 14.7774C3.23877 14.5893 3.60372 14.315 4.07453 13.9743C5.01643 13.2926 6.38049 12.3467 8.06161 11.295C11.4298 9.18781 16.0429 6.67399 21.0656 5.00326C26.0984 3.32917 31.4532 2.53144 36.3531 3.74643C41.2039 4.94926 45.73 8.15371 49.1103 14.7395L50.8896 13.8262C47.2699 6.77403 42.2961 3.1595 36.8344 1.80521C31.4218 0.463079 25.6515 1.37009 20.4344 3.1055C15.2071 4.84426 10.4452 7.44469 7.00089 9.59941C5.27575 10.6786 3.8742 11.6505 2.90203 12.354C2.41581 12.7058 2.03662 12.9908 1.77766 13.1889C1.64817 13.288 1.54871 13.3654 1.48093 13.4185C1.44704 13.4451 1.42107 13.4656 1.40322 13.4798C1.39429 13.4868 1.3874 13.4923 1.38256 13.4962C1.38014 13.4981 1.37824 13.4996 1.37685 13.5008C1.37616 13.5013 1.3755 13.5018 1.37516 13.5021C1.37464 13.5025 1.37424 13.5028 2 14.2829ZM49.1103 14.7395C52.6678 21.6705 56.6916 26.0753 60.9584 28.5043C65.2443 30.9442 69.6884 31.3402 73.9628 30.4094C82.4312 28.5655 90.2402 21.5227 95.2954 14.889L93.7046 13.6767C88.7598 20.1657 81.3188 26.7609 73.5372 28.4552C69.6866 29.2937 65.7557 28.9339 61.9478 26.7662C58.1209 24.5877 54.3321 20.5332 50.8896 13.8262L49.1103 14.7395ZM95.2954 14.889C97.8164 11.5807 99.9879 8.64798 102.243 6.39124C104.485 4.14882 106.721 2.66731 109.323 2.17819C111.922 1.68967 115.043 2.16207 119.107 4.14864C123.18 6.13931 128.13 9.61749 134.343 15.0364L135.657 13.5293C129.387 8.05962 124.284 4.45316 119.985 2.3518C115.678 0.246348 112.109 -0.380668 108.953 0.212628C105.801 0.805334 103.218 2.58689 100.829 4.9774C98.454 7.3536 96.1836 10.4237 93.7046 13.6767L95.2954 14.889ZM134.343 15.0364C140.683 20.5673 146.455 23.3862 151.579 24.4493C156.71 25.5138 161.128 24.8043 164.73 23.3792C168.32 21.9583 171.085 19.8328 172.948 18.072C173.881 17.1899 174.593 16.3944 175.074 15.8155C175.315 15.5259 175.499 15.29 175.624 15.124C175.686 15.041 175.734 14.9754 175.767 14.9292C175.784 14.9062 175.797 14.8879 175.806 14.8748C175.811 14.8683 175.815 14.863 175.817 14.859C175.819 14.857 175.82 14.8553 175.821 14.854C175.821 14.8533 175.822 14.8526 175.822 14.8523C175.823 14.8516 175.823 14.851 175 14.2829C174.177 13.7147 174.177 13.7143 174.178 13.714C174.178 13.714 174.178 13.7137 174.178 13.7137C174.178 13.7137 174.178 13.714 174.177 13.7146C174.176 13.7159 174.174 13.7185 174.172 13.7223C174.166 13.7299 174.157 13.7426 174.145 13.7601C174.12 13.795 174.08 13.849 174.027 13.9202C173.919 14.0626 173.755 14.2733 173.536 14.5366C173.098 15.0636 172.44 15.7993 171.574 16.6186C169.837 18.2605 167.283 20.2181 163.994 21.5195C160.716 22.8165 156.695 23.4681 151.985 22.491C147.269 21.5124 141.799 18.887 135.657 13.5293L134.343 15.0364ZM1 29.2829C1.62576 30.0629 1.62562 30.063 1.62562 30.063C1.62579 30.0629 1.62591 30.0628 1.62626 30.0625C1.62694 30.0619 1.62813 30.061 1.62984 30.0596C1.63325 30.0569 1.6387 30.0526 1.64617 30.0466C1.66112 30.0348 1.68412 30.0166 1.71499 29.9924C1.77673 29.944 1.8699 29.8715 1.99285 29.7774C2.23877 29.5893 2.60372 29.315 3.07453 28.9743C4.01643 28.2926 5.38049 27.3467 7.06161 26.295C10.4298 24.1878 15.0429 21.674 20.0656 20.0033C25.0984 18.3292 30.4532 17.5314 35.3531 18.7464C40.2039 19.9493 44.73 23.1537 48.1103 29.7395L49.8896 28.8262C46.2699 21.774 41.2961 18.1595 35.8344 16.8052C30.4218 15.4631 24.6515 16.3701 19.4344 18.1055C14.2071 19.8443 9.44516 22.4447 6.00089 24.5994C4.27575 25.6786 2.8742 26.6505 1.90203 27.354C1.41581 27.7058 1.03662 27.9908 0.77766 28.1889C0.64817 28.288 0.54871 28.3654 0.480932 28.4185C0.447041 28.4451 0.421069 28.4656 0.403219 28.4798C0.394294 28.4868 0.3874 28.4923 0.382562 28.4962C0.380143 28.4981 0.378239 28.4996 0.376851 28.5008C0.376157 28.5013 0.375505 28.5018 0.375158 28.5021C0.374636 28.5025 0.374243 28.5028 1 29.2829ZM48.1103 29.7395C51.6678 36.6705 55.6916 41.0753 59.9584 43.5043C64.2443 45.9442 68.6884 46.3402 72.9628 45.4094C81.4312 43.5655 89.2402 36.5227 94.2954 29.889L92.7046 28.6767C87.7598 35.1657 80.3188 41.7609 72.5372 43.4552C68.6866 44.2937 64.7557 43.9339 60.9478 41.7662C57.1209 39.5877 53.3321 35.5332 49.8896 28.8262L48.1103 29.7395ZM94.2954 29.889C96.8164 26.5807 98.9879 23.648 101.243 21.3912C103.485 19.1488 105.721 17.6673 108.323 17.1782C110.922 16.6897 114.043 17.1621 118.107 19.1486C122.18 21.1393 127.13 24.6175 133.343 30.0364L134.657 28.5293C128.387 23.0596 123.284 19.4532 118.985 17.3518C114.678 15.2463 111.109 14.6193 107.953 15.2126C104.801 15.8053 102.218 17.5869 99.8289 19.9774C97.454 22.3536 95.1836 25.4237 92.7046 28.6767L94.2954 29.889ZM133.343 30.0364C139.683 35.5673 145.455 38.3862 150.579 39.4493C155.71 40.5138 160.128 39.8043 163.73 38.3792C167.32 36.9583 170.085 34.8328 171.948 33.072C172.881 32.1899 173.593 31.3944 174.074 30.8155C174.315 30.5259 174.499 30.29 174.624 30.124C174.686 30.041 174.734 29.9754 174.767 29.9292C174.784 29.9062 174.797 29.8879 174.806 29.8748C174.811 29.8683 174.815 29.863 174.817 29.859C174.819 29.857 174.82 29.8553 174.821 29.854C174.821 29.8533 174.822 29.8526 174.822 29.8523C174.823 29.8516 174.823 29.851 174 29.2829C173.177 28.7147 173.177 28.7143 173.178 28.714C173.178 28.714 173.178 28.7137 173.178 28.7137C173.178 28.7137 173.178 28.714 173.177 28.7146C173.176 28.7159 173.174 28.7185 173.172 28.7223C173.166 28.7299 173.157 28.7426 173.145 28.7601C173.12 28.795 173.08 28.849 173.027 28.9202C172.919 29.0626 172.755 29.2733 172.536 29.5366C172.098 30.0637 171.44 30.7993 170.574 31.6186C168.837 33.2605 166.283 35.2181 162.994 36.5195C159.716 37.8165 155.695 38.4681 150.985 37.491C146.269 36.5124 140.799 33.887 134.657 28.5293L133.343 30.0364ZM1 44.2829C1.62576 45.0629 1.62562 45.063 1.62562 45.063C1.62579 45.0629 1.62591 45.0628 1.62626 45.0625C1.62694 45.0619 1.62813 45.061 1.62984 45.0596C1.63325 45.0569 1.6387 45.0526 1.64617 45.0466C1.66112 45.0348 1.68412 45.0166 1.71499 44.9924C1.77673 44.944 1.8699 44.8715 1.99285 44.7774C2.23877 44.5893 2.60372 44.315 3.07453 43.9743C4.01643 43.2926 5.38049 42.3466 7.06161 41.295C10.4298 39.1878 15.0429 36.674 20.0656 35.0033C25.0984 33.3292 30.4532 32.5314 35.3531 33.7464C40.2039 34.9493 44.73 38.1537 48.1103 44.7395L49.8896 43.8262C46.2699 36.774 41.2961 33.1595 35.8344 31.8052C30.4218 30.4631 24.6515 31.3701 19.4344 33.1055C14.2071 34.8443 9.44516 37.4447 6.00089 39.5994C4.27575 40.6786 2.8742 41.6505 1.90203 42.354C1.41581 42.7058 1.03662 42.9908 0.77766 43.1889C0.64817 43.288 0.54871 43.3654 0.480932 43.4185C0.447041 43.4451 0.421069 43.4656 0.403219 43.4798C0.394294 43.4868 0.3874 43.4923 0.382562 43.4962C0.380143 43.4981 0.378239 43.4996 0.376851 43.5008C0.376157 43.5013 0.375505 43.5018 0.375158 43.5021C0.374636 43.5025 0.374243 43.5028 1 44.2829ZM48.1103 44.7395C51.6678 51.6705 55.6916 56.0753 59.9584 58.5043C64.2443 60.9442 68.6884 61.3402 72.9628 60.4094C81.4312 58.5655 89.2402 51.5227 94.2954 44.889L92.7046 43.6767C87.7598 50.1657 80.3188 56.7609 72.5372 58.4552C68.6866 59.2937 64.7557 58.9339 60.9478 56.7662C57.1209 54.5877 53.3321 50.5332 49.8896 43.8262L48.1103 44.7395ZM94.2954 44.889C96.8164 41.5807 98.9879 38.648 101.243 36.3912C103.485 34.1488 105.721 32.6673 108.323 32.1782C110.922 31.6897 114.043 32.1621 118.107 34.1486C122.18 36.1393 127.13 39.6175 133.343 45.0364L134.657 43.5293C128.387 38.0596 123.284 34.4532 118.985 32.3518C114.678 30.2463 111.109 29.6193 107.953 30.2126C104.801 30.8053 102.218 32.5869 99.8289 34.9774C97.454 37.3536 95.1836 40.4237 92.7046 43.6767L94.2954 44.889ZM133.343 45.0364C139.683 50.5673 145.455 53.3862 150.579 54.4493C155.71 55.5138 160.128 54.8043 163.73 53.3792C167.32 51.9583 170.085 49.8328 171.948 48.072C172.881 47.1899 173.593 46.3944 174.074 45.8155C174.315 45.5259 174.499 45.29 174.624 45.124C174.686 45.041 174.734 44.9754 174.767 44.9292C174.784 44.9062 174.797 44.8879 174.806 44.8748C174.811 44.8683 174.815 44.863 174.817 44.859C174.819 44.857 174.82 44.8553 174.821 44.854C174.821 44.8533 174.822 44.8526 174.822 44.8523C174.823 44.8516 174.823 44.851 174 44.2829C173.177 43.7147 173.177 43.7143 173.178 43.714C173.178 43.714 173.178 43.7137 173.178 43.7137C173.178 43.7137 173.178 43.714 173.177 43.7146C173.176 43.7159 173.174 43.7185 173.172 43.7223C173.166 43.7299 173.157 43.7426 173.145 43.7601C173.12 43.795 173.08 43.849 173.027 43.9202C172.919 44.0626 172.755 44.2733 172.536 44.5366C172.098 45.0636 171.44 45.7993 170.574 46.6186C168.837 48.2605 166.283 50.2181 162.994 51.5195C159.716 52.8165 155.695 53.4681 150.985 52.491C146.269 51.5124 140.799 48.887 134.657 43.5293L133.343 45.0364Z" fill="#1188EE"/>
</svg>
