<svg width="31" height="47" viewBox="0 0 31 47" fill="none" xmlns="http://www.w3.org/2000/svg">
<path fill-rule="evenodd" clip-rule="evenodd" d="M14.6397 0.350646C15.1612 -0.116882 15.8618 -0.116882 16.3834 0.350646C22.8802 6.1746 25.8255 13.1565 26.0111 23.1736C26.0968 27.9569 25.7299 32.3366 24.6133 36.12C23.4681 39.9057 21.4315 43.4034 18.4332 46.357C18.0549 46.7267 17.5585 46.8472 17.0976 46.6812C16.1793 46.3504 16.023 44.9843 15.5115 44.1328C14.9997 44.9848 14.8444 46.3501 13.9254 46.6812C13.4645 46.8472 12.9682 46.7267 12.5899 46.357C9.5915 43.4034 7.55499 39.9057 6.40971 36.12C5.2931 32.3366 4.92624 27.9569 5.01193 23.1736C5.19755 13.1565 8.1428 6.1746 14.6397 0.350646ZM17.9984 42.0423C19.8746 39.8775 21.0052 37.5151 21.8041 34.7989C22.8092 31.4772 23.0991 27.8086 23.0119 23.2612C22.8672 15.4502 21.4108 10.3671 16.9984 5.64748V19.4524C18.7236 20.0096 19.4984 22.1333 19.4984 24.4724C19.4984 26.8115 18.7236 28.9352 16.9984 29.4924V40.7873C16.9984 40.7873 17.8001 41.7149 17.9984 42.0423ZM12.9983 42.0423C11.1221 39.8775 10.0179 37.5151 9.21893 34.7989C8.21389 31.4772 7.92391 27.8086 8.01112 23.2612C8.15557 15.4658 9.60442 10.3608 13.9983 5.64748V19.4524C12.2731 20.0096 11.4983 22.1333 11.4983 24.4724C11.4983 26.8115 12.2731 28.9352 13.9983 29.4924V40.7873C13.9983 40.7873 13.1892 41.727 12.9983 42.0423ZM15.4984 21.9624C14.3938 21.9624 13.4983 23.0861 13.4983 24.4724C13.4983 25.8587 14.3938 26.9824 15.4984 26.9824C16.6029 26.9824 17.4984 25.8587 17.4984 24.4724C17.4984 23.0861 16.6029 21.9624 15.4984 21.9624Z" fill="#1188EE"/>
</svg>
