<svg width="152" height="47" viewBox="0 0 152 47" fill="none" xmlns="http://www.w3.org/2000/svg">
<path d="M41.2744 41.4274C38.7544 41.4274 36.8224 40.8963 35.4784 39.8342C34.1584 38.7425 33.4984 37.1493 33.4984 35.0545C33.4984 33.9924 33.7864 33.122 34.3624 32.4434C34.9624 31.7353 35.7304 31.3813 36.6664 31.3813C37.2184 31.4108 37.6384 31.5878 37.9264 31.9123C38.2144 32.2074 38.3584 32.4877 38.3584 32.7532C38.3584 32.7827 38.2384 32.886 37.9984 33.063C37.7584 33.24 37.5424 33.5056 37.3504 33.8596C37.1584 34.2137 37.0624 34.7005 37.0624 35.3201C37.0624 36.7067 37.3984 37.7836 38.0704 38.5508C38.7664 39.2884 39.8344 39.6572 41.2744 39.6572C42.2584 39.6572 43.1224 39.4211 43.8664 38.9491C44.6104 38.477 45.1744 37.8574 45.5584 37.0903C45.9664 36.2937 46.1704 35.4676 46.1704 34.612C46.1704 33.5498 45.9184 32.6352 45.4144 31.8681C44.9344 31.101 44.3344 30.4667 43.6144 29.9651C42.8944 29.434 41.9104 28.8292 40.6624 28.1506C39.2224 27.354 38.0584 26.6311 37.1704 25.982C36.2824 25.333 35.5264 24.4773 34.9024 23.4152C34.2784 22.3236 33.9664 20.9811 33.9664 19.3879C33.9664 16.8211 34.6744 14.9033 36.0904 13.6346C37.5304 12.3659 39.4144 11.7316 41.7424 11.7316C43.5664 11.7316 45.1504 12.2037 46.4944 13.1478C47.8624 14.0919 48.5464 15.4786 48.5464 17.3079C48.5464 18.37 48.2464 19.2551 47.6464 19.9632C47.0704 20.6418 46.3144 20.9811 45.3784 20.9811C44.8264 20.9516 44.4064 20.7893 44.1184 20.4943C43.8304 20.1698 43.6864 19.8747 43.6864 19.6092C43.6864 19.5797 43.8424 19.4764 44.1544 19.2994C44.4904 19.1224 44.7784 18.8568 45.0184 18.5028C45.2824 18.1487 45.4144 17.6619 45.4144 17.0423C45.4144 15.9507 45.0664 15.0951 44.3704 14.4755C43.6984 13.8559 42.8344 13.5461 41.7784 13.5461C40.3144 13.5461 39.1984 13.9739 38.4304 14.8295C37.6864 15.6556 37.3144 16.6883 37.3144 17.9275C37.3144 18.9601 37.5424 19.8305 37.9984 20.5386C38.4544 21.2171 39.1864 21.8957 40.1944 22.5743C41.0104 23.1054 41.8984 23.6365 42.8584 24.1676C44.3944 25.0232 45.6064 25.805 46.4944 26.5131C47.4064 27.2212 48.1624 28.1506 48.7624 29.3012C49.3864 30.4519 49.6984 31.8828 49.6984 33.5941C49.6984 35.0693 49.3144 36.4117 48.5464 37.6214C47.8024 38.8015 46.7824 39.7309 45.4864 40.4095C44.2144 41.0881 42.8104 41.4274 41.2744 41.4274Z" fill="white"/>
<path d="M59.4994 41.0734C57.8674 41.0734 56.5714 40.4685 55.6114 39.2589C54.6514 38.0492 54.1714 36.456 54.1714 34.4792V26.2918C54.1714 25.5247 54.1474 24.9642 54.0994 24.6101C54.0754 24.2561 53.9314 23.9463 53.6674 23.6807C53.4034 23.4152 52.9594 23.2824 52.3354 23.2824C52.0474 23.2824 51.8314 23.2382 51.6874 23.1497C51.5434 23.0317 51.4714 22.7809 51.4714 22.3973C51.4714 22.2203 51.5194 22.058 51.6154 21.9105C51.7114 21.7335 51.8554 21.6302 52.0474 21.6007C53.5594 21.3352 54.8554 20.9516 55.9354 20.4501C56.2714 20.3025 56.5474 20.214 56.7634 20.1845H56.8714C57.2554 20.1845 57.4474 20.4648 57.4474 21.0254V34.4349C57.4474 35.7921 57.7954 36.8395 58.4914 37.5771C59.1874 38.2852 59.9914 38.6393 60.9034 38.6393C62.0314 38.6393 62.9914 38.3 63.7834 37.6214C64.5754 36.9428 65.1034 36.2642 65.3674 35.5856V26.2918C65.3674 25.5247 65.3434 24.9642 65.2954 24.6101C65.2714 24.2561 65.1274 23.9463 64.8634 23.6807C64.5994 23.4152 64.1554 23.2824 63.5314 23.2824C63.2434 23.2824 63.0274 23.2382 62.8834 23.1497C62.7394 23.0317 62.6674 22.7809 62.6674 22.3973C62.6674 22.2203 62.7154 22.058 62.8114 21.9105C62.9074 21.7335 63.0514 21.6302 63.2434 21.6007C64.7554 21.3352 66.0514 20.9516 67.1314 20.4501C67.4674 20.3025 67.7434 20.214 67.9594 20.1845H68.0674C68.4514 20.1845 68.6434 20.4648 68.6434 21.0254V36.338C68.6434 38.0787 69.5914 38.9491 71.4874 38.9491C71.8954 38.9491 72.0994 39.2294 72.0994 39.7899C72.0994 40.203 71.8954 40.4538 71.4874 40.5423L65.6914 41.0291C65.5234 41.0291 65.4274 40.9553 65.4034 40.8078C65.3794 40.6898 65.3674 40.4685 65.3674 40.144V37.6656H65.2954C64.5994 38.4622 64.0354 39.0818 63.6034 39.5244C63.1714 39.9374 62.6074 40.2915 61.9114 40.5865C61.2394 40.9111 60.4354 41.0734 59.4994 41.0734Z" fill="white"/>
<path d="M74.0687 40.675C73.9007 40.675 73.7567 40.5865 73.6367 40.4095C73.5407 40.2325 73.4927 40.026 73.4927 39.7899C73.5167 39.4064 73.5887 39.1851 73.7087 39.1261C73.8287 39.0376 74.0447 38.9933 74.3567 38.9933C74.9807 38.9933 75.4247 38.8605 75.6887 38.595C75.9527 38.3295 76.0967 38.0197 76.1207 37.6656C76.1687 37.3116 76.1927 36.751 76.1927 35.9839V25.8493C76.1927 25.0822 76.1687 24.5216 76.1207 24.1676C76.0967 23.8135 75.9527 23.5037 75.6887 23.2382C75.4247 22.9726 74.9807 22.8399 74.3567 22.8399C74.0687 22.8399 73.8527 22.7956 73.7087 22.7071C73.5647 22.5891 73.4927 22.3383 73.4927 21.9548C73.4927 21.7777 73.5407 21.6155 73.6367 21.4679C73.7327 21.2909 73.8767 21.1877 74.0687 21.1581C75.6287 20.8631 76.9127 20.4796 77.9207 20.0075C78.3287 19.86 78.6047 19.7715 78.7487 19.742H78.8567C79.2407 19.742 79.4327 20.0222 79.4327 20.5828V23.3267H79.5407C80.3807 22.2941 81.2327 21.4827 82.0967 20.8926C82.9607 20.273 83.7407 19.9632 84.4367 19.9632C85.2287 19.9632 85.8527 20.332 86.3087 21.0696C86.7887 21.7777 87.0287 22.6038 87.0287 23.548C87.0287 24.3741 86.8247 25.1117 86.4167 25.7608C86.0087 26.4099 85.4447 26.7344 84.7247 26.7344C84.3887 26.7344 84.0887 26.6459 83.8247 26.4689C83.5847 26.2918 83.4527 26.1443 83.4287 26.0263C83.4527 25.9673 83.5727 25.7903 83.7887 25.4952C84.0047 25.1707 84.1127 24.8019 84.1127 24.3888C84.1127 23.8578 83.9927 23.43 83.7527 23.1054C83.5367 22.7809 83.2367 22.6186 82.8527 22.6186C82.4447 22.6186 81.9287 22.8694 81.3047 23.3709C80.6807 23.843 80.0687 24.4478 79.4687 25.1854V35.9839C79.4687 36.751 79.4927 37.3116 79.5407 37.6656C79.5887 38.0197 79.7447 38.3295 80.0087 38.595C80.2727 38.8605 80.7167 38.9933 81.3407 38.9933H81.5567C81.7487 38.9933 81.8927 39.0376 81.9887 39.1261C82.0847 39.2146 82.1447 39.4359 82.1687 39.7899C82.1687 40.026 82.1207 40.2325 82.0247 40.4095C81.9287 40.5865 81.7847 40.675 81.5927 40.675C80.2007 40.5865 78.9407 40.5423 77.8127 40.5423C76.7327 40.5423 75.4847 40.5865 74.0687 40.675Z" fill="white"/>
<path d="M129.981 41.0733C128.349 41.0733 126.897 40.6013 125.625 39.6572C124.353 38.6835 123.357 37.4148 122.637 35.8511C121.941 34.2579 121.593 32.5762 121.593 30.8059C121.593 28.5931 122.013 26.6754 122.853 25.0527C123.693 23.4004 124.761 22.1465 126.057 21.2909C127.353 20.4058 128.661 19.9632 129.981 19.9632C131.613 19.9632 133.065 20.45 134.337 21.4237C135.609 22.3678 136.593 23.6365 137.289 25.2297C138.009 26.7934 138.369 28.4604 138.369 30.2306C138.369 32.4434 137.937 34.3759 137.073 36.0282C136.233 37.6509 135.165 38.9048 133.869 39.7899C132.573 40.6455 131.277 41.0733 129.981 41.0733ZM129.981 39.4359C131.613 39.4359 132.801 38.5803 133.545 36.869C134.313 35.1578 134.697 32.945 134.697 30.2306C134.697 27.6933 134.301 25.628 133.509 24.0348C132.741 22.4121 131.565 21.6007 129.981 21.6007C128.325 21.6007 127.125 22.4416 126.381 24.1233C125.637 25.805 125.265 28.0031 125.265 30.7174C125.265 33.2548 125.649 35.3496 126.417 37.0018C127.185 38.6245 128.373 39.4359 129.981 39.4359Z" fill="white"/>
<path d="M147.44 41.2946C146.264 41.2946 145.256 40.7636 144.416 39.7014C143.576 38.6393 143.156 37.1198 143.156 35.143V22.1318L141.068 22.2203C140.924 22.2203 140.804 22.1465 140.708 21.999C140.612 21.822 140.564 21.6302 140.564 21.4237C140.564 21.1581 140.6 20.9369 140.672 20.7598C140.768 20.5533 140.9 20.4353 141.068 20.4058C141.908 20.1993 142.556 19.8747 143.012 19.4322C143.492 18.9601 143.84 18.4585 144.056 17.9275C144.272 17.3669 144.536 16.526 144.848 15.4049C144.968 15.0213 145.232 14.8295 145.64 14.8295C145.808 14.8295 145.976 14.8885 146.144 15.0066C146.312 15.0951 146.396 15.2426 146.396 15.4491L146.144 20.4943L150.356 20.1845H150.428C150.74 20.1845 150.896 20.4648 150.896 21.0254C150.896 21.3499 150.848 21.6597 150.752 21.9548C150.68 22.2203 150.584 22.3531 150.464 22.3531L146.432 22.2203V35.6741C146.432 36.6477 146.588 37.4591 146.9 38.1082C147.236 38.7573 147.776 39.0818 148.52 39.0818C149.264 39.0818 149.924 38.9196 150.5 38.595C150.812 38.4475 151.004 38.3737 151.076 38.3737C151.244 38.3737 151.376 38.4622 151.472 38.6393C151.568 38.7868 151.664 38.9933 151.76 39.2589C151.784 39.3179 151.796 39.3916 151.796 39.4801C151.796 39.5981 151.724 39.7309 151.58 39.8784C150.884 40.439 150.224 40.8078 149.6 40.9848C149 41.1914 148.28 41.2946 147.44 41.2946Z" fill="white"/>
<path d="M89.2536 40.4095C89.3496 40.5865 89.4936 40.675 89.6856 40.675C91.0536 40.5865 92.3016 40.5423 93.4296 40.5423C95.0376 40.5423 96.5376 40.5865 97.9296 40.675C98.0976 40.675 98.2296 40.5865 98.3256 40.4095C98.4216 40.2325 98.4696 40.026 98.4696 39.7899C98.4456 39.4359 98.3856 39.2146 98.2896 39.1261C98.2176 39.0376 98.0736 38.9933 97.8576 38.9933H97.6416C96.8496 38.9933 96.2856 38.9196 95.9496 38.772C95.6136 38.6245 95.3856 38.359 95.2656 37.9754C95.1456 37.5624 95.0856 36.8985 95.0856 35.9839V22.2203H98.9016C99.0696 22.2203 99.2136 22.1318 99.3336 21.9548C99.4536 21.7777 99.5136 21.5712 99.5136 21.3352C99.4896 20.9811 99.4176 20.7598 99.2976 20.6713C99.2016 20.5533 99.0456 20.4943 98.8296 20.4943H95.0856V17.8389C95.0856 16.4228 95.1336 15.1836 95.2296 14.1214C95.3256 13.0298 95.6016 12.0267 96.0576 11.112C96.5136 10.1974 97.2216 9.74009 98.1816 9.74009C98.292 9.74009 98.3988 9.74808 98.5019 9.76407C98.4881 9.26474 98.5155 8.76243 98.581 8.28182C98.5321 8.28037 98.483 8.27965 98.4336 8.27965C96.3216 8.33865 94.6776 9.32704 93.5016 11.2448C92.3496 13.1331 91.7736 15.5966 91.7736 18.6355V20.4943H89.6136C89.3016 20.4943 89.0856 20.5386 88.9656 20.6271C88.8456 20.6861 88.7736 20.9221 88.7496 21.3352C88.7496 21.5712 88.7976 21.7777 88.8936 21.9548C89.0136 22.1318 89.1696 22.2203 89.3616 22.2203H91.7736V35.9839C91.7736 36.7805 91.7496 37.3558 91.7016 37.7099C91.6776 38.0344 91.5336 38.3295 91.2696 38.595C91.0056 38.8605 90.5616 38.9933 89.9376 38.9933C89.6256 38.9933 89.4096 39.0376 89.2896 39.1261C89.1936 39.1851 89.1336 39.4064 89.1096 39.7899C89.1096 40.026 89.1576 40.2325 89.2536 40.4095Z" fill="white"/>
<path fill-rule="evenodd" clip-rule="evenodd" d="M108.498 9.50898C108.498 12.2247 106.707 14.4263 104.498 14.4263C102.289 14.4263 100.498 12.2247 100.498 9.50898C100.498 6.79321 102.289 4.59165 104.498 4.59165C106.707 4.59165 108.498 6.79321 108.498 9.50898ZM104.498 11.9676C105.603 11.9676 106.498 10.8669 106.498 9.50898C106.498 8.15109 105.603 7.05031 104.498 7.05031C103.394 7.05031 102.498 8.15109 102.498 9.50898C102.498 10.8669 103.394 11.9676 104.498 11.9676Z" fill="white"/>
<path fill-rule="evenodd" clip-rule="evenodd" d="M102.745 16.5652V40.2767C102.745 40.5423 102.805 40.7488 102.925 40.8963C103.045 41.0733 103.213 41.1619 103.429 41.1619C103.645 41.1619 103.825 41.0438 103.969 40.8078C104.113 40.6013 104.245 40.2915 104.365 39.8784C104.485 39.4654 104.593 39.1408 104.689 38.9048H104.869C106.429 40.3505 108.277 41.0733 110.413 41.0733C111.853 41.0733 113.209 40.6013 114.481 39.6572C115.753 38.713 116.761 37.4296 117.505 35.8069C118.273 34.1547 118.657 32.3402 118.657 30.3634C118.657 28.3571 118.321 26.5721 117.649 25.0084C117.001 23.4152 116.101 22.176 114.949 21.2909C113.797 20.4058 112.513 19.9632 111.097 19.9632C110.233 19.9632 109.357 20.1845 108.469 20.6271C107.605 21.0401 106.825 21.6745 106.129 22.5301H106.021V16.6453C104.951 16.9897 103.804 16.9622 102.745 16.5652ZM113.617 37.1346C112.729 38.7573 111.553 39.5686 110.089 39.5686C109.321 39.5686 108.637 39.3621 108.037 38.9491C107.461 38.536 106.993 38.0492 106.633 37.4886C106.297 36.8985 106.093 36.3675 106.021 35.8954V24.2118C107.053 22.8546 108.325 22.176 109.837 22.176C111.541 22.176 112.825 23.0021 113.689 24.6544C114.553 26.2771 114.985 28.2391 114.985 30.5404C114.985 33.2843 114.529 35.4823 113.617 37.1346Z" fill="white"/>
<path fill-rule="evenodd" clip-rule="evenodd" d="M9.63967 0.632454C10.1612 0.174487 10.8618 0.174487 11.3834 0.632454C17.8802 6.33732 20.8255 13.1764 21.0111 22.9887C21.0968 27.6742 20.7299 31.9644 19.6133 35.6704C18.4681 39.3787 16.4315 42.8049 13.4332 45.6981C13.0549 46.0603 12.5585 46.1783 12.0976 46.0156C11.1793 45.6916 11.023 44.3535 10.5115 43.5193C9.99974 44.3539 9.84439 45.6913 8.9254 46.0156C8.46452 46.1783 7.96817 46.0603 7.58987 45.6981C4.5915 42.8049 2.55499 39.3787 1.40971 35.6704C0.293102 31.9644 -0.0737632 27.6742 0.0119281 22.9887C0.197553 13.1764 3.1428 6.33732 9.63967 0.632454ZM12.9984 41.4716C14.8746 39.351 16.0052 37.0369 16.8041 34.3763C17.8092 31.1225 18.0991 27.5289 18.0119 23.0746C17.8672 15.4233 16.4108 10.4441 11.9984 5.82098V19.3436C13.7236 19.8895 14.4984 21.9697 14.4984 24.261C14.4984 26.5522 13.7236 28.6325 11.9984 29.1783V40.2423C11.9984 40.2423 12.8001 41.1509 12.9984 41.4716ZM7.99835 41.4716C6.12206 39.351 5.01787 37.0369 4.21893 34.3763C3.21389 31.1225 2.92391 27.5289 3.01112 23.0746C3.15557 15.4385 4.60442 10.4379 8.99835 5.82098V19.3436C7.27312 19.8895 6.49835 21.9697 6.49835 24.261C6.49835 26.5522 7.27312 28.6325 8.99835 29.1783V40.2423C8.99835 40.2423 8.18923 41.1627 7.99835 41.4716ZM10.4984 21.8023C9.39378 21.8023 8.49835 22.9031 8.49835 24.261C8.49835 25.6189 9.39378 26.7196 10.4984 26.7196C11.6029 26.7196 12.4984 25.6189 12.4984 24.261C12.4984 22.9031 11.6029 21.8023 10.4984 21.8023Z" fill="white"/>
</svg>
