<svg width="22" height="47" viewBox="0 0 22 47" fill="none" xmlns="http://www.w3.org/2000/svg">
<path fill-rule="evenodd" clip-rule="evenodd" d="M9.63967 0.350646C10.1612 -0.116882 10.8618 -0.116882 11.3834 0.350646C17.8802 6.1746 20.8255 13.1565 21.0111 23.1736C21.0968 27.9569 20.7299 32.3366 19.6133 36.12C18.4681 39.9057 16.4315 43.4034 13.4332 46.357C13.0549 46.7267 12.5585 46.8472 12.0976 46.6812C11.1793 46.3504 11.023 44.9843 10.5115 44.1328C9.99974 44.9848 9.84439 46.3501 8.9254 46.6812C8.46452 46.8472 7.96817 46.7267 7.58987 46.357C4.5915 43.4034 2.55499 39.9057 1.40971 36.12C0.293102 32.3366 -0.0737632 27.9569 0.0119281 23.1736C0.197553 13.1565 3.1428 6.1746 9.63967 0.350646ZM12.9984 42.0423C14.8746 39.8775 16.0052 37.5151 16.8041 34.7989C17.8092 31.4772 18.0991 27.8086 18.0119 23.2612C17.8672 15.4502 16.4108 10.3671 11.9984 5.64748V19.4524C13.7236 20.0096 14.4984 22.1333 14.4984 24.4724C14.4984 26.8115 13.7236 28.9352 11.9984 29.4924V40.7873C11.9984 40.7873 12.8001 41.7149 12.9984 42.0423ZM7.99835 42.0423C6.12206 39.8775 5.01787 37.5151 4.21893 34.7989C3.21389 31.4772 2.92391 27.8086 3.01112 23.2612C3.15557 15.4658 4.60442 10.3608 8.99835 5.64748V19.4524C7.27312 20.0096 6.49835 22.1333 6.49835 24.4724C6.49835 26.8115 7.27312 28.9352 8.99835 29.4924V40.7873C8.99835 40.7873 8.18923 41.727 7.99835 42.0423ZM10.4984 21.9624C9.39378 21.9624 8.49835 23.0861 8.49835 24.4724C8.49835 25.8587 9.39378 26.9824 10.4984 26.9824C11.6029 26.9824 12.4984 25.8587 12.4984 24.4724C12.4984 23.0861 11.6029 21.9624 10.4984 21.9624Z" fill="white"/>
</svg>
